<svg xmlns="http://www.w3.org/2000/svg" width="512" height="512"><path fill="#E21F26" d="M356.262 123.496c7.162-9.099 13.768-18.649 19.558-28.68 4.691 13.596 7.427 27.806 9.148 42.06.009.159.022.481.031.64-3.742 4.104-7.802 7.908-11.981 11.566-.834-6.191-1.805-12.361-2.992-18.49-3.95 4.356-8.089 8.53-12.224 12.709.94 5.432 1.536 10.918 2.048 16.407-4.528 3.402-9.157 6.672-13.932 9.722.432 5.56.856 11.121 1.2 16.69 4.669-2.886 9.267-5.882 13.865-8.874.269 6.619.402 13.248.274 19.871 4.828-2.745 9.51-5.86 13.367-9.889.684-6.425.547-12.899.199-19.337 3.923-2.846 7.987-5.551 11.478-8.936.026 11.906-.918 23.843-3.327 35.511-1.889 7.127-4.682 14.227-9.594 19.832-4.254 4.907-9.876 8.318-15.436 11.535a299.195 299.195 0 01-17.894 9.704c3.799-19.121 2.109-39.319-5-57.483-2.961-7.709-6.972-14.973-11.597-21.8 12.479-9.229 23.184-20.64 32.809-32.758zM128.974 273.963c4.801-5.45 10.926-9.519 17.228-13.018 3.923 10.075 9.325 19.615 16.341 27.863 10.057 11.963 23.221 21.107 37.563 27.188 22.193 9.448 46.715 12.016 70.633 10.896-8.746 3.266-18.058 4.651-27.325 5.348-11.407.803-22.868.45-34.244-.609-11.571-1.108-23.08-2.974-34.386-5.684-8.967-2.193-17.846-4.872-26.301-8.592-7.286-3.217-14.333-7.4-19.695-13.38-3.685-4.13-6.403-9.444-6.293-15.092.054-5.604 2.843-10.802 6.479-14.92z"/><path fill="#32A449" d="M229.748 119.325c20.485-1.973 41.565 2.798 59.124 13.552 14.024 8.508 25.811 20.652 33.896 34.924 7.961 13.976 12.29 29.986 12.506 46.067.296 16.985-3.998 34.028-12.369 48.811-7.89 14.029-19.351 26.023-33.004 34.54-13.468 8.455-29.072 13.459-44.941 14.421-17.193 1.108-34.668-2.476-49.994-10.348-13.777-7.039-25.802-17.449-34.761-30.056a95.96 95.96 0 01-15.706-35.709c-3.698-17.374-2.533-35.771 3.447-52.509 5.679-16.032 15.732-30.471 28.746-41.424 14.866-12.6 33.643-20.499 53.056-22.269m3.411 16.562c-11.716 9.201-21.897 20.533-28.989 33.679-7.03 12.93-10.613 27.779-9.744 42.505.962 18.384 8.287 35.851 18.146 51.194-4.108-2.304-7.851-5.212-11.306-8.398-14.501-13.389-23.296-32.17-26.283-51.525-.177-1.28-.384-3.16-1.946-3.438-1.28.093-1.809 1.505-2.22 2.529-6.677 18.909-6.686 40.321 1.006 58.935 5.229 12.767 14.391 23.971 26.164 31.226 12.899 8.071 28.353 11.253 43.436 10.971 10.278-.115 20.635-1.999 30.003-6.319 10.984-4.982 20.322-13.398 26.592-23.684 8.495-13.812 11.765-30.405 10.812-46.481-1.055-17.766-7.202-35.25-17.74-49.619-.468-.534-1.041-1.394-1.853-1.028-.481 1.456.287 2.926.552 4.351 2.785 11.774 1.743 24.134-1.024 35.806-1.778 7.14-4.073 14.218-7.551 20.723 1.319-5.247 2.687-10.503 3.296-15.895 2.176-16.416-.587-33.375-7.586-48.361-6.416-13.808-15.948-26.133-27.51-36.018-2.82-2.277-5.64-4.682-8.976-6.16-2.632 1.296-4.914 3.273-7.279 5.007z"/><path fill="#FFF" d="M357.802 143.301c4.135-4.179 8.274-8.354 12.224-12.709 1.187 6.13 2.158 12.299 2.992 18.49 4.179-3.658 8.239-7.462 11.981-11.566-.009-.159-.022-.481-.031-.64l-.009-.287c.794 7.431 1.152 14.898 1.342 22.365-3.491 3.385-7.555 6.09-11.478 8.936.349 6.438.485 12.912-.199 19.337-3.857 4.029-8.539 7.145-13.367 9.889.128-6.624-.004-13.252-.274-19.871-4.598 2.992-9.197 5.988-13.865 8.874-.344-5.569-.768-11.129-1.2-16.69 4.775-3.049 9.404-6.319 13.932-9.722-.512-5.489-1.108-10.974-2.048-16.406zm-124.643-7.414c2.365-1.734 4.647-3.711 7.281-5.009 3.336 1.478 6.156 3.883 8.976 6.16 11.562 9.885 21.094 22.21 27.51 36.018 6.999 14.986 9.761 31.945 7.586 48.361-.609 5.393-1.977 10.648-3.296 15.895 3.477-6.505 5.772-13.583 7.551-20.723 2.767-11.672 3.808-24.033 1.024-35.806-.265-1.425-1.033-2.895-.552-4.351.812-.366 1.386.494 1.853 1.028 10.538 14.368 16.685 31.853 17.74 49.619.953 16.076-2.317 32.669-10.812 46.481-6.271 10.287-15.609 18.702-26.592 23.684-9.369 4.32-19.726 6.205-30.003 6.319-15.083.282-30.537-2.899-43.436-10.971-11.774-7.255-20.935-18.459-26.164-31.226-7.692-18.614-7.683-40.025-1.006-58.935.41-1.024.94-2.436 2.22-2.529 1.562.278 1.77 2.158 1.946 3.438 2.988 19.355 11.783 38.137 26.283 51.525 3.455 3.186 7.197 6.094 11.306 8.398-9.858-15.344-17.184-32.81-18.146-51.194-.869-14.726 2.714-29.575 9.744-42.505 7.09-13.143 17.271-24.476 28.987-33.677z"/><path d="M2.335 359.519c3.84-.69 11.615-1.209 18.911-1.209 8.927 0 14.399.777 19.103 3.283 4.512 2.159 7.775 6.134 7.775 11.403 0 5.185-3.359 10.022-10.655 12.441v.173c7.392 1.814 12.863 6.825 12.863 14.342 0 5.27-2.688 9.417-6.72 12.354-4.704 3.369-12.575 5.27-25.438 5.27-7.199 0-12.575-.432-15.839-.863v-57.194zm14.496 22.29h4.8c7.679 0 11.807-2.851 11.807-7.171 0-4.406-3.744-6.738-10.368-6.738-3.167 0-4.991.173-6.239.346v13.563zm0 25.832c1.44.173 3.167.173 5.664.173 6.624 0 12.479-2.246 12.479-8.38 0-5.875-5.855-8.208-13.151-8.208h-4.992v16.415zm58.174-48.9v58.23H60.318v-58.23h14.687zm71.9 28.511c0 19.093-12.863 30.67-31.774 30.67-19.199 0-30.43-13.046-30.43-29.634 0-17.451 12.383-30.497 31.486-30.497 19.871 0 30.718 13.392 30.718 29.461zm-46.749.777c0 11.404 5.952 19.438 15.743 19.438 9.887 0 15.551-8.466 15.551-19.784 0-10.454-5.567-19.438-15.647-19.438-9.887 0-15.647 8.467-15.647 19.784z" fill="#29B34B"/><path d="M183.638 388.883h19.739v29.066c-5.176 2.615-10.999 3.922-17.468 3.922-8.447 0-14.923-2.839-19.428-8.52-4.504-5.68-6.756-13.72-6.756-24.121 0-6.479 1.117-12.224 3.351-17.235 2.233-5.011 5.432-8.882 9.595-11.614 4.162-2.73 8.941-4.096 14.337-4.096 5.835 0 11.072 1.279 15.71 3.835l-1.501 4.009c-4.639-2.556-9.448-3.834-14.429-3.834-7.056 0-12.652 2.592-16.791 7.778-4.138 5.187-6.207 12.181-6.207 20.983 0 9.588 1.965 16.8 5.896 21.637 3.931 4.838 9.705 7.256 17.322 7.256 4.931 0 9.119-.828 12.561-2.484v-22.398h-15.93v-4.184zm78.186.174c0 10.11-2.125 18.107-6.373 23.99-4.248 5.883-10.107 8.824-17.578 8.824-7.447 0-13.293-2.941-17.542-8.824s-6.372-13.908-6.372-24.078c0-10.139 2.143-18.121 6.427-23.946 4.285-5.824 10.138-8.737 17.56-8.737 7.471 0 13.317 2.928 17.542 8.781 4.224 5.854 6.336 13.851 6.336 23.99zm-43.799 0c0 9.123 1.708 16.176 5.127 21.158 3.418 4.982 8.325 7.473 14.722 7.473 6.445 0 11.371-2.469 14.777-7.408 3.405-4.938 5.108-12.013 5.108-21.223 0-9.18-1.703-16.219-5.108-21.114-3.406-4.896-8.308-7.343-14.704-7.343-6.372 0-11.286 2.469-14.74 7.408-3.455 4.939-5.182 11.955-5.182 21.049zm95.471-31.77v41.227c0 7.32-1.782 13.045-5.347 17.17-3.565 4.125-8.532 6.188-14.905 6.188-6.201 0-11.041-2.069-14.52-6.209-3.479-4.141-5.219-9.915-5.219-17.323v-41.052h3.771v41.227c0 6.13 1.429 10.902 4.285 14.315 2.856 3.414 6.896 5.12 12.121 5.12 5.104 0 9.059-1.678 11.865-5.033 2.808-3.355 4.212-8.012 4.212-13.967v-41.662h3.737zm18.311 35.953V421h-3.735v-63.713h12.744c6.641 0 11.548 1.46 14.722 4.38s4.761 7.314 4.761 13.183c0 4.271-.946 7.873-2.838 10.808-1.893 2.935-4.768 5.041-8.624 6.319L363.374 421h-4.468L345.1 393.24h-13.293zm0-3.835h10.217c4.517 0 8.021-1.198 10.511-3.595 2.49-2.397 3.735-5.934 3.735-10.612 0-4.852-1.221-8.382-3.662-10.59s-6.421-3.312-11.938-3.312h-8.862v28.109zM396.187 421l-19.958-58.832h-.293c.194 3.604.293 7.293.293 11.069V421h-3.59v-63.713h5.787l18.969 56.043h.221l18.969-56.043h5.641V421h-3.772v-48.285c0-3.371.146-6.857.439-10.459h-.293L398.566 421h-2.379zm70.421 0h-29.261v-63.713h29.261v4.097h-25.524v24.099h24.096v4.098h-24.096v27.323h25.524V421zm26.075 0h-3.772v-59.529h-17.395v-4.184h38.563v4.184h-17.396V421z" fill="#29B34B" stroke="#29B34B" stroke-miterlimit="10"/></svg>