<svg xmlns="http://www.w3.org/2000/svg" width="512" height="512"><path fill="#FFF" d="M176.959 229.733c4.465-55.047 40.626-104.091 86.962-132.347 31.11 26.059 59.146 57.755 71.59 97.137 9.736 29.573 6.002 61.123 6.149 91.72 11.346-35.136 16.031-72.249 9.004-108.776 20.277 30.891 36.234 66.173 36.015 103.872 2.05 50.142-24.376 103.872-72.542 123.343-40.773 15.299-89.085 13.249-127.223-8.418-58.194-33.306-77.959-115.877-47.507-173.925 8.198 46.775 30.159 92.013 70.199 119.39-18.153-34.55-36.307-71.736-32.647-111.996z"/><path fill="#2CB34B" d="M215.03 4.56c79.276-20.35 168.435 23.131 200.936 98.235 25.327 55.12 19.984 124.148-15.006 174.071-42.164 62.294-126.71 92.965-198.3 67.857-71.737-22.033-124.515-94.135-122.319-169.459C79.097 96.208 138.316 22.421 215.03 4.56m-40.333 148.524c-3.66 40.26 14.494 77.446 32.647 111.997-40.041-27.377-62.001-72.615-70.199-119.39-30.451 58.048-10.687 140.618 47.507 173.925 38.138 21.667 86.45 23.717 127.223 8.418 48.166-19.471 74.591-73.201 72.542-123.343.22-37.698-15.738-72.981-36.015-103.872 7.027 36.527 2.342 73.64-9.004 108.776-.146-30.598 3.587-62.147-6.149-91.72-12.444-39.382-40.48-71.078-71.59-97.137-46.336 28.255-82.497 77.3-86.962 132.346z"/><path d="M129.383 403.438c7.12-1.281 21.537-2.243 35.065-2.243 16.553 0 26.699 1.442 35.42 6.088 8.366 4.005 14.417 11.374 14.417 21.146 0 9.612-6.229 18.584-19.757 23.069v.32c13.705 3.364 23.851 12.656 23.851 26.594 0 9.772-4.984 17.462-12.459 22.908-8.722 6.248-23.317 9.772-47.168 9.772-13.35 0-23.317-.801-29.369-1.602V403.438zm26.877 41.332h8.9c14.239 0 21.893-5.287 21.893-13.297 0-8.17-6.942-12.496-19.223-12.496-5.874 0-9.256.32-11.57.641v25.152zm0 47.9c2.67.32 5.874.32 10.502.32 12.281 0 23.139-4.165 23.139-15.54 0-10.894-10.858-15.219-24.385-15.219h-9.256v30.439zm107.866-90.674v107.976h-27.233V401.996h27.233zm133.317 52.866c0 35.404-23.852 56.872-58.916 56.872-35.599 0-56.424-24.191-56.424-54.95 0-32.36 22.961-56.551 58.382-56.551 36.845 0 56.958 24.831 56.958 54.629zm-86.682 1.442c0 21.146 11.035 36.046 29.19 36.046 18.333 0 28.835-15.7 28.835-36.687 0-19.385-10.323-36.046-29.013-36.046-18.333 0-29.012 15.7-29.012 36.687z" fill="#29B34B"/></svg>