<svg xmlns="http://www.w3.org/2000/svg" width="512" height="512"><path fill="#E21F26" d="M403.873 87.507C412.93 76 421.284 63.924 428.605 51.24c5.932 17.193 9.392 35.162 11.568 53.187.011.201.028.608.039.809-4.732 5.19-9.866 10-15.151 14.626-1.055-7.829-2.282-15.631-3.784-23.382-4.994 5.508-10.229 10.787-15.458 16.072 1.189 6.869 1.942 13.806 2.589 20.748-5.725 4.303-11.579 8.438-17.617 12.294.547 7.031 1.083 14.063 1.518 21.105 5.904-3.65 11.719-7.439 17.534-11.222.34 8.371.508 16.752.346 25.129 6.105-3.471 12.026-7.411 16.903-12.506.865-8.125.692-16.312.251-24.453 4.961-3.599 10.101-7.02 14.515-11.3.034 15.056-1.161 30.151-4.208 44.906-2.388 9.012-5.921 17.991-12.132 25.078-5.38 6.205-12.489 10.519-19.52 14.587a377.791 377.791 0 01-22.629 12.271c4.805-24.18 2.667-49.721-6.323-72.69-3.744-9.749-8.817-18.934-14.665-27.567 15.783-11.67 29.321-26.101 41.492-41.425zM116.454 277.782c6.071-6.892 13.817-12.037 21.786-16.462 4.961 12.74 11.791 24.805 20.664 35.235 12.718 15.128 29.364 26.691 47.5 34.381 28.064 11.948 59.074 15.195 89.32 13.778-11.06 4.129-22.835 5.882-34.554 6.763-14.425 1.016-28.918.569-43.304-.77-14.632-1.401-29.186-3.761-43.483-7.188-11.339-2.773-22.567-6.161-33.259-10.865-9.213-4.068-18.125-9.358-24.905-16.92-4.66-5.223-8.097-11.942-7.958-19.085.068-7.087 3.595-13.66 8.193-18.867z"/><path fill="#32A449" d="M243.888 82.234c25.904-2.494 52.562 3.538 74.766 17.137 17.734 10.759 32.64 26.116 42.863 44.163 10.067 17.673 15.541 37.919 15.815 58.254.374 21.479-5.056 43.03-15.642 61.725-9.978 17.74-24.47 32.908-41.736 43.678-17.031 10.692-36.764 17.02-56.831 18.237-21.741 1.401-43.84-3.131-63.22-13.086-17.422-8.901-32.629-22.065-43.957-38.008-9.615-13.482-16.429-28.951-19.861-45.157-4.676-21.97-3.203-45.235 4.358-66.401 7.182-20.274 19.894-38.533 36.351-52.383 18.801-15.933 42.546-25.922 67.094-28.159m4.314 20.943c-14.816 11.635-27.69 25.966-36.658 42.59-8.89 16.351-13.421 35.129-12.322 53.75 1.217 23.248 10.48 45.335 22.947 64.738-5.195-2.913-9.928-6.59-14.297-10.62-18.337-16.931-29.459-40.681-33.237-65.157-.223-1.618-.485-3.996-2.461-4.347-1.618.117-2.288 1.903-2.807 3.198-8.443 23.912-8.454 50.988 1.272 74.526 6.613 16.144 18.198 30.313 33.086 39.487 16.312 10.207 35.854 14.23 54.928 13.873 12.997-.145 26.094-2.528 37.941-7.991 13.89-6.3 25.698-16.942 33.628-29.95 10.742-17.467 14.877-38.449 13.672-58.778-1.334-22.467-9.107-44.576-22.433-62.746-.592-.675-1.317-1.763-2.344-1.3-.608 1.842.363 3.7.698 5.502 3.521 14.889 2.204 30.519-1.295 45.279-2.249 9.029-5.151 17.98-9.548 26.206 1.669-6.635 3.398-13.281 4.169-20.101 2.751-20.759-.742-42.205-9.593-61.156-8.114-17.461-20.168-33.047-34.788-45.547-3.566-2.879-7.132-5.921-11.351-7.79-3.331 1.641-6.216 4.141-9.207 6.334zM144.351 384.926c9.888-1.021 20.435.921 28.471 7.037 7.69 5.72 12.372 14.81 13.75 24.191 1.535 10.38.1 21.535-5.586 30.519-4.593 7.372-12.188 12.684-20.586 14.799-8.214 2.065-17.059 1.869-25.101-.837-7.539-2.533-14.13-7.79-18.175-14.643-5.24-8.744-6.551-19.381-5.218-29.364 1.189-8.917 5.257-17.668 12.238-23.505 5.642-4.81 12.88-7.472 20.207-8.197m1.328 15.43c-4.325.776-8.036 3.744-10.123 7.561-3.058 5.525-3.8 12.031-3.521 18.253.313 5.469 1.484 11.178 4.888 15.608 5.748 7.651 18.934 7.701 24.632-.033 4.163-5.558 5.1-12.829 4.894-19.587-.285-6.161-1.523-12.768-5.804-17.478-3.699-4.101-9.698-5.329-14.966-4.324zm64.822-13.449c5.832-2.232 12.489-2.405 18.382-.29 4.587 1.63 8.521 5.089 10.513 9.559 1.306 2.69 1.713 5.686 1.842 8.65-2.087.006-4.169.011-6.244-.006-.285-4.464-2.221-9.046-6.144-11.468-6.736-4.208-16.981-3.214-21.764 3.482-2.372 3.482-2.762 8.482-.268 12.009 2.109 2.969 5.368 4.821 8.549 6.445 7.667 3.85 16.295 6.412 22.539 12.573 7.506 7.204 7.338 20.525.006 27.785-4.079 4.096-9.805 6.205-15.491 6.68-5.419.424-11.088-.357-15.86-3.097-3.744-2.132-6.696-5.547-8.371-9.509-1.473-3.287-1.853-6.92-2.07-10.474 2.109-.011 4.224-.011 6.334 0 .145 5.725 2.517 11.769 7.589 14.844 6.674 3.984 15.971 3.488 21.981-1.546 4.593-3.811 6.077-10.787 3.538-16.166-1.97-4.018-5.887-6.579-9.693-8.655-5.592-2.935-11.535-5.14-17.098-8.114-3.131-1.713-6.038-4.035-7.868-7.143-2.773-4.643-3.047-10.592-1.071-15.58 1.874-4.695 6.015-8.205 10.669-9.979zm153.639.697c5.508-2.606 11.936-3.136 17.835-1.663 4.76 1.189 9.163 4.113 11.685 8.376 1.953 3.142 2.723 6.847 2.818 10.508-2.098-.011-4.196.05-6.289-.05-.201-4.615-2.383-9.33-6.501-11.674-6.457-3.722-15.737-2.93-20.72 2.885-3.181 3.767-3.644 9.888-.273 13.683 3.376 3.845 8.253 5.798 12.796 7.891 6.395 2.907 13.22 5.586 18.142 10.815 7.238 7.5 6.624 20.915-1.099 27.863-5.486 5.022-13.326 6.741-20.586 6.055-6.038-.497-12.121-3.119-15.848-8.03-3.382-4.236-4.559-9.721-4.732-15.022 2.109 0 4.219 0 6.334.006.128 5.832 2.628 12.009 7.874 15.022 6.646 3.772 15.72 3.242 21.646-1.685 4.515-3.711 6.049-10.447 3.772-15.793-1.289-2.997-3.806-5.234-6.451-7.026-4.905-3.248-10.474-5.251-15.742-7.801-4.258-1.931-8.666-4.096-11.563-7.902-3.744-4.782-4.381-11.579-2.165-17.154 1.645-4.147 5.083-7.401 9.067-9.304zm51.987 5.09c5.296-6.378 14.342-8.471 22.271-7.199 5.424.832 10.67 3.75 13.611 8.482 2.093 3.214 2.941 7.054 3.025 10.848-2.054-.117-4.291.24-6.233-.156-.379-4.012-1.864-8.142-5.19-10.631-5.725-4.286-14.336-4.275-20.062 0-3.901 2.852-5.725 8.348-3.956 12.896 1.328 3.281 4.358 5.446 7.322 7.16 7.02 3.901 14.905 6.2 21.468 10.932 3.744 2.673 6.92 6.401 8.125 10.915 1.696 6.289.552 13.521-3.739 18.555-3.901 4.637-9.861 7.115-15.787 7.757-5.686.575-11.685-.167-16.691-3.069-3.834-2.199-6.814-5.759-8.46-9.844-1.345-3.192-1.696-6.68-1.892-10.101 2.104 0 4.213 0 6.328.006.123 5.832 2.628 12.009 7.868 15.022 6.663 3.778 15.77 3.242 21.691-1.724 4.609-3.823 6.083-10.832 3.516-16.217-2.003-4.012-5.921-6.568-9.738-8.644-5.597-2.919-11.535-5.128-17.098-8.108-3.616-1.964-6.892-4.833-8.605-8.638-2.645-5.859-1.897-13.242 2.226-18.242zM.912 386.377c9.827-.006 19.654 0 29.481 0 8.426.028 17.645-.134 24.905 4.81 6.702 4.492 9.035 13.873 6.071 21.217-1.708 4.169-5.592 7.07-9.782 8.443 4.961 1.25 9.861 3.811 12.634 8.27 4.732 7.534 3.097 18.103-3.119 24.314-2.997 3.092-6.998 5.034-11.133 6.083-6.194 1.585-12.634 1.624-18.985 1.657-10.022.006-20.05 0-30.073 0l.001-74.794m19.386 14.514c-.006 4.866-.006 9.738 0 14.609 4.872-.045 9.749.117 14.615-.106 2.762-.184 6.005-.943 7.388-3.611 1.105-2.333 1.155-5.251-.05-7.55-1.473-2.561-4.688-3.181-7.405-3.298-4.843-.111-9.698-.027-14.548-.044m0 28.494c.017 5.725-.05 11.451.039 17.176 5.29-.045 10.586.039 15.882-.05 2.746-.106 5.725-.391 7.963-2.154 1.814-1.412 2.522-3.795 2.539-6.01.061-2.383-.519-5.006-2.416-6.607-2.288-1.92-5.424-2.21-8.287-2.327-5.24-.067-10.48-.017-15.72-.028zm58.924 31.78c.05-24.939-.089-49.883.073-74.822 6.579.078 13.159.006 19.738.033.006 24.933.011 49.866 0 74.8-6.602-.011-13.21.006-19.811-.011zm178.322-74.766a609.99 609.99 0 016.345 0c-.017 16.953-.084 33.912-.095 50.865.045 5.162.982 10.826 4.833 14.593 4.425 4.252 11.016 5.246 16.909 4.71 4.693-.592 9.693-2.087 12.857-5.82 2.958-3.588 3.488-8.443 3.538-12.924-.045-17.143-.017-34.286-.017-51.423a630.54 630.54 0 016.451 0c.006 17.132.006 34.269 0 51.407.028 4.861-.592 9.933-3.203 14.146-2.958 5.006-8.281 8.209-13.851 9.515-6.306 1.473-13.058 1.311-19.219-.753-4.877-1.641-9.37-4.855-11.853-9.436-2.121-3.744-2.718-8.119-2.684-12.361-.023-17.508-.011-35.013-.011-52.519zm70.313 0c2.182-.006 4.369-.011 6.557 0 .006 24.922.006 49.844 0 74.772-2.188.006-4.369 0-6.557.006-.006-24.928-.006-49.856 0-74.778zm144.482 0c13.058-.006 26.116-.006 39.169 0 .006 1.869.006 3.739 0 5.614-10.938.006-21.875-.006-32.813.006.011 9.213-.028 18.432.022 27.645 10.168-.039 20.341.028 30.508-.034.095 1.886.123 3.789-.017 5.681-10.167-.095-20.335 0-30.497-.045-.039 10.095-.006 20.19-.017 30.285 11.077.011 22.154-.006 33.237.006v5.614c-13.198.006-26.395.006-39.593 0-.005-24.922-.005-49.85.001-74.772z"/><path fill="#FFF" d="M405.82 112.552c5.229-5.285 10.463-10.564 15.458-16.072 1.501 7.751 2.729 15.553 3.784 23.382 5.285-4.626 10.419-9.436 15.151-14.626-.011-.201-.028-.608-.039-.809l-.011-.363c1.004 9.397 1.456 18.839 1.696 28.281-4.414 4.28-9.554 7.701-14.515 11.3.441 8.142.614 16.328-.251 24.453-4.877 5.095-10.798 9.035-16.903 12.506.162-8.376-.006-16.758-.346-25.129-5.815 3.784-11.63 7.573-17.534 11.222-.435-7.042-.971-14.074-1.518-21.105 6.038-3.856 11.892-7.991 17.617-12.294-.647-6.94-1.4-13.877-2.589-20.746zm-157.618-9.375c2.991-2.193 5.876-4.693 9.208-6.334 4.219 1.869 7.785 4.911 11.351 7.79 14.621 12.5 26.674 28.086 34.788 45.547 8.851 18.951 12.344 40.397 9.593 61.156-.77 6.819-2.5 13.466-4.169 20.101 4.397-8.226 7.299-17.176 9.548-26.206 3.499-14.76 4.816-30.391 1.295-45.279-.335-1.802-1.306-3.661-.698-5.502 1.027-.463 1.752.625 2.344 1.3 13.326 18.17 21.1 40.279 22.433 62.746 1.205 20.329-2.93 41.312-13.672 58.778-7.93 13.008-19.738 23.65-33.628 29.95-11.847 5.463-24.944 7.846-37.941 7.991-19.074.357-38.616-3.666-54.928-13.873-14.889-9.174-26.473-23.343-33.086-39.487-9.727-23.538-9.715-50.614-1.272-74.526.519-1.295 1.189-3.08 2.807-3.198 1.975.352 2.238 2.729 2.461 4.347 3.778 24.476 14.9 48.226 33.237 65.157 4.369 4.029 9.102 7.707 14.297 10.62-12.467-19.403-21.73-41.49-22.947-64.738-1.099-18.622 3.432-37.4 12.322-53.75 8.967-16.625 21.841-30.955 36.657-42.59z"/></svg>