<svg xmlns="http://www.w3.org/2000/svg" width="512" height="512"><g fill="#641745"><path d="M222.538 46.824c11.736-.161 23.478-.028 35.221-.07 9.721.098 20.023 2.091 27.57 8.644 3.567 2.581 5.036 6.889 6.672 10.784 3.952 10.148 6.973 20.625 10.043 31.066 10.169 35.766 18.89 71.917 27.898 107.984 1.329 5.406 2.49 10.903 4.595 16.079 1.818 4.644 5.784 7.973 9.896 10.568 4.721 3 10.008 4.861 15.163 6.952-11.582.168-23.17.049-34.759.063-9.526-.112-20.016-.937-27.577-7.413-3.938-3.161-4.903-8.323-6.392-12.862-5.399-18.45-9.868-37.151-14.498-55.804-7.176-29.157-13.925-58.419-21.317-87.52-1.595-5.7-2.588-11.938-6.728-16.47-6.47-7.442-16.366-10.484-25.787-12.001z"/><path d="M213.586 140.016c11.673-19.709 22.905-39.683 34.682-59.314 1.888 7.749 3.854 15.484 5.721 23.24-7.98 13.939-15.981 27.87-23.954 41.809l-.098.189c-2.217-.021-4.434.133-6.595.615-2.028.371-4.021.881-6.015 1.385a44.538 44.538 0 00-.664-2.874c-1.343-.294-2.707-.147-4.042.07.335-1.707.643-3.414.965-5.12zm22.87 38.781c11.952-.084 23.905-.007 35.864-.035 1.28 5.252 2.672 10.484 3.986 15.729-9.721-.042-19.45.119-29.171-.077-.413-2.154-1.084-4.273-2.322-6.106-1.126-1.734-2.287-3.455-3.679-4.987-1.475-1.594-3.021-3.126-4.678-4.524zm-16.492 11.812c2.434-.378 4.854.238 7.246.615 1.329.294 2.651.615 3.944 1.028 1.231.392 2.455.832 3.679 1.266.944.343 1.895.706 2.853 1.028-6.204-.126-12.414.014-18.624-.077l-.399-.762c.308-.168.916-.511 1.224-.685.035-.343.119-1.021.161-1.364l-.084-1.049zm-45.935 17.729c1.196-.168 2.406-.406 3.441-1.084l.944-.497c-.266 5.378-.455 10.763-.874 16.135-.084 1.762-.315 3.91 1.322 5.098.636-.049 1.28-.119 1.916-.224 1.056-.168 2-.727 2.923-1.252-2.084 3.686-4.161 7.385-6.329 11.022-6.805-.077-13.603.021-20.408-.049 5.707-9.706 11.204-19.539 17.065-29.149z"/></g><path fill="#F3CF71" d="M207.823 116.328c.923-.769 2.385-1.007 3.273-.042 1.965 1.853 2.364 4.7 2.881 7.218 1.091 5.469.469 11.057-.392 16.512-.322 1.706-.629 3.413-.965 5.119 1.336-.217 2.7-.364 4.042-.07a53.592 53.592 0 01-4.357.65c-.147-.336-.448-1-.594-1.336-2.308-.07-4.42-1.007-6.224-2.413 1.49-2.651 3.378-5.126 4.119-8.134 1.441-.587 2.895.217 4.294.56.182-3.742.133-7.742-2.07-10.952-.462.385-1.371 1.154-1.825 1.539 0-1.098-.035-2.196-.063-3.294-.336.098-1 .294-1.329.392.35-1.944 2.399-5.294-.79-5.749z"/><path d="M207.732 116.978c.028-.161.07-.49.091-.65 3.189.455 1.14 3.805.79 5.749-.574 1.658-1.147 3.315-1.511 5.036-.21.937-.406 1.888-.608 2.832-.077-1.336-.252-2.665-.371-3.986.601-2.791 1.203-5.581 1.93-8.344-.083-.161-.237-.476-.321-.637zm-6.175 74.072c1.364.329 2.588 1.021 3.364 2.21l.189.559c.014 2.958-.07 5.931-.636 8.847-2.343-1.448-2.035-4.35-2.539-6.714a58.616 58.616 0 00-.238-1.07c-.294-1.259-.294-2.559-.14-3.832zm14.288 1.706c1.315-.783 2.812-.587 4.042.266a93.94 93.94 0 01-1.224.685c-.972-.223-1.888-.615-2.818-.951z" fill="#7A6C4E"/><path fill="#F5DA84" d="M207.732 116.978c.084.161.238.476.322.636-.727 2.763-1.329 5.553-1.93 8.344-1.322 3.427-1.881 7.274-4.287 10.176-.532.231-1.07.427-1.616.601-.336-.755-.678-1.511-1.028-2.252-.532-.119-1.588-.343-2.119-.462 3.581-5.728 7.183-11.456 10.519-17.338l.139.295z"/><path d="M170.147 119.328l.448-1.343c.636 1.07 1.28 2.126 1.881 3.217a63.427 63.427 0 003.441 9.547c-1.119.07-2.161-.259-3.119-.797-.699-3.588-2.273-6.966-2.651-10.624zm-19.953 86.066c.888-1.238 1.937-2.364 3.217-3.196 1.133.308 2.273.622 3.42.937-.399 1.056-.797 2.119-1.203 3.175l-.699.42c-2.86 1.741-4.861 4.742-8.288 5.567.951-2.42 2.231-4.679 3.553-6.903z" fill="#8C8044"/><path fill="#EECE63" d="M170.595 117.985c2.644-.727 5.057 1.112 7.427 2.021l-.042.21c-.678 2.574-1 5.707 1.266 7.63 1.888 1.091 4.175 1.147 6.287.846l.252-.063c1.567 2.721 3.413 5.336 4.728 8.176-1.434 1.672-2.553 3.63-3.497 5.644-.937-.245-1.86-.518-2.784-.776.511-.322 1.028-.643 1.546-.972-.035-2.532.832-4.931 1.727-7.26-1.28-1.168-2.399-2.791-4.217-3.091-1.902-.329-3.847-.615-5.504-1.678-.028.308-.091.93-.119 1.245-1.748-3.49-3.49-6.987-5.022-10.582l-.168 1.867c-.6-1.09-1.244-2.146-1.88-3.217z"/><path fill="#F4DD7F" d="M170.56 125.014c-.217-1.888-.755-3.784-.413-5.686.378 3.658 1.951 7.036 2.651 10.624.301 1.539.455 3.133 1.028 4.609 1.161.93 2.476 1.651 3.728 2.455l-.734 2.287c-1.112.196-2.224.392-3.336.573l-.448.042c.755-.902 1.476-1.839 2.196-2.77a361.793 361.793 0 00-3.581-2.035c-.601-3.343-.608-6.749-1.091-10.099z"/><path fill="#FDFEFF" d="M172.476 121.203l.168-1.867c1.532 3.595 3.273 7.092 5.022 10.582.259.671.518 1.35.783 2.028.811 2.084 1.448 4.238 2.021 6.406a37.746 37.746 0 001.399 3.951c.063.175.196.525.266.692-1.049-2.014-2.021-4.07-3.049-6.092a165.281 165.281 0 00-3.168-6.155 63.438 63.438 0 01-3.442-9.545z"/><path d="M177.98 120.217c2.979 2.322 5.91 5.015 7.553 8.477-2.112.301-4.399.245-6.287-.846-2.266-1.925-1.944-5.058-1.266-7.631zM162 183.21c.643-1.105 1.287-2.203 1.923-3.308.378 1.14.797 2.273 1.189 3.413 1.259.636 2.539 1.259 3.784 1.944l.518.811c-1.734-.385-3.441-1.406-5.231-1.329-1.518.378-1.462 1.958-1.189 3.182l-1.077-.224a79.278 79.278 0 01-.888-2.112c.937-.909 1.944-1.741 2.972-2.546l-2.001.169z" fill="#F9E77E"/><path fill="#F3E6AB" d="M208.613 122.077c.329-.098.993-.294 1.329-.392.028 1.098.063 2.196.063 3.294a22.503 22.503 0 01-2.602 7.952c.42-2.14.86-4.266 1.357-6.385-.413.14-1.245.427-1.658.566.364-1.72.938-3.378 1.511-5.035z"/><path fill="#AB8754" d="M210.005 124.979c.455-.385 1.364-1.154 1.825-1.539 2.203 3.21 2.252 7.211 2.07 10.952-1.399-.343-2.853-1.147-4.294-.56-.741.462-1.469.944-2.196 1.42-.07-.357-.217-1.063-.287-1.42l.28-.902a22.492 22.492 0 002.602-7.951z"/><path fill="#EDB459" d="M201.836 136.134c2.406-2.902 2.965-6.749 4.287-10.176.119 1.322.294 2.651.371 3.986-1.357 5.05-2.546 10.169-4.455 15.051-.56-2.763-.944-5.567-1.818-8.26.545-.174 1.084-.37 1.615-.601z"/><path d="M207.103 127.112c.413-.14 1.245-.427 1.658-.566a178.26 178.26 0 00-1.357 6.385l-.28.902c-1.063 2.979-2.021 6.001-3.252 8.917-.811 1.357-1.455 2.805-1.804 4.357 0-.706-.007-1.413-.028-2.112 1.909-4.882 3.098-10.001 4.455-15.051.202-.943.398-1.894.608-2.832zm-51.258 12.631c1.651.469 3.231 1.175 4.728 2.007-1.644-.496-3.28-1.063-4.728-2.007zm4.994 2.399c1.252-.28 2.756.692 3.665 1.539l-.07.252c-1.126-.161-2.224-.455-3.301-.818a57.087 57.087 0 00-.294-.973zm73.805 10.288c1.993-.266 3.889-1.392 5.938-.867-4.266 1.112-8.546 2.182-12.722 3.609-.469.119-1.399.364-1.867.483-3.651 1.126-7.162 2.756-10.463 4.686-1.056.371-2.119.72-3.175 1.084.734-1.091 1.448-2.224 2.427-3.119.413-.154 1.252-.448 1.665-.594 1.021-.385 2.028-.811 3.042-1.217 4.951-1.666 9.917-3.554 15.155-4.065zm-48.425 41.914c.587.049 1.175.112 1.769.189 2.63 1 5.161 2.315 7.204 4.287.014-1.154.042-2.301.077-3.441l1.266 1.245a15.748 15.748 0 012.665-3.308c.35.734.685 1.483 1.007 2.238 0 .601 0 1.797.007 2.399-.056.755-.119 1.511-.175 2.266-.762-.035-1.525-.077-2.287-.105 1.329 2.742 1.427 5.875 2.721 8.63l.063.133c-.727-.168-1.455-.329-2.182-.483l.322-.021.993-.07c-.741-2.084-1.86-3.993-2.888-5.938-1.958.133-3.91-.308-4.973-2.119-1.07-1.448-2.028-2.979-3.147-4.392l-.266-.294a23.19 23.19 0 00-1.993.546l-.532.643c.07-.49.217-1.462.287-1.951l.062-.454z" fill="#F8FAF4"/><path fill="#EBB14C" d="M177.785 128.672c1.658 1.063 3.602 1.35 5.504 1.678 1.818.301 2.937 1.923 4.217 3.091-.895 2.329-1.762 4.728-1.727 7.26-.518.329-1.035.65-1.546.972.923.259 1.846.532 2.784.776l.364.511c-.343.888-.713 1.776-1.168 2.616-1.441-1.105-2.916-2.161-4.343-3.273a37.909 37.909 0 01-1.399-3.951c.413.07 1.252.21 1.665.273.252-1.818.734-3.693.329-5.525-1.154-.874-2.658-.902-4.014-1.154-.266-.678-.525-1.357-.783-2.028.026-.316.089-.938.117-1.246z"/><path fill="#AA8E55" d="M172.798 129.952c.958.539 2 .867 3.119.797a163.731 163.731 0 013.168 6.155l-1.532.112c-1.252-.804-2.567-1.525-3.728-2.455-.572-1.476-.726-3.07-1.027-4.609z"/><path fill="#B78350" d="M178.449 131.945c1.357.252 2.86.28 4.014 1.154.406 1.832-.077 3.707-.329 5.525-.413-.063-1.252-.203-1.665-.273-.572-2.168-1.209-4.322-2.02-6.406z"/><path fill="#C58C4C" d="M197.011 134.008l.063.014c.532.119 1.588.343 2.119.462.35.741.692 1.497 1.028 2.252.874 2.693 1.259 5.497 1.818 8.26.021.699.028 1.406.028 2.112-.245.126-.72.378-.958.504a673.97 673.97 0 00-.469-3.938 55.467 55.467 0 00-1.063 4.539c-.385-.909-1.14-1.553-1.874-2.168l-.559-.797c.552-.161 1.105-.322 1.665-.483.021-.518.056-1.035.098-1.553.224-1.818.224-3.665-.371-5.413-.811.287-1.616.58-2.413.874-.133-.636-.245-1.266-.378-1.895a38.56 38.56 0 001.266-2.77z"/><path d="M203.872 142.751c1.231-2.916 2.189-5.938 3.252-8.917.07.357.217 1.063.287 1.42.727-.476 1.455-.958 2.196-1.42-.741 3.007-2.63 5.483-4.119 8.134-.491.349-1.015.678-1.616.783zm2.951 51.096c4.091-.462 8.134.804 12.239.622a63.036 63.036 0 012.336 7.274c-.028.951-.063 1.895-.105 2.846-1.14-2.511-2.665-4.952-5.252-6.155-.42.608-.832 1.224-1.245 1.839-2.161-1.469-4.294-2.972-6.294-4.644-.56-.6-1.113-1.194-1.679-1.782z" fill="#E7B159"/><path fill="#EBC454" d="M191.492 134.708c1.713-.629 3.896.091 4.252 2.07.133.629.245 1.259.378 1.895a27.614 27.614 0 001.462 4.924c.329-.098.993-.294 1.322-.385a38.515 38.515 0 00-.098 1.553c-.559.161-1.112.322-1.665.483-1.098-1.518-2.63-2.686-3.637-4.273-.329-2.007-.224-4.063-.392-6.085-.72 3.434-1.909 7.085-.923 10.582.811.028 1.623.084 2.434.161.35.273 1.049.818 1.406 1.091-3.175-.147-6.329-.748-9.512-.525 1.203-1.406 2.888-2.168 4.595-2.756.357-1.818.692-3.7-.014-5.497.295-1.063.756-2.105.392-3.238z"/><path fill="#F6E79F" d="M171.651 135.113c1.196.671 2.392 1.35 3.581 2.035-.72.93-1.441 1.867-2.196 2.77-.014.392-.042 1.168-.063 1.553a104.01 104.01 0 01-4.658.308c1.476-.643 3.21-.378 4.595-1.252-.797-1.707-.951-3.588-1.259-5.414z"/><path fill="#F6F3DE" d="M192.192 145.471c-.986-3.497.203-7.148.923-10.582.168 2.021.063 4.077.392 6.085 1.007 1.588 2.539 2.756 3.637 4.273l.559.797c-.119.336-.357.993-.476 1.322-.399-.217-.797-.434-1.196-.643a246.01 246.01 0 01-1.406-1.091 40.543 40.543 0 00-2.433-.161z"/><path fill="#F9DD5B" d="M179.085 136.904c1.028 2.021 2 4.077 3.049 6.092-.07-.168-.203-.518-.266-.692 1.427 1.112 2.902 2.168 4.343 3.273-.14.203-.434.601-.58.804-.546.126-1.644.364-2.196.49-2.189-1.014-3.294-3.336-5.273-4.63-1.469-.958-3.07-1.678-4.679-2.364 1.112-.182 2.224-.378 3.336-.573l.734-2.287 1.532-.113z"/><path fill="#6B6247" d="M145.27 138.344c1.79-.727 3.735-.79 5.581-.238-1.084.091-2.154.224-3.231.329l-1.042.049a13.127 13.127 0 001.231 3.707c-.441-.28-1.322-.853-1.762-1.133.357 1.797 1.427 3.287 2.609 4.637 3.098 3.735 7.001 6.756 11.176 9.197-1.644-.678-3.217-1.504-4.644-2.567-2.826-2.07-5.658-4.147-8.204-6.553l.084 1.406c-.93-2.868-1.574-5.826-1.798-8.834z"/><path fill="#DCB854" d="M147.62 138.435c1.077-.105 2.147-.238 3.231-.329.308.126.916.378 1.217.504.329.133.979.392 1.308.518.881-.427 1.713.238 2.469.615 1.448.944 3.084 1.511 4.728 2.007l.266.392c.077.245.224.727.294.972-3.273.72-5.868-1.679-8.931-2.252-1.707-.426-3.113-1.531-4.582-2.427z"/><path d="M152.068 138.61c.301-.014.895-.049 1.196-.063l.112.58a93.235 93.235 0 01-1.308-.517zm19.786 40.382c3.889-.434 7.162 3.812 6.455 7.511-2.839.203-4.455-2.259-5.91-4.28-.629-.944-.391-2.161-.545-3.231z" fill="#FBFEFF"/><path fill="#F9F9F1" d="M187.38 142.96c.629-1.93 1.776-4.287 3.721-5.015.706 1.797.371 3.679.014 5.497-1.706.587-3.392 1.35-4.595 2.756-.224.042-.664.133-.888.182.147-.203.441-.601.58-.804.455-.839.825-1.727 1.168-2.616z"/><path fill="#DDB262" d="M196.122 138.673c.797-.294 1.602-.587 2.413-.874.594 1.748.594 3.595.371 5.413-.329.091-.993.287-1.322.385a27.697 27.697 0 01-1.462-4.924z"/><path d="M146.578 138.484l1.042-.049c1.469.895 2.874 2 4.581 2.427 3.063.574 5.658 2.972 8.931 2.252 1.077.364 2.175.657 3.301.818l.734.126c-.594 1.525 2.098 1.783 2.853.86-.063 1.182-.112 2.371-.077 3.553a72.825 72.825 0 00-3.357 2.7c-4.014-1.944-7.84-5.259-12.561-4.833-1.021-.65-2.238-1.902-3.371-.643-1.182-1.35-2.252-2.839-2.609-4.637.441.28 1.322.853 1.762 1.133a13.218 13.218 0 01-1.229-3.707zm17.345 41.418c.364-.734.734-1.462 1.084-2.196.825 2.742 2.616 5.022 3.889 7.553-1.245-.685-2.525-1.308-3.784-1.944-.392-1.14-.811-2.273-1.189-3.413z" fill="#F5D046"/><path fill="#C49249" d="M173.036 139.918l.448-.042c1.609.685 3.21 1.406 4.679 2.364 1.979 1.294 3.084 3.616 5.273 4.63-.566.112-1.126.238-1.686.371-2.392-2.364-5.385-3.958-8.539-5.05a27.541 27.541 0 00-.238-.72c.021-.385.049-1.161.063-1.553z"/><path fill="#7F7346" d="M168.091 143.471l.224-1.693c.378.734.755 1.476 1.133 2.217-.42 2.091-.525 4.231-.601 6.364-.224-.476-.678-1.413-.902-1.888-.035-1.182.014-2.371.077-3.553.02-.356.048-1.083.069-1.447z" opacity=".97"/><path fill="#CBA845" d="M168.315 141.778a104.01 104.01 0 004.658-.308c.063.182.182.539.238.72.364.867.86 1.672 1.287 2.511-.671.413-1.336.825-2 1.238-.224-.301-.664-.895-.881-1.196-.622-.664-1.287-1.287-1.937-1.909l-.231 1.161c-.379-.741-.756-1.482-1.134-2.217z"/><path fill="#F5C85E" d="M203.872 142.751c.601-.105 1.126-.434 1.616-.783 1.804 1.406 3.917 2.343 6.224 2.413.147.336.448 1 .594 1.336a60.5 60.5 0 00-3.546 1.665c-2.231 1.161-4.378-1.231-6.693-.273.35-1.554.993-3.002 1.805-4.358z"/><path fill="#EBD26E" d="M174.498 144.702c-.427-.839-.923-1.644-1.287-2.511 3.154 1.091 6.148 2.686 8.539 5.05-.58.203-1.147.42-1.706.65-2-1.252-4.539-1.972-6.721-.706-.273-.42-.553-.839-.825-1.245.664-.413 1.328-.826 2-1.238z"/><g fill="#F8F9F1"><path d="M166.476 144.373c.888.434.986-.937 1.616-.902-.021.364-.049 1.091-.07 1.448-.755.923-3.448.664-2.853-.86.328.076.978.237 1.307.314zm63.461 1.567l.098-.189c2.259.329 4.546.406 6.798.783-4.497-.266-9.001-.294-13.491.021 2.161-.482 4.378-.636 6.595-.615zm-45.697 3.007c2.958-.811 6.05-.657 9.085-.65 1.35.434 2.735.783 4.07 1.287 2.805.993 4.77 3.343 6.819 5.371-1.679-.685-3.203-1.658-4.658-2.728-4.364-3.287-10.036-3.93-15.316-3.28zm-19.814 11.505c-.049-.643-.091-1.28-.147-1.916.014 1.546 1.224 1.839 2.539 1.909-.699.49-1.406.972-2.112 1.448-1.665.972-3.469 1.713-5.364 2.091-.657-.035-1.979-.098-2.644-.126 2.917-.399 4.903-2.798 7.728-3.406zm3.281 1.657l1.196.497c-1.175 2.853-1.79 5.924-1.644 9.015.147 1.126.336 2.245.615 3.35.546 1.797 1.196 3.56 1.895 5.301 2.049 4.007 5.658 7.218 9.77 9.001 2.93.755 5.924 1.692 8.98 1.364 4.294-.553 8.833-1.56 11.994-4.749.35.091 1.049.273 1.406.371-2.014 1.944-4.448 3.364-6.917 4.637-4.721 1.399-9.672 1.916-14.547 1.049-2.399-.811-4.644-2.042-6.56-3.707-.427.378-.846.762-1.266 1.154l.629.525c.084.329.245.986.329 1.315.525 2.86 1.399 5.63 2.028 8.469.21-.825.427-1.644.636-2.469 2.252-.105 4.518-.049 6.742.336-1.063 1.595-2.217 3.133-3.623 4.441-.385.126-1.147.371-1.525.497-.294-.518-.867-1.553-1.161-2.07-.364.951-.72 1.902-1.028 2.874l-.252 1.084c-.196.797-.392 1.595-.601 2.399.203-2.511.329-5.133-1.49-7.134-.951-3.035-.217-6.225-.021-9.302-2.336 2.238-4.448 4.686-6.539 7.155-1.49 2.091-3.084 4.112-4.952 5.882-2.644 2.735-5.777 4.924-8.735 7.288.336-1.434 1.063-2.728 1.86-3.952l.699-.42c3.945-2.881 6.959-6.854 10.463-10.232 2.315-2.028 4.413-4.28 6.064-6.889-.406-.105-1.21-.315-1.616-.413-2.448-.776-5.022-.706-7.546-.853-.273-1.224-.329-2.805 1.189-3.182 1.79-.077 3.497.944 5.231 1.329.622.811 1.336 1.532 2.035 2.287.427-.413.853-.832 1.28-1.252-4.322-2.853-6.001-8.302-6.511-13.218-.518-2.895.007-5.798.692-8.616.241-1.063.493-2.12.801-3.162z"/><path d="M165.049 172.551c.343 1.706.224 3.448-.042 5.154-.35.734-.72 1.462-1.084 2.196-.636 1.105-1.28 2.203-1.923 3.308l2-.168c-1.028.804-2.035 1.637-2.972 2.546-.86.853-1.699 1.727-2.532 2.609l-1.294-.818c1.098-.678 2.133-1.455 3.147-2.259-.58-3.266 2.154-5.567 3.945-7.882.126-.385.371-1.147.497-1.532.111-1.049.174-2.105.258-3.154zm49.411 5.77c.511.091 1.525.287 2.035.385 1.322.189 2.658.294 3.993.406 4.049 1.105 7.917 2.825 11.659 4.714 1.839 1.035 3.637 2.147 5.462 3.21 1.294.783 2.595 1.567 3.868 2.392.559.392 1.112.783 1.679 1.175-.357.154-1.07.455-1.427.601-2.574-1.804-5.385-3.231-8.05-4.889-1.371-.867-2.756-1.72-4.231-2.399a372.046 372.046 0 00-14.953-4.728c-.014-.217-.028-.65-.035-.867z"/></g><path fill="#DEBE6C" d="M169.679 142.834c.65.622 1.315 1.245 1.937 1.909-.594.783-1.196 1.56-1.762 2.364-.343 1.49-.434 3.028-.399 4.553-.154-.322-.455-.979-.608-1.301.077-2.133.182-4.273.601-6.364l.231-1.161z"/><path fill="#926B48" d="M199.577 148.213a55.467 55.467 0 011.063-4.539c.161 1.308.315 2.623.469 3.938.238-.126.713-.378.958-.504 2.315-.958 4.462 1.434 6.693.273l1.21.028c-1.679 1.616-4.049 1.895-5.756.133-.636.818-1.266 1.637-1.923 2.434l-.399.441c4.385 2.721 7.679 7.148 8.735 12.225a70.02 70.02 0 001.035-3.175c.217.657.427 1.322.636 1.986 1.189 1.035 2.287 2.203 2.826 3.728-1.49-.888-2.965-1.797-4.378-2.805a94.158 94.158 0 00-.098 1.448c-.448.706-.902 1.413-1.357 2.105-.762-3.965-2.385-7.931-5.078-10.973-2.049-2.028-4.014-4.378-6.819-5.371-1.336-.504-2.721-.853-4.07-1.287-3.483-1.923-7.882-1.154-11.414.308-6.588 1.846-11.694 7.274-14.204 13.505a48.533 48.533 0 00-.797 3.161l-1.287.063c.755-2.245 1.406-4.539 2.483-6.658a32.652 32.652 0 011.672-2.581c1.769-2.126 3.658-4.175 5.861-5.861 1.427-.86 2.916-1.602 4.406-2.343a32.137 32.137 0 011.706-.65 44.695 44.695 0 011.686-.371c.552-.126 1.651-.364 2.196-.49.224-.049.664-.14.888-.182 3.182-.224 6.336.378 9.512.525.399.21.797.427 1.196.643.406.832 1.28 1.546 2.266 1.266l.083-.42z"/><path d="M148.655 145.695c1.133-1.259 2.35-.007 3.371.643.853.881 1.672 1.804 2.511 2.707 4.175-.553 8.057 1.72 10.805 4.679a16.975 16.975 0 002.763 4.952c-1.112-.35-2.224-.685-3.329-1.042-1.63-.951-3.231-1.958-4.945-2.742-4.175-2.441-8.077-5.462-11.176-9.197zm50.901 6.532c1.455 1.07 2.979 2.042 4.658 2.728 2.693 3.042 4.315 7.008 5.078 10.973.762 4.819.147 9.994-2.385 14.232-.378.643-.776 1.28-1.189 1.909a25.09 25.09 0 01-3.798 4.189c-.357-.098-1.056-.28-1.406-.371 1.343-1.434 2.826-2.777 3.882-4.441 4.392-6.574 4.756-15.463 1.056-22.422-1.322-2.761-3.693-4.776-5.896-6.797zm-61.853 23.143c-.329-.874 1.063-1.853 1.832-1.49.028.923-.93 1.713-1.832 1.49zm24.968 33.563c1.231-2.441 3.903-2.986 6.322-3.49-1.951 1.413-4.035 2.679-6.322 3.49z" fill="#F5E9A3"/><path fill="#F4E9A9" d="M169.854 147.108c.566-.804 1.168-1.581 1.762-2.364.217.301.657.895.881 1.196.273.406.553.825.825 1.245.42.685.867 1.364 1.322 2.035-.755.441-1.483.923-2.182 1.448-.098-1.679-1.126-2.882-2.608-3.56z"/><path d="M212.306 145.716a54.484 54.484 0 004.357-.65c.259.944.469 1.909.664 2.874.091.525.189 1.049.287 1.581-.951 1.336-1.762 2.77-2.504 4.224-.175-.741-.343-1.483-.511-2.224-.168.434-.504 1.294-.678 1.727-1.056-2.042-.266-4.119.336-6.134-.888-.014-1.776 0-2.658.021a470.5 470.5 0 01.707-1.419zm-39.046 44.201c2.504 1.693 5.098 3.35 7.966 4.364 1.651.238 3.329-.021 4.994.063l-.063.455c-1.993.259-3.972 1.014-5.994.846a15.019 15.019 0 01-6.574-4.413c-.085-.329-.245-.987-.329-1.315z" fill="#E4B93F"/><path fill="#EAC064" d="M146.984 145.772c2.546 2.406 5.378 4.483 8.204 6.553a77.462 77.462 0 00-3.14.944 34.22 34.22 0 00-1.888.972c-1.434-2.154-2.434-4.567-3.091-7.064l-.085-1.405z"/><path fill="#EFD581" d="M197.703 146.045c.734.615 1.49 1.259 1.874 2.168l-.084.42c-.986.28-1.86-.434-2.266-1.266.119-.329.357-.987.476-1.322z"/><path fill="#DCAF42" d="M208.76 147.38a61.154 61.154 0 013.546-1.665c-.175.35-.532 1.063-.706 1.42a67.177 67.177 0 012.658-.021c-1.448 1.637-3.406 2.504-5.602 2.14-1.168-.007-2.329-.028-3.49.021-.972.182-1.93.42-2.874.699.657-.797 1.287-1.616 1.923-2.434 1.706 1.762 4.077 1.483 5.756-.133l-1.211-.027z"/><path fill="#F8E282" d="M152.026 146.338c4.721-.427 8.546 2.888 12.561 4.833.245.853.497 1.706.755 2.553-2.749-2.958-6.63-5.231-10.805-4.679-.839-.902-1.657-1.825-2.511-2.707z"/><path fill="#F6F2D8" d="M173.323 147.185c2.182-1.266 4.721-.546 6.721.706-1.49.741-2.979 1.483-4.406 2.343a67.829 67.829 0 00-.993-1.014 52.674 52.674 0 01-1.322-2.035z"/><path d="M217.328 147.94c1.993-.504 3.986-1.014 6.015-1.385 4.49-.315 8.994-.287 13.491-.021.965.161 1.895.504 2.818.818-2.469-.091-5.022-.378-7.406.448 2.679.972 5.504 1.427 8.239 2.231-4.273.105-8.56.504-12.827.084a41.391 41.391 0 00-7.735-.098 199.73 199.73 0 01-.434 6.476c-1.014.406-2.021.832-3.042 1.217 1.804-2.364 2-5.406 1.168-8.19-.099-.531-.196-1.056-.287-1.58zm-4.183 7.267l.364-.804c.804 1.329.657 2.812.308 4.252.238-.091.72-.266.965-.35-.979.895-1.692 2.028-2.427 3.119l-.056.028c-.21-.664-.42-1.329-.636-1.986l-.238-.511a298.66 298.66 0 011.72-3.748z" fill="#E6BD65"/><path fill="#F6F5E3" d="M169.854 147.108c1.483.678 2.511 1.881 2.609 3.56-.504.972-1 1.944-1.49 2.923-.35-.154-1.056-.455-1.406-.608l-.112-1.322c-.035-1.525.056-3.064.399-4.553z"/><path fill="#D7A659" d="M181.911 148.604c3.532-1.462 7.931-2.231 11.414-.308-3.035-.007-6.127-.161-9.085.65l-.455.084c-.468-.104-1.405-.321-1.874-.426z"/><path fill="#F3DF92" d="M214.257 147.115c-.601 2.014-1.392 4.091-.336 6.134-.098.287-.308.867-.413 1.154l-.364.804c-.147-.951-.287-1.895-.427-2.839-.525-.112-1.588-.343-2.119-.455l.308-.511.986-1.546c-.832.308-1.658.622-2.483.937l-.755-1.539c2.197.364 4.156-.503 5.603-2.139z"/><path fill="#E4B057" d="M232.245 147.8c2.385-.825 4.938-.539 7.406-.448 2 .252 3.819 1.238 5.434 2.406l-.958.79c-1.231-.091-2.441-.308-3.644-.518-2.734-.803-5.559-1.258-8.238-2.23z"/><path fill="#CA9057" d="M164.587 151.171a74.186 74.186 0 013.357-2.7c.224.476.678 1.413.902 1.888.154.322.455.979.608 1.301l.112 1.322.21 3.112c-.601.832-1.154 1.7-1.672 2.581a16.985 16.985 0 01-2.763-4.952c-.257-.845-.509-1.699-.754-2.552m2.868.637c-.203 1.63.014 3.343 1.567 4.245-.057-1.581.076-3.413-1.567-4.245z"/><path d="M167.707 162.109c2.511-6.231 7.616-11.659 14.204-13.505.469.105 1.406.322 1.874.427-4.602 1.175-8.854 3.77-11.631 7.665-1.434 1.755-2.462 3.798-3.252 5.91-.3-.126-.895-.371-1.195-.497zm-17.548-7.868a34.22 34.22 0 011.888-.972c3 1.336 6.169 2.238 9.204 3.476-2.161 1.476-4.763 1.651-7.288 1.413-1.286-1.294-2.573-2.581-3.804-3.917z" fill="#F8E38A"/><path fill="#F3E191" d="M172.462 150.668a22.662 22.662 0 012.182-1.448c.252.252.748.755.993 1.014-2.203 1.686-4.091 3.735-5.861 5.861l-.21-3.112c.35.154 1.056.455 1.406.608.49-.979.987-1.951 1.49-2.923z"/><path fill="#8D2632" d="M172.155 156.696c2.777-3.896 7.029-6.49 11.631-7.665l.455-.084c5.28-.65 10.952-.007 15.316 3.28 2.203 2.021 4.574 4.035 5.896 6.798 3.7 6.959 3.336 15.848-1.056 22.422-.35-4.875 1.154-9.714.098-14.575.049-3.763-2.455-6.679-4.42-9.623-1.525-2.308-4.315-3.189-6.721-4.259-4.511-1.371-9.407-1.154-13.946-.021-2.526 1.028-4.715 2.727-7.253 3.727z"/><path fill="#F1CD6B" d="M202.291 149.975c.944-.28 1.902-.518 2.874-.699-.252.329-.755 1-1.007 1.336 1.385 1.063 2.686 2.245 3.791 3.602 1.07-.839 2.133-1.72 2.958-2.811l-.308.511c-1.762 2.259-.238 4.875.825 7.043l.238.511a70.02 70.02 0 01-1.035 3.175c-1.056-5.077-4.35-9.505-8.735-12.225l.399-.443z"/><path fill="#F7F5E8" d="M205.165 149.276c1.161-.049 2.322-.028 3.49-.021l.755 1.539c.825-.315 1.651-.629 2.483-.937l-.986 1.546c-.825 1.091-1.888 1.972-2.958 2.811-1.105-1.357-2.406-2.539-3.791-3.602.252-.336.756-1.008 1.007-1.336z"/><path fill="#F6DF84" d="M245.086 149.758l.196-.161c.161.853.315 1.699.476 2.553a17.136 17.136 0 01-4.364 3.427c1.539-1.329 3.385-2.546 3.931-4.637-1.588.203-3.161.42-4.742.622-2.049-.525-3.945.601-5.938.867-5.238.511-10.204 2.399-15.156 4.063.182-2.154.322-4.315.434-6.476a41.391 41.391 0 017.735.098c4.266.42 8.553.021 12.827-.084 1.203.21 2.413.427 3.644.518l.957-.79z"/><path fill="#A77341" d="M215.111 153.745c.741-1.455 1.553-2.888 2.504-4.224.832 2.784.636 5.826-1.168 8.19-.413.147-1.252.441-1.665.594a39.17 39.17 0 00-.965.35c.35-1.441.497-2.923-.308-4.252.105-.287.315-.867.413-1.154.175-.434.511-1.294.678-1.727.168.74.336 1.481.511 2.223m-.56.902"/><path fill="#856D46" d="M240.582 151.563c1.581-.203 3.154-.42 4.742-.622-.546 2.091-2.392 3.308-3.931 4.637-3.084 2.224-6.553 3.868-9.672 6.05l-.098-.21c-.049-.119-.161-.364-.21-.483.706-.86 1.42-1.72 2.112-2.602.336-.434.664-.867 1-1.308 2.357-.441 4.581-1.455 5.728-3.693-4.252-1.119-8.022 3.028-12.393 1.839 4.176-1.426 8.456-2.496 12.722-3.608z"/><path fill="#F0D182" d="M167.455 151.808c1.644.832 1.511 2.665 1.567 4.245-1.553-.902-1.77-2.616-1.567-4.245z"/><path fill="#DD1E34" d="M179.407 152.968c4.539-1.133 9.435-1.35 13.946.021 2.406 1.07 5.196 1.951 6.721 4.259 1.965 2.944 4.469 5.861 4.42 9.623 1.056 4.861-.448 9.7-.098 14.575-1.056 1.665-2.539 3.007-3.882 4.441-3.161 3.189-7.7 4.196-11.994 4.749-3.056.329-6.05-.608-8.98-1.364 1.28-1.916 1.287-4.525.049-6.455-1.266-2.42-3.777-3.693-5.616-5.588-.182-.378-.546-1.133-.72-1.511a11.482 11.482 0 00-5.378-.748 28.545 28.545 0 01-.615-3.35 21.146 21.146 0 013.161-1.238c.203-.462.406-.916.615-1.371.434-.203 1.308-.608 1.748-.811 0 .252 0 .755-.007 1.007 2.595.636 5.182 1.259 7.763 1.951-.238 3.168-.566 6.329-.783 9.498 2.672.72 5.357 1.406 8.092 1.867.483-3.315.895-6.637 1.21-9.973 3.329.301 6.63.79 9.917 1.399.476-2.679 1.021-5.343 1.371-8.043-3.154-.629-6.169-1.783-9.33-2.385.72-2.749 1.336-5.525 2.007-8.295-2.105-.504-4.245-.818-6.343-1.322-2.238-1.187-4.826-1.005-7.274-.936z"/><path fill="#F7F7E6" d="M210.6 151.912c.532.112 1.595.343 2.119.455.14.944.28 1.888.427 2.839-.58 1.245-1.154 2.49-1.72 3.749-1.064-2.168-2.589-4.784-.826-7.043z"/><path fill="#F9E266" d="M152.047 153.269a77.462 77.462 0 013.14-.944c1.427 1.063 3 1.888 4.644 2.567 1.714.783 3.315 1.79 4.945 2.742-2.021-.063-5.616-.203-5.07 2.839l-.049.755c-.532.084-1.602.238-2.14.315a77.358 77.358 0 01-3.553-3.385c2.525.238 5.126.063 7.288-1.413-3.036-1.238-6.204-2.14-9.205-3.476z"/><path fill="#DA1F2F" d="M172.155 156.696c2.539-1 4.728-2.7 7.253-3.728 2.448-.07 5.036-.252 7.274.937-.441-.07-1.322-.21-1.762-.287-1.147 2.672-1.686 5.546-2.392 8.351a187.077 187.077 0 00-8.19-.608c-.518 2.28-1.196 4.525-1.553 6.84-.441.203-1.315.608-1.748.811-.21.455-.413.909-.615 1.371a21.146 21.146 0 00-3.161 1.238c-.147-3.091.469-6.162 1.644-9.015.788-2.112 1.816-4.154 3.25-5.91z"/><path fill="#CF9A3B" d="M227.86 155.172c4.371 1.189 8.141-2.958 12.393-1.839-1.147 2.238-3.371 3.252-5.728 3.693-.336.441-.664.874-1 1.308-1.042-2.539-3.889-1.986-6.071-1.762a167.26 167.26 0 01-1.462-.916c.469-.121 1.4-.366 1.868-.484z"/><path d="M184.918 153.619c.441.077 1.322.217 1.762.287 2.098.504 4.238.818 6.343 1.322-.671 2.77-1.287 5.546-2.007 8.295 3.161.601 6.176 1.755 9.33 2.385-.35 2.7-.895 5.364-1.371 8.043-3.287-.608-6.588-1.098-9.917-1.399a198.734 198.734 0 01-1.21 9.973c-2.735-.462-5.42-1.147-8.092-1.867.217-3.168.546-6.329.783-9.498-2.581-.692-5.168-1.315-7.763-1.951.007-.252.007-.755.007-1.007.357-2.315 1.035-4.56 1.553-6.84 2.735.14 5.462.35 8.19.608.707-2.805 1.245-5.679 2.392-8.351zm21.723 40.235l.182-.007c.566.587 1.119 1.182 1.679 1.783 2.189 4.308 5.022 8.274 6.763 12.813.804 1.776 1.679 3.532 2.357 5.364.322 1.126.664 2.252.979 3.385.336 1.588.315 3.217.168 4.826-2.378-2.812-3.147-6.497-4.126-9.945-.79-3.651-2.203-7.127-4.119-10.33-1.47-2.538-3.079-5.035-3.883-7.889zm3.035 20.114z" fill="#FFF"/><path d="M215.53 160.34c3.301-1.93 6.812-3.56 10.463-4.686.364.231 1.098.692 1.462.916-2.343 1.042-4.735 1.979-6.98 3.224-1.616.769-2.811 2.112-3.889 3.497a46.68 46.68 0 00-1.616-.958 522.68 522.68 0 012.042-1.658l-1.482-.335zm-57.936 6.406c.357.021 1.077.07 1.434.091 1.084 1.951 2.756 3.483 4.539 4.791.49.315.979.622 1.483.923-.084 1.049-.147 2.105-.259 3.154-3.434.58-6.798 1.469-10.162 2.357l.224-1.476.448-.413c2.818-1.182 5.903-1.189 8.861-1.762-5.071-.511-10.099.713-15.177.42.818-.511 1.637-1.049 2.448-1.574-1.937-.35-3.77-1.042-5.623-1.644-1.783.392-3.392 1.79-5.294 1.35l1.35-.825.14-.084c2.427-1.378 4.84-2.895 7.644-3.385 2.572-.958 5.44-.797 7.944-1.923m.951 1.602c-.923.525-.944 1.014-.077 1.469.916-.518.944-1.008.077-1.469m70.938 16.54c-.007-.245-.028-.727-.035-.972 1.476.678 2.86 1.532 4.231 2.399.944 1.986 1.986 4 3.665 5.476-1.056.231-2.007.72-2.511 1.727-1.224-.434-2.448-.874-3.679-1.266a89.62 89.62 0 003.952-1.49c-1.378-2.384-3.14-4.573-5.623-5.874z" fill="#CAA54F"/><path fill="#F2BD49" d="M227.455 156.57c2.182-.224 5.029-.776 6.071 1.762-.692.881-1.406 1.741-2.112 2.602.049.119.161.364.21.483-1.574 1.399-3.91 2.252-5.826 3.329 1.553-1.923 3.224-3.749 4.826-5.637-3.336-1.42-6.749.587-10.148.685 2.244-1.244 4.636-2.182 6.979-3.224z"/><path fill="#EAB64A" d="M159.706 160.473c-.546-3.042 3.049-2.902 5.07-2.839 1.105.357 2.217.692 3.329 1.042-1.077 2.119-1.727 4.413-2.483 6.658a24.628 24.628 0 00-1.168 4.406c-.259-1.147-.643-2.273-.769-3.441.28-.902 1.189-1.455 1.769-2.175-.252-.741-.504-1.49-.748-2.231.706-.476 1.413-.958 2.112-1.448-1.315-.07-2.525-.364-2.539-1.909.056.636.098 1.273.147 1.916-2.825.608-4.812 3.007-7.728 3.406.664.028 1.986.091 2.644.126-.042.371-.126 1.119-.161 1.49-.042.343-.112 1.021-.154 1.364-.357-.021-1.077-.07-1.434-.091l-1.168-.077c-.378-1.091-.769-2.175-1.007-3.301.441-2.126 2.979-1.825 4.637-1.993a45.344 45.344 0 00-.349-.903z"/><path fill="#F5D779" d="M220.475 159.794c3.399-.098 6.812-2.105 10.148-.685-1.602 1.888-3.273 3.714-4.826 5.637-.902.853-2.119 1.273-3.182 1.888l-.678-.154c-.385-.098-1.161-.287-1.546-.385-1.217-1-2.448-2-3.805-2.805 1.077-1.383 2.273-2.726 3.889-3.496z"/><path fill="#C18C4A" d="M212.355 161.424c1.056-.364 2.119-.713 3.175-1.084l1.483.336a522.68 522.68 0 00-2.042 1.658 46.68 46.68 0 011.616.958c1.357.804 2.588 1.804 3.805 2.805-1.322-.028-2.616-.238-3.665-1.098-.343.133-1.028.392-1.371.518-.056-.084-.175-.252-.231-.336-.539-1.525-1.637-2.693-2.826-3.728l.056-.029z"/><path fill="#F4E69E" d="M159.342 163.984c1.895-.378 3.7-1.119 5.364-2.091.245.741.497 1.49.748 2.231-.58.72-1.49 1.273-1.769 2.175.126 1.168.511 2.294.769 3.441.203.937.406 1.874.594 2.811a52.746 52.746 0 01-1.483-.923c-.049-1.958-.832-3.77-1.609-5.532-.93-.203-1.86-.399-2.777-.622.037-.371.121-1.12.163-1.49z"/><path fill="#F6D863" d="M210.746 162.375c1.413 1.007 2.888 1.916 4.378 2.805.056.084.175.252.231.336l.406.643c-1.28-.65-2.602-1.189-3.91-1.755.315 1.203.65 2.406.951 3.616-.364 1.79-.098 3.602.511 5.315-.378 1.105-.755 2.21-1.182 3.301-.455.539-.909 1.084-1.364 1.63.14.245.42.72.56.958.601.958 1.336 1.825 2.049 2.7.532-.007 1.063-.007 1.602-.014a40.87 40.87 0 011.888 3.49 74.35 74.35 0 00-2.777-1.916c.035.287.112.867.147 1.154.161 1.357.343 2.714.567 4.063-1.098-.594-2.217-1.441-2.035-2.833-.021-1.497-.336-2.972-1.266-4.182-.357-.559-.741-1.105-1.105-1.658-.518 2.056-1.007 4.119-1.497 6.183.385.553.776 1.112 1.161 1.672-.329.014-.993.049-1.322.063-.525.021-1.581.07-2.105.091h-1.322c.287-3.77 4.826-5.294 4.413-9.232.063-2.042 1.28-3.728 1.951-5.588.636-3.168-.112-6.364-1.028-9.393.021-.365.07-1.092.098-1.449z"/><path fill="#6C5C4F" d="M209.292 165.928c.455-.692.909-1.399 1.357-2.105.916 3.028 1.665 6.224 1.028 9.393-.671 1.86-1.888 3.546-1.951 5.588-.937.455-1.881.902-2.819 1.357 2.532-4.239 3.147-9.414 2.385-14.233z"/><path fill="#F3E9BD" d="M211.851 164.403c1.308.566 2.63 1.105 3.91 1.755.608.853 1.126 1.769 1.665 2.679 1.14.175 2.273.357 3.413.539-2.378.874-4.882 1.462-7.441 1.28-.189-.881-.378-1.762-.594-2.637-.302-1.21-.638-2.413-.953-3.616z"/><path fill="#DEB54A" d="M215.355 165.515c.343-.126 1.028-.385 1.371-.518 1.049.86 2.343 1.07 3.665 1.098.385.098 1.161.287 1.546.385.825.902 1.979 1.357 3.035 1.909-.168.923-.504 1.804-.909 2.651l.65.329c-.511.35-1.014.699-1.525 1.049-1.434.713-3.77 2.707-4.819.546-.056-.413-.161-1.231-.217-1.644-1.385-.007-2.763-.014-4.133-.014-.238.671-.476 1.35-.706 2.028-.608-1.714-.874-3.525-.511-5.315.217.874.406 1.755.594 2.637 2.56.182 5.064-.406 7.441-1.28-1.14-.182-2.273-.364-3.413-.539-.539-.909-1.056-1.825-1.665-2.679l-.404-.643z"/><path fill="#FAFBF6" d="M159.181 165.473c.916.224 1.846.42 2.777.622.776 1.762 1.56 3.574 1.609 5.532-1.783-1.308-3.455-2.839-4.539-4.791.041-.341.111-1.02.153-1.363z"/><path d="M164.454 169.74a24.628 24.628 0 011.168-4.406l1.287-.063c-.685 2.818-1.21 5.721-.692 8.616.511 4.917 2.189 10.365 6.511 13.218-.427.42-.853.839-1.28 1.252-.699-.755-1.413-1.476-2.035-2.287l-.518-.811c-1.273-2.532-3.063-4.812-3.889-7.553.266-1.706.385-3.448.042-5.154-.188-.938-.391-1.875-.594-2.812zm16.366 47.411c1.588-1.14 2.126-3 2.588-4.791.091.546.28 1.637.371 2.182-.776 4.567-2.532 8.861-4.679 12.946-1.672-4.084.28-8.581-.168-12.855a311.44 311.44 0 001.888 2.518z" fill="#C6984E"/><path fill="#EED192" d="M158.545 168.348c.867.462.839.951-.077 1.469-.867-.455-.847-.945.077-1.469z"/><path fill="#F7F7ED" d="M214.02 171.306c1.371 0 2.749.007 4.133.014.056.413.161 1.231.217 1.644-2.126 1.147-4.287 2.238-6.238 3.672.427-1.091.804-2.196 1.182-3.301.23-.679.468-1.357.706-2.029z"/><path fill="#F3DB91" d="M224.713 171.369c3.896 2.084 7.721 4.315 11.239 7.008-1.007.301-2.007.608-3.007.916a24.379 24.379 0 01-.797 4.532c-3.742-1.888-7.609-3.609-11.659-4.714a40.266 40.266 0 003.413-1.832c.846-1.126 1.301-2.476 1.672-3.812-.797-.357-1.588-.699-2.385-1.049.51-.349 1.013-.699 1.524-1.049z"/><path fill="#7A7A77" d="M141.864 172.139l.14-.084-.14.084z" opacity=".5"/><path fill="#9B8359" d="M140.515 172.964c1.902.441 3.511-.958 5.294-1.35 1.853.601 3.686 1.294 5.623 1.644-.811.525-1.63 1.063-2.448 1.574-3.476.266-6.707 1.595-9.994 2.623-1.888.664-4.609.797-5.057 3.231 1.93-.231 3.7-1.007 5.329-2.035a182.23 182.23 0 014.812-.909c.385.119 1.154.364 1.539.483-.455.553-.916 1.105-1.371 1.665-3.357-.133-6.7.469-9.973 1.189l-.133.028c-.224-.392-.671-1.161-.895-1.553.671-1.86 2.182-3.133 3.756-4.231l.706.049c.902.224 1.86-.566 1.832-1.49l.084-.587c.224-.086.672-.247.896-.331z"/><path fill="#EDBA5F" d="M218.37 172.964c1.049 2.161 3.385.168 4.819-.546.797.35 1.588.692 2.385 1.049-.371 1.336-.825 2.686-1.672 3.812-.993-.077-1.986-.147-2.979-.217a312.06 312.06 0 01-.371-2.546c-.266.119-.804.371-1.077.49-2.56 1.294-5.322 2.084-7.973 3.147-.042.266-.133.804-.175 1.07-.14-.238-.42-.713-.56-.958.455-.546.909-1.091 1.364-1.63 1.951-1.433 4.113-2.524 6.239-3.671z"/><path fill="#FAFBF7" d="M148.984 174.831c5.077.294 10.106-.93 15.177-.42-2.958.573-6.043.58-8.861 1.762-3.763.385-7.525.776-11.225 1.567-1.609.28-3.217.587-4.812.909l-.944.161c.168-.336.504-1.021.671-1.357 3.287-1.027 6.518-2.356 9.994-2.622z"/><path fill="#E03147" d="M167.874 174.971c1.832-.182 3.665.07 5.378.748.175.378.539 1.133.72 1.511-1.21.245-2.42.49-3.63.741-.196.762-.385 1.532-.574 2.301-.698-1.741-1.348-3.504-1.894-5.301z"/><path fill="#B88953" d="M219.475 175.006c.273-.119.811-.371 1.077-.49.119.846.245 1.7.371 2.546.993.07 1.986.14 2.979.217a39.983 39.983 0 01-3.413 1.832c-1.336-.112-2.672-.217-3.993-.406a16.004 16.004 0 002.979-3.699z"/><path fill="#826B4B" d="M211.502 178.153c2.651-1.063 5.413-1.853 7.973-3.147a15.979 15.979 0 01-2.979 3.7c-.511-.098-1.525-.294-2.035-.385.007.217.021.65.035.867l.035.671c2.497 2.518 5.945 4.637 6.546 8.435.413.993-.622 1.609-1.112 2.315a31.11 31.11 0 00-1.713-2.693 46.521 46.521 0 01-1.385-2.518 40.87 40.87 0 00-1.888-3.49c-.539.007-1.07.007-1.602.014-.713-.874-1.448-1.741-2.049-2.7.041-.265.132-.803.174-1.069z"/><path d="M144.074 177.741c3.7-.79 7.462-1.182 11.225-1.567l-.448.413c-2.175.476-4.483.357-6.581 1.175-.587.671-.895 1.532-1.301 2.315 2.777.539 5.273-.804 7.658-2.014 3.364-.888 6.728-1.776 10.162-2.357-.126.385-.371 1.147-.497 1.532-.336.049-.993.14-1.329.189-1.846.14-4 .553-5.015 2.294-.434 1.091.518 2.014.909 2.951a16.603 16.603 0 00-1.888 2.881c-.853-.084-1.692-.175-2.539-.252.336-1.035 1.651-2.182.629-3.21-.832-1.154-2.392-1.084-3.651-1.224-2.42-.105-4.819-.392-7.169-.979.455-.559.916-1.112 1.371-1.665-.382-.119-1.151-.364-1.536-.482zm12.414 9.651l.713-.014 1.294.818a10.13 10.13 0 002.707.525c-.797.329-1.567.706-2.336 1.084-1.65 1.357-3.566-.776-2.378-2.413zm16.548 18.17c-.42-1.937-1.504-4.294.28-5.903 1.818 2 1.693 4.623 1.49 7.134.21-.804.406-1.602.601-2.399.357.406 1.07 1.231 1.427 1.644.902-.86 1.797-1.727 2.679-2.609a354.159 354.159 0 00-3.854-.119c.308-.972.664-1.923 1.028-2.874.294.518.867 1.553 1.161 2.07.378-.126 1.14-.371 1.525-.497l.539-.175c.112.511.343 1.525.455 2.035-.483.776-.972 1.553-1.392 2.371-.378.252-1.133.762-1.504 1.014-1.035.678-2.245.916-3.441 1.084-.33-.93-.693-1.839-.994-2.776z" fill="#EEC851"/><path fill="#B69C4C" d="M148.271 177.762c2.098-.818 4.406-.699 6.581-1.175l-.224 1.476c-2.385 1.21-4.882 2.553-7.658 2.014.406-.784.713-1.644 1.301-2.315z"/><path fill="#E8CC6D" d="M133.933 180.685c.448-2.434 3.168-2.567 5.057-3.231-.168.336-.504 1.021-.671 1.357l.944-.161c-1.63 1.028-3.399 1.804-5.33 2.035z"/><path fill="#F9E157" d="M157.95 179.72c1.014-1.741 3.168-2.154 5.015-2.294-1.252 1.839-2.574 3.63-4.105 5.245-.392-.937-1.343-1.86-.91-2.951z"/><path d="M162.965 177.426c.336-.049.993-.14 1.329-.189-1.79 2.315-4.525 4.616-3.945 7.882-1.014.804-2.049 1.581-3.147 2.259l-.713.014c.119-.462.357-1.378.483-1.839a16.66 16.66 0 011.888-2.881c1.531-1.616 2.853-3.407 4.105-5.246zm49.026 11.267a83.13 83.13 0 004.161 1.916l-.259-1.287c1.406.734 2.819 1.469 4.154 2.336-.042.343-.126 1.021-.161 1.364-1.231-.853-2.728-1.049-4.042-.266-2.406.147-4.819.049-7.204-.231a35.421 35.421 0 011.651-.986c.448-.147 1.357-.434 1.804-.58l-.104-2.266z" fill="#DBAB42"/><path fill="#DF5A65" d="M170.343 177.971c1.21-.252 2.42-.497 3.63-.741 1.839 1.895 4.35 3.168 5.616 5.588 1.238 1.93 1.231 4.539-.049 6.455-4.112-1.783-7.721-4.994-9.77-9.001.189-.769.377-1.538.573-2.301m1.511 1.021c.154 1.07-.084 2.287.546 3.231 1.455 2.021 3.07 4.483 5.91 4.28.706-3.699-2.568-7.944-6.456-7.511z"/><path fill="#C29E66" d="M206.907 180.16c.937-.455 1.881-.902 2.819-1.357.413 3.938-4.126 5.462-4.413 9.232h1.322c-1.497.329-2.958.783-4.413 1.266-1.042.245-1.679 1.161-2.399 1.874-3.406 2.336-7.679 3.693-11.834 3.357a38.938 38.938 0 00-1.769-.189c-1.665-.084-3.343.175-4.994-.063-2.867-1.014-5.462-2.672-7.966-4.364l-.629-.525c.42-.392.839-.776 1.266-1.154 1.916 1.665 4.161 2.895 6.56 3.707 5.008 2.399 11.092 1.902 15.932-.692 3.924-1.658 7.392-4.357 9.812-7.889-.126-.322-.364-.972-.483-1.294.412-.629.811-1.265 1.189-1.909z"/><path d="M232.945 179.293c1-.308 2-.615 3.007-.916l.504.42c1.658 1.399 3.203 2.93 4.679 4.525-.266.811-.525 1.637-.79 2.455-.916.42-1.832.832-2.735 1.259-1.825-1.063-3.623-2.175-5.462-3.21.405-1.484.678-3.001.797-4.533zm-86.66 32.263a51.485 51.485 0 014.273-8.386c-.133.734-.231 1.483-.364 2.224-1.322 2.224-2.602 4.483-3.553 6.903 3.427-.825 5.427-3.826 8.288-5.567-.797 1.224-1.525 2.518-1.86 3.952-.944.769-1.867 1.56-2.853 2.266-.916.511-1.93.727-3.028.65-.113-.672-1.407-1.238-.903-2.042z" fill="#F2D278"/><path fill="#F5D57E" d="M214.495 179.188a370.443 370.443 0 0114.953 4.728c.007.245.028.727.035.972.231 1.105.657 2.175.727 3.315-1.525 1.357-3.609 1.497-5.539 1.581.839.483 1.678.979 2.539 1.441-2.392-.378-4.812-.993-7.246-.615.49-.706 1.525-1.322 1.112-2.315-.601-3.798-4.049-5.917-6.546-8.435l-.035-.672z"/><path fill="#F9DF60" d="M134.269 181.077c3.273-.72 6.616-1.322 9.973-1.189 2.35.587 4.749.874 7.169.979 1.259.14 2.819.07 3.651 1.224 1.021 1.028-.294 2.175-.629 3.21-5.714-.804-11.358-2.042-17.037-3.035a6.711 6.711 0 01-3.127-1.189z"/><path fill="#F4E7B3" d="M210.397 180.028c.364.553.748 1.098 1.105 1.658-.776 1.126-1.147 2.434-1.315 3.784l2.581.399c-.182 1.392.937 2.238 2.035 2.833.273.154.818.469 1.091.622l.259 1.287a82.311 82.311 0 01-4.161-1.916l.105 2.266c-.448.147-1.357.434-1.804.58l-.853-.042c.406-.692.825-1.378 1.238-2.063-.65-.497-1.294-.993-1.937-1.49.329-.014.993-.049 1.322-.063-.385-.559-.776-1.119-1.161-1.672a434.55 434.55 0 011.495-6.183z"/><path d="M201.92 186.259a25.129 25.129 0 003.798-4.189c.119.322.357.972.483 1.294-2.42 3.532-5.889 6.231-9.812 7.889l-1.385-.357c2.468-1.273 4.902-2.693 6.916-4.637zm-2.098 4.917c.189 1.455.322 2.909.385 4.378a58.79 58.79 0 00-1.007-2.238 15.78 15.78 0 00-2.665 3.308l-1.266-1.245c-.035 1.14-.063 2.287-.077 3.441-2.042-1.972-4.574-3.287-7.204-4.287 4.155.335 8.428-1.021 11.834-3.357z" fill="#F0CB68"/><path fill="#F9F9F0" d="M210.187 185.469c.168-1.35.539-2.658 1.315-3.784.93 1.21 1.245 2.686 1.266 4.182l-2.581-.398z"/><path fill="#E5C17E" d="M214.089 183.482a76.041 76.041 0 012.777 1.916c.441.846.888 1.693 1.385 2.518-1.497-.888-2.93-1.902-4.014-3.28-.036-.286-.113-.867-.148-1.154z"/><path fill="#E3AB52" d="M241.134 183.322c1.392 1.532 2.553 3.252 3.679 4.987-1.196.007-2.385.007-3.567.014l.231 1.105c-1.273-.825-2.574-1.609-3.868-2.392.902-.427 1.818-.839 2.735-1.259.266-.819.525-1.644.79-2.455z"/><path fill="#AA8C4F" d="M214.236 184.636c1.084 1.378 2.518 2.392 4.014 3.28a30.575 30.575 0 011.713 2.693l.084 1.049c-1.336-.867-2.749-1.602-4.154-2.336-.273-.154-.818-.469-1.091-.622a89.99 89.99 0 01-.566-4.064z"/><path fill="#F6CB5C" d="M229.483 184.888c2.483 1.301 4.245 3.49 5.623 5.875a89.62 89.62 0 01-3.952 1.49c-1.294-.413-2.616-.734-3.944-1.028-.86-.462-1.699-.958-2.539-1.441 1.93-.084 4.014-.224 5.539-1.581-.07-1.14-.496-2.21-.727-3.315z"/><path d="M158.496 188.196a113.28 113.28 0 012.532-2.609c.287.706.58 1.413.888 2.112l1.077.224c2.525.147 5.098.077 7.546.853-.874 0-1.741.028-2.609.042-2.231-.364-4.497-.483-6.728-.098a10.09 10.09 0 01-2.706-.524zm48.733 21.646c.196-.49.587-1.469.79-1.958l.378.392c1.888 1.469 3.546 4.161 6.245 3.798.979 3.448 1.748 7.134 4.126 9.945.147-1.609.168-3.238-.168-4.826.427 1.504.783 3.028 1.007 4.588l-.357 1.168c-2.203-.231-3.791-1.937-5.252-3.42-.755-1.567-1.672-3.091-3.168-4.049-.273-.336-.804-1-1.07-1.329a4.564 4.564 0 00-.084-.182l-.112-.972c.203-1.308-.462-2.553-1.776-2.888l-.559-.267z" fill="#BA8B4B"/><path fill="#947E5C" d="M233.679 186.315c2.665 1.658 5.476 3.084 8.05 4.889a79.398 79.398 0 012.406 1.958c-2.343.049-4.574-.72-6.791-1.371-1.679-1.476-2.721-3.49-3.665-5.476z"/><path fill="#F9F9F2" d="M206.634 188.035c.525-.021 1.581-.07 2.105-.091.643.497 1.287.993 1.937 1.49-.413.685-.832 1.371-1.238 2.063-2.546-.189-4.91-1.168-7.218-2.196 1.456-.482 2.917-.937 4.414-1.266z"/><path fill="#F7DD72" d="M161.202 188.721c2.231-.385 4.497-.266 6.728.098a16 16 0 00-3.903 2.469c-1.392.336-2.798.58-4.203.825.357-.678.72-1.35 1.077-2.028-.741.189-1.483.385-2.217.594l.182-.874c.77-.378 1.539-.755 2.336-1.084z"/><path fill="#F7D665" d="M170.539 188.777c.406.098 1.21.308 1.616.413-1.651 2.609-3.749 4.861-6.064 6.889-2.343-.28-4.119 1.504-5.91 2.714-2.042 1.532-4.49 2.322-6.77 3.406-1.28.832-2.329 1.958-3.217 3.196.133-.741.231-1.49.364-2.224 1.035-2.413 2.406-4.679 3.931-6.819.783.161 1.574.273 2.378.35 2.791-1.175 5.057-3.287 7.162-5.413a16.03 16.03 0 013.903-2.469c.866-.015 1.733-.043 2.607-.043z"/><path fill="#8E7251" d="M241.246 188.322c1.182-.007 2.371-.007 3.567-.014 1.238 1.832 1.909 3.951 2.322 6.106l.098.413-.154-.203c-1.098-1.532-2.301-3.021-3.924-4.021-.566-.392-1.119-.783-1.679-1.175l-.23-1.106z"/><path fill="#E4C87E" d="M199.822 191.176c.72-.713 1.357-1.63 2.399-1.874 2.308 1.028 4.672 2.007 7.218 2.196l.853.042a35.95 35.95 0 00-1.651.986c2.385.28 4.798.378 7.204.231.93.336 1.846.727 2.819.951l.399.762c-4.105.182-8.148-1.084-12.239-.622l-.182.007a89.95 89.95 0 00-1.308-1.091l-.413.497c-.776-1.189-2-1.881-3.364-2.21-.154 1.273-.154 2.574.14 3.833-.42.867-.706 1.783-.937 2.728l-.546.343c-.007-.601-.007-1.797-.007-2.399a50.764 50.764 0 00-.385-4.38z"/><path fill="#ECBE58" d="M158.685 190.679c.734-.21 1.476-.406 2.217-.594-.357.678-.72 1.35-1.077 2.028 1.406-.245 2.812-.49 4.203-.825-2.105 2.126-4.371 4.238-7.162 5.413a22.367 22.367 0 01-2.378-.35c1.287-1.965 2.546-3.979 4.197-5.672z"/><path fill="#F6D261" d="M166.755 197.512c2.091-2.469 4.203-4.917 6.539-7.155-.196 3.077-.93 6.266.021 9.302-1.783 1.609-.699 3.965-.28 5.903-.168-.518-.497-1.546-.664-2.063-1.112.678-2.168 1.455-3.378 1.944-2.42.504-5.091 1.049-6.322 3.49-3.784 2.063-8.015 4.21-12.456 4.014.986-.706 1.909-1.497 2.853-2.266 2.958-2.364 6.092-4.553 8.735-7.288.259.273.776.804 1.035 1.077.923-.238 1.846-.483 2.777-.713.406-2.056 1.91-4.119 1.14-6.245z"/><path d="M243.156 190.602c1.623 1 2.826 2.49 3.924 4.021-2.175 1.916-5.462 1.308-7.868.196 2.105-.441 4.266-.357 6.406-.399-.497-.427-.986-.846-1.483-1.259a79.398 79.398 0 00-2.406-1.958c.357-.146 1.07-.447 1.427-.601zm-56.223 6.469c1.035.315 1.623.986 1.769 2.014.699 2.742.224 6.532 3.56 7.623 1.245.532 2.329-.161 2.944-1.252a97.428 97.428 0 002.168 1.993c-.951 1.797-1.909 3.588-3.042 5.273-2.196.105-4.301.874-6.497.937-.518-.762-1-1.546-1.483-2.322.476-4.098 1.769-8.295.825-12.407l-.357-1.287.113-.572z" fill="#F7E187"/><path fill="#F4E187" d="M173.588 191.232a15.019 15.019 0 006.574 4.413c2.021.168 4-.587 5.994-.846-.07.49-.217 1.462-.287 1.951-1.504 2-3.161 3.91-4.273 6.176-.434-.42-.86-.832-1.287-1.252a120.125 120.125 0 003.224-4.021l-.539-.084c-2.224-.385-4.49-.441-6.742-.336-.21.825-.427 1.644-.636 2.469-.629-2.84-1.503-5.61-2.028-8.47z"/><path fill="#E7C98C" d="M180.456 191.945c4.875.867 9.826.35 14.547-1.049l1.385.357c-4.84 2.594-10.924 3.091-15.932.692z"/><path fill="#F5CB41" d="M234.833 193.519c.504-1.007 1.455-1.497 2.511-1.727 2.217.65 4.448 1.42 6.791 1.371.497.413.986.832 1.483 1.259-2.14.042-4.301-.042-6.406.399-.378-.063-1.14-.203-1.525-.273-.959-.323-1.91-.687-2.854-1.029z"/><path fill="#F6DD86" d="M205.333 192.763c.434.357.874.72 1.308 1.091.804 2.853 2.413 5.35 3.882 7.889a18.263 18.263 0 01-2.126 6.532l-.378-.392c-1.14-1.588-2.266-3.35-2.28-5.371-.238-2.895.748-5.973-.629-8.693l-.189-.559.412-.497z"/><path fill="#DEBA70" d="M205.109 193.819c1.378 2.721.392 5.798.629 8.693.014 2.021 1.14 3.784 2.28 5.371-.203.49-.594 1.469-.79 1.958-1.042-1.832-2.371-3.476-3.441-5.294-.413-.825-.986-1.651-1.937-1.888-.028.266-.098.79-.126 1.049l-.203 1.49c-.518-1.811-.685-3.686-.364-5.553.706-1.098 1.063-2.399.776-3.693.504 2.364.196 5.266 2.539 6.714.567-2.916.651-5.888.637-8.847z" opacity=".97"/><path fill="#F6ECC4" d="M200.759 197.61c.231-.944.518-1.86.937-2.728.063.266.182.804.238 1.07.287 1.294-.07 2.595-.776 3.693-.098-.51-.294-1.532-.399-2.035z"/><path fill="#BF9645" d="M160.181 198.792c1.79-1.21 3.567-2.993 5.91-2.714-3.504 3.378-6.518 7.35-10.463 10.232.406-1.056.804-2.119 1.203-3.175-1.147-.315-2.287-.629-3.42-.937 2.28-1.084 4.728-1.874 6.77-3.406z"/><path fill="#706C49" d="M186.401 196.106a23.19 23.19 0 011.993-.546l.266.294-1.651.895-.077.322-.112.574c-1.126 2.791-2.378 5.651-4.63 7.728-1.098.867-2.224 1.693-3.336 2.539.028-.42.091-1.259.119-1.672.42-.818.909-1.595 1.392-2.371-.112-.511-.343-1.525-.455-2.035l-.539.175c1.406-1.308 2.56-2.846 3.623-4.441l.539.084a118.12 118.12 0 01-3.224 4.021c.427.42.853.832 1.287 1.252 1.112-2.266 2.77-4.175 4.273-6.176l.532-.643z"/><path fill="#F6DB81" d="M208.501 195.631c2 1.672 4.133 3.175 6.294 4.644.413-.615.825-1.231 1.245-1.839 2.588 1.203 4.112 3.644 5.252 6.155.042-.951.077-1.895.105-2.846.357 1.364.594 2.756.685 4.168.007 2.532-.063 5.28-2.042 7.162-1.727-1.385-2.518-4.035-4.777-4.63-1.74-4.541-4.573-8.506-6.762-12.814z"/><path fill="#DAB06A" d="M188.66 195.854c1.119 1.413 2.077 2.944 3.147 4.392-.07.692-.14 1.385-.203 2.077-.336.28-1 .839-1.336 1.119.65 1.091 1.301 2.189 1.993 3.266-3.336-1.091-2.86-4.882-3.56-7.623-.147-1.028-.734-1.699-1.769-2.014l.077-.322 1.651-.895z"/><path fill="#B89853" d="M161.804 203.394c1.867-1.769 3.462-3.791 4.952-5.882.769 2.126-.734 4.189-1.14 6.245-.93.231-1.853.476-2.777.713-.259-.272-.776-.803-1.035-1.076z"/><path fill="#D2A257" d="M200.214 197.953l.546-.343c.105.504.301 1.525.399 2.035-.322 1.867-.154 3.742.364 5.553.21 1.273-.58 2.434-1.049 3.546-1.294-2.756-1.392-5.889-2.721-8.63.762.028 1.525.07 2.287.105.055-.756.118-1.511.174-2.266z"/><path fill="#F6D46F" d="M182.191 205.373c2.252-2.077 3.504-4.938 4.63-7.728l.357 1.287c-.385 3.896-1.49 7.7-2.315 11.526-.637-1.812-1.406-3.602-2.672-5.085z"/><path fill="#F9F9F3" d="M187.177 198.932c.944 4.112-.35 8.309-.825 12.407-.35 3.979-2.028 7.637-3.455 11.309-1.098 1.741-2.301 3.413-3.399 5.154l1.28-.035c-.636.105-1.28.175-1.916.224.056-.126.182-.378.238-.504 2.147-4.084 3.903-8.379 4.679-12.946.322-1.371.706-2.728 1.084-4.084.825-3.825 1.93-7.63 2.314-11.525z"/><path d="M191.604 202.324c.063-.692.133-1.385.203-2.077 1.063 1.811 3.014 2.252 4.973 2.119 1.028 1.944 2.147 3.854 2.888 5.938l-.993.07c-.329-.231-.972-.692-1.301-.923a97.428 97.428 0 01-2.168-1.993c-.615 1.091-1.699 1.783-2.944 1.252-.692-1.077-1.343-2.175-1.993-3.266l1.335-1.12m-3.769 11.337c2.196-.063 4.301-.832 6.497-.937-3.168 4.861-5.707 10.4-10.631 13.792-.923.525-1.867 1.084-2.923 1.252l-1.28.035c1.098-1.741 2.301-3.413 3.399-5.154l-.14 1.923c3.665-2.371 6.245-5.952 8.421-9.665-.888-.119-1.769-.259-2.651-.399a78.782 78.782 0 00-.692-.847z" fill="#DEB154"/><path d="M210.523 201.743c1.916 3.203 3.329 6.679 4.119 10.33-2.7.364-4.357-2.329-6.245-3.798a18.263 18.263 0 002.126-6.532zm-2.735 8.365c1.315.336 1.979 1.581 1.776 2.888-1.084-.105-1.951-1.874-1.776-2.888zm3.042 5.371c1.497.958 2.413 2.483 3.168 4.049-1.419-1.028-2.3-2.573-3.168-4.049z" fill="#F4E09E"/><path fill="#43413B" d="M201.85 202.659c.951.238 1.525 1.063 1.937 1.888-.916.364-1.609.084-2.063-.839.028-.258.098-.783.126-1.049z" opacity=".29"/><path fill="#D8B241" d="M175.659 203.31c1.287.035 2.567.07 3.854.119-.881.881-1.776 1.748-2.679 2.609-.357-.413-1.07-1.238-1.427-1.644l.252-1.084z"/><path fill="#F6E088" d="M178.855 207.912c1.112-.846 2.238-1.672 3.336-2.539 1.266 1.483 2.035 3.273 2.672 5.085-.378 1.357-.762 2.714-1.084 4.084-.091-.546-.28-1.637-.371-2.182-.462 1.79-1 3.651-2.588 4.791a294.76 294.76 0 01-1.888-2.518c.448 4.273-1.504 8.77.168 12.855-.056.126-.182.378-.238.504-1.637-1.189-1.406-3.336-1.322-5.098.42-5.371.608-10.756.874-16.135l-.944.497a280.27 280.27 0 011.504-1.014c-.028.411-.091 1.25-.119 1.67z"/><path fill="#D7A049" d="M222.083 205.912c.895 4.161.161 8.386-.86 12.449-.385-2.399-1.497-4.56-3.322-6.169l-.28 1.616c-.678-1.832-1.553-3.588-2.357-5.364 2.259.594 3.049 3.245 4.777 4.63 1.979-1.882 2.049-4.631 2.042-7.162z"/><path fill="#99805B" d="M186.352 211.339c.483.776.965 1.56 1.483 2.322.175.21.518.629.692.846.881.14 1.762.28 2.651.399-2.175 3.714-4.756 7.295-8.421 9.665l.14-1.923c1.427-3.672 3.105-7.33 3.455-11.309z"/><path fill="#92734D" d="M217.901 212.192c1.825 1.609 2.937 3.77 3.322 6.169-.511 1.315-1.007 2.644-1.539 3.965l-.077-.546c-.224-1.56-.581-3.084-1.007-4.588-.315-1.133-.657-2.259-.979-3.385l.28-1.615z" opacity=".93"/><path d="M136.794 288.844c4.434-1.378 9.449-1.399 13.743.476 3.588 1.448 5.644 5.679 4.651 9.407-.937 3.861-4.343 6.406-7.686 8.155 2.518 2.553 5.126 5.022 7.693 7.525.168-.035.511-.098.678-.126 1.042-3.287 1.147-6.756 1.182-10.169 2.77.042 5.546.042 8.323-.014.189 5.819-1.35 11.659-4.574 16.526 2.86 2.714 5.532 5.63 8.26 8.483-3.518.035-7.043.028-10.561.007a144.476 144.476 0 00-2.805-4.042c-3.035 2.406-6.623 4.238-10.526 4.595-5.161.553-10.966-.273-14.897-3.938-3.756-3.469-4.35-9.561-1.755-13.876 1.595-2.763 4.119-4.805 6.763-6.511-2.322-1.937-4.546-4.434-4.812-7.581-.433-4.014 2.546-7.798 6.323-8.917m2.049 7.337c-.217 2.846 2.336 4.777 4.168 6.567 1.965-1.644 4.609-3.609 4.161-6.511-.748-3.973-7.511-3.952-8.329-.056m-3.077 19.701c-.727 3.112 1.441 6.322 4.42 7.232 3.616 1.266 7.427-.35 10.393-2.413-3.392-3.511-7.015-6.784-10.463-10.239-1.832 1.42-3.903 2.979-4.35 5.42zm314.98-25.003c5.21-3.364 11.98-3.63 17.848-2.063 4.959 1.287 8.539 6.113 8.309 11.253-2.826.014-5.651.035-8.47-.028-.329-1.679-.706-3.539-2.175-4.63-2.532-1.937-6.273-1.804-8.959-.252-2.14 1.266-3.049 4.161-1.909 6.392 1.112 1.811 3.315 2.364 5.224 2.93 4.735 1.336 9.959 1.846 13.995 4.91 4.21 3.126 4.245 9.568 1.49 13.666-3 4.672-8.826 6.427-14.099 6.721-4.798.189-10.113-.322-13.883-3.609-2.86-2.532-3.644-6.497-3.707-10.155 2.944.014 5.889.014 8.84.007.189 2.028.413 4.294 2.056 5.728 2.357 2.042 5.791 2.056 8.693 1.434 2.462-.483 4.945-2.56 4.763-5.273.287-2.091-1.532-3.672-3.371-4.182-5.49-1.734-11.638-2.308-16.254-6.057-5.266-4.259-3.867-13.33 1.609-16.792zM.345 288.564c5.126 0 10.26 0 15.386-.007 3 .07 6.141.217 8.854 1.644 4.427 2.287 6.49 8.365 4.168 12.82-1.133 2.189-3.427 3.392-5.476 4.574 2.161.594 4.385 1.406 5.931 3.112 3.665 4 3.42 10.84-.469 14.61-2.958 3.161-7.553 3.679-11.645 3.798-5.581.042-11.169 0-16.75.014l.001-40.565m8.392 6.302v9.777c3.126-.105 6.308.315 9.393-.336 4.203-.923 4.413-8.127.119-9.092-3.119-.678-6.343-.244-9.512-.349m0 16.086v11.547c3.504-.112 7.064.336 10.533-.315 4.959-.769 5.182-9.029.615-10.526-3.58-1.196-7.441-.56-11.148-.706zm29.374-22.388c9.155 0 18.31-.007 27.458 0 .007 2.203.007 4.406.007 6.616-6.245.021-12.491-.007-18.736.014-.014 3.126.014 6.259-.049 9.393 5.84.133 11.68.028 17.519.063.007 2.21.007 4.42.014 6.63-5.826-.014-11.659-.014-17.485-.007.028 3.7-.119 7.399.091 11.092 6.371-.112 12.743.014 19.114-.077.049 2.28.056 4.56.042 6.84H38.111c0-13.526-.007-27.045 0-40.564zm34.648 0c8.05.385 16.484-1.161 24.185 1.825 5.539 2.035 9.071 7.553 9.966 13.204 1.084 6.483.182 13.701-3.951 19.009-3.07 4.014-8.085 6.21-13.078 6.392-5.7.294-11.414.056-17.114.133-.022-13.518-.015-27.044-.008-40.563m8.812 6.519c-.224 9.106-.035 18.226-.098 27.339 3.986.126 8.414.525 11.91-1.783 3.525-2.455 4.602-6.987 4.854-11.036.245-4.301-.56-9.211-4.056-12.113-3.532-2.841-8.365-2.414-12.61-2.407zm108.306-6.519c5.126 0 10.246 0 15.372-.007 3.007.07 6.169.21 8.889 1.658 4.413 2.294 6.462 8.351 4.147 12.799-1.126 2.196-3.441 3.343-5.413 4.651 2.322.532 4.679 1.511 6.204 3.427 3.336 4.07 2.944 10.638-.86 14.281-2.944 3.098-7.469 3.616-11.512 3.742-5.609.042-11.218 0-16.827.014v-40.565m8.392 6.302v9.777c3.119-.098 6.301.315 9.379-.329 4.196-.909 4.434-8.078.175-9.085-3.133-.699-6.378-.258-9.554-.363m0 16.086v11.547c3.483-.112 7.022.329 10.47-.301 4.994-.713 5.273-8.98.72-10.526-3.594-1.217-7.469-.574-11.19-.72zm28.675-22.381c6.05-.007 12.099-.014 18.156-.007 3.56.063 7.504.49 10.204 3.084 3.574 3.203 4.42 9.113 1.532 13.029-1.49 2.098-3.944 3.126-6.238 4.084 2.203.504 4.707 1.392 5.539 3.728 1.93 5.378 1.098 11.428 3.602 16.645-3.203-.014-6.413 0-9.616-.007-.713-4.679-1.098-9.421-2.14-14.037-.273-1.609-1.902-2.616-3.462-2.539-2.916-.056-5.84-.126-8.742.119.161 5.476.014 10.959.084 16.435-2.972.028-5.945.021-8.917.021-.009-13.517-.002-27.036-.002-40.555m8.581 6.484c-.007 3.651.007 7.309-.021 10.973 3.504-.154 7.127.504 10.533-.483 4.294-1.518 4.511-8.889-.056-10.162-3.434-.692-6.98-.203-10.456-.328zm29.885-6.491c9.155 0 18.31-.007 27.458.007.007 2.196.007 4.399.007 6.609-6.245.014-12.491-.007-18.736.007-.021 3.126.021 6.259-.063 9.386 5.84.175 11.687.028 17.533.077 0 2.21.007 4.42.014 6.63a3639.59 3639.59 0 00-17.485 0c.014 3.686-.084 7.378.056 11.064 6.385-.063 12.778.014 19.163-.042.035 2.273.035 4.546.028 6.826H265.41v-40.564zm46.026-.042c3.469.091 6.945-.014 10.414.091 4.644 13.533 9.47 26.996 14.183 40.501-2.972.021-5.945.035-8.917-.021-.895-2.902-1.93-5.749-2.798-8.658-5.399-.196-10.805.035-16.212-.126-1.161 2.853-2.119 5.784-3.056 8.714-2.832.175-5.672.098-8.511.105 4.987-13.526 9.813-27.115 14.897-40.606m4.805 8.323c-1.916 5.651-4.049 11.225-5.896 16.897 3.896-.007 7.798.014 11.701-.021-2-5.602-3.588-11.351-5.805-16.876zm24.38-8.281h8.714c.028 5.798-.049 11.603.042 17.401 4.644-5.602 8.917-11.512 13.554-17.114 3.315-.699 6.938-.098 10.372-.266-4.924 6.106-10.036 12.064-14.981 18.156 5.413 7.476 10.889 14.904 16.338 22.352-3.707.014-7.42.14-11.127-.07-4.574-6.868-9.379-13.589-14.113-20.345-.189 6.812-.028 13.631-.091 20.45h-8.707c-.008-13.519-.015-27.045-.001-40.564zm38.466 0c8.798 0 17.589-.007 26.381 0 0 2.203 0 4.406.007 6.609-5.868.007-11.736.056-17.603-.035-.126 3.231-.063 6.462-.063 9.693 5.49.056 10.994-.105 16.484.091-.091 2.238-.098 4.476-.084 6.721-5.469 0-10.938-.007-16.407 0-.007 5.826 0 11.652 0 17.484h-8.707c-.022-13.518-.015-27.044-.008-40.563zm38.662-.042c3.469.098 6.945-.028 10.421.105 4.63 13.526 9.456 26.982 14.176 40.48-2.979.028-5.959.049-8.931-.021-1.098-2.846-1.567-6.134-3.154-8.665-5.231-.112-10.484-.091-15.708-.014-1.553 2.616-2.112 5.798-3.231 8.644-2.826.126-5.658.077-8.477.077 4.994-13.526 9.806-27.122 14.904-40.606m4.791 8.337c-1.888 5.651-4.077 11.197-5.861 16.89 3.889-.014 7.777.007 11.673-.028-2.008-5.595-3.574-11.358-5.812-16.862zm56.88-8.295c11.05-.028 22.093.042 33.144-.035.07 2.28.063 4.553.084 6.84-4.084.007-8.169-.007-12.246.007-.007 11.253.007 22.499 0 33.752h-8.714c-.077-11.267.126-22.534-.098-33.794-4.049.084-8.092 0-12.134.063-.043-2.28-.05-4.553-.036-6.833zm-217.913 67.421c3.308-3.469 8.316-4.805 13.001-4.462 3.742.217 7.735 1.511 10.036 4.651 1.287 1.602 1.741 3.651 1.951 5.651-1.322 0-2.637 0-3.952.007-.497-2.413-1.853-4.742-4.175-5.777-4.777-2.168-11.12-1.161-14.484 3.042-2.993 3.735-3.861 8.7-3.903 13.372.098 4.322.867 8.861 3.469 12.428 3.623 5.182 11.806 6.301 16.694 2.308 1.518-1.196 2.231-3.035 2.909-4.77 1.329.007 2.665.021 4 .049-.769 3.476-2.812 6.728-5.966 8.49-6.567 3.826-15.995 2.462-20.723-3.651-3.399-4.378-4.476-10.113-4.42-15.54.108-5.643 1.5-11.644 5.563-15.798zm115.021-1.693c1.874-3.154 6.092-2.902 9.183-2.091-.007.93-.014 1.867-.007 2.805-2.077-.14-4.917-.587-6.141 1.567-.755 2.553-.224 5.252-.301 7.868 2.077.007 4.154.007 6.239-.007.014 1.042.028 2.084.056 3.14-2.105.021-4.21.021-6.315.021.007 8.197-.035 16.393.021 24.59-1.175.014-2.35.063-3.525.084.007-8.218-.021-16.435.021-24.646a376.082 376.082 0 00-5.616-.035 233.709 233.709 0 010-3.133c1.853-.014 3.707-.014 5.567.007.272-3.372-.609-6.988.818-10.17zm-310.973-1.888c1.203-.028 2.413-.049 3.616-.063.112 5.756.091 11.512.007 17.268 7.183.182 14.372.035 21.555.084.014-5.77 0-11.54.007-17.31 1.28-.007 2.56-.007 3.847 0 .028 13.26-.049 26.527.035 39.795-1.308.07-2.616.063-3.924-.021.091-6.322.021-12.645.035-18.967-7.162-.007-14.323 0-21.485 0-.091 6.371.119 12.743-.105 19.114-1.203-.035-2.399-.084-3.602-.119.042-13.261.014-26.521.014-39.781zm66.154-.049c1.147.007 2.294.021 3.441.035.021 13.267-.028 26.535.028 39.795-1.175.021-2.35.063-3.518.084.021-13.303-.076-26.612.049-39.914zm43.348.007c1.154 0 2.301.014 3.455.028.175 13.281-.364 26.59.315 39.858a307.717 307.717 0 00-3.595 0c-.056-1.266-.105-2.532-.161-3.791-1.839 1.644-3.672 3.511-6.141 4.14-3.986 1.245-8.812.189-11.421-3.21-3.301-4.147-3.728-9.798-3.112-14.869.58-3.882 2.455-7.938 6.099-9.791 4.903-2.49 11.33-.839 14.568 3.567a525.557 525.557 0 01-.007-15.932m-11.526 14.827c-2.112.685-3.7 2.49-4.525 4.511-1.518 3.791-1.399 8.057-.385 11.959.643 2.406 2.126 4.791 4.518 5.77 3.945 1.336 8.854-.531 10.428-4.511 1.79-4.42 2.035-9.791-.252-14.079-1.762-3.468-6.203-4.783-9.784-3.65zm-20.002-14.792c1.35-.007 2.693-.014 4.042-.014-.007 1.392-.007 2.798-.014 4.196a382.29 382.29 0 00-4.007 0l-.021-4.182zm297.258 6.126c1.161-.49 2.329-.972 3.504-1.455a646.833 646.833 0 00-.007 7.371c2.084.007 4.168.007 6.252-.007.021 1.035.042 2.077.077 3.126-2.112.035-4.224.042-6.329.042-.014 5.812 0 11.631-.021 17.45.042 1.371-.042 3.056 1.154 4.014 1.553 1.266 3.721.581 5.539.574-.028 1.021-.056 2.042-.07 3.063-2.595.441-5.448.748-7.84-.602-1.958-1.112-2.217-3.616-2.266-5.637 0-6.28-.014-12.561.021-18.841-1.818-.028-3.63-.035-5.441-.035a233.709 233.709 0 010-3.133c1.797-.014 3.595-.014 5.406 0l.021-5.93zm-330.954 5.4c4.665-1.112 10.12.28 13.022 4.28 4.273 5.833 4.245 14.575-.084 20.366-4.091 5.364-12.813 6.05-17.876 1.706-4.896-4.343-5.903-11.827-3.938-17.834 1.281-4.091 4.582-7.637 8.876-8.518m.524 3.273c-3.357 1.14-5.476 4.455-6.19 7.798-.881 4.245-.147 9.134 2.909 12.379 3.217 3.532 9.554 3.252 12.414-.595 3.637-4.77 3.672-12.015.077-16.806-2.069-2.825-5.937-3.811-9.21-2.776zm79.583-2.434c3.539-1.546 7.749-1.623 11.337-.189 2.658 1.091 4.273 3.875 4.42 6.679.315 6.994-.182 14.002.294 20.988-1.161 0-2.329.007-3.49.014-.07-1.175-.133-2.343-.182-3.504-3.336 4.315-9.973 5.777-14.61 2.714-3.273-2.042-4.133-6.469-3.049-9.966 1.084-3.147 4.147-5.203 7.323-5.812 3.399-.671 6.896-.56 10.351-.58.042-2.798-.14-6.49-3.154-7.749-2.483-.832-5.413-.839-7.763.406-1.518.72-1.972 2.441-2.462 3.903-1.231-.042-2.462-.091-3.693-.133.628-2.743 1.964-5.575 4.678-6.771m.489 15.239c-3.399 1.818-3.266 7.518.28 9.092 3.266 1.525 7.875.818 9.917-2.371 1.623-2.504 1.699-5.602 1.693-8.483-3.973.287-8.267-.224-11.89 1.762zm111.691-16.204c4.868-.986 10.386.895 13.05 5.231 3.553 5.749 3.448 13.701-.441 19.268-3.84 5.371-12.12 6.28-17.394 2.56-5.917-4.49-6.875-13.344-4.084-19.862 1.519-3.679 4.918-6.533 8.869-7.197m-.104 3.434c-2.798.881-4.714 3.427-5.63 6.113-1.616 4.504-1.007 9.945 2.077 13.694 3.014 3.672 9.26 3.749 12.379.175 4.014-4.7 4.168-12.232.504-17.17-2.071-2.861-6.036-3.924-9.33-2.812zm25.702.965c2.532-3.49 6.987-5.49 11.26-4.343 2.986.518 5.098 2.853 6.637 5.301 1.343-1.79 2.881-3.518 4.931-4.518 3.231-1.651 7.343-1.357 10.386.594 2.721 1.937 3.756 5.462 3.791 8.672.007 6.12-.007 12.239-.007 18.366-1.119-.021-2.231-.056-3.336-.07.035-5.413.014-10.826.021-16.24-.063-2.175-.084-4.532-1.392-6.378-2.084-3.091-6.686-3.518-9.763-1.748-2.728 1.706-3.938 5.078-3.889 8.183.007 5.399.007 10.805.014 16.212-1.168.007-2.336.014-3.497.028-.021-5.658-.007-11.316 0-16.967-.007-2.364-.371-5.022-2.21-6.686-2.923-2.644-8.036-2.378-10.596.657-1.769 2.035-2.308 4.854-2.252 7.483.021 5.175.021 10.344.007 15.519-1.175-.021-2.343-.049-3.511-.056-.091-9.253.315-18.52-.287-27.751 1.203-.007 2.406-.007 3.609-.007l.084 3.749zm69.518-4.266c4.686-1.126 10.176.266 13.078 4.294 4.028 5.469 4.119 13.414.713 19.205-2.826 4.777-9.015 6.672-14.218 5.196-5.315-1.301-8.623-6.616-9.176-11.806-1.076-6.825 2.239-15.316 9.603-16.889m.588 3.259c-7.232 2.874-8.295 13.176-4.238 19.065 2.756 4.357 9.714 4.861 13.029.902 3.972-4.721 4.07-12.267.399-17.184-2.064-2.797-5.931-3.811-9.19-2.783zm28.835-2.658c1.93-1.294 4.371-.909 6.574-.986.014 1.14.021 2.28.042 3.434-1.874-.084-3.882-.35-5.595.587-2.846 1.378-4.077 4.7-4.035 7.7-.014 5.665.014 11.33-.007 16.995-1.175-.014-2.343-.049-3.511-.056-.119-9.253.371-18.527-.35-27.751 1.224-.007 2.462-.007 3.693-.007-.007 1.217-.007 2.441-.014 3.665.916-1.308 1.79-2.742 3.203-3.581zm-216.507-.133c1.441.021 2.888.056 4.329.119 3.07 7.546 5.84 15.233 9.26 22.625 2.832-7.581 6.064-15.009 8.889-22.59 1.315-.07 2.623-.126 3.944-.161-5.036 12.799-10.183 25.555-15.253 38.34h-3.854c1.308-3.56 2.784-7.064 4.154-10.603-3.846-9.231-7.699-18.463-11.469-27.73zm-66.266 27.829c.091-9.288-.154-18.583.119-27.863 1.126.035 2.259.084 3.385.126 0 9.253.007 18.506-.007 27.765a455.809 455.809 0 00-3.497-.028zm63.416 48.169c1.443-4.518 3.109-8.984 4.913-13.381 1.58 4.432 3.212 8.863 4.707 13.329 4.878.24 9.774.275 14.652.309-3.985 3.023-7.919 6.081-11.887 9.138 1.563 4.5 2.937 9.069 4.397 13.604-4.105-2.594-8.073-5.376-12.007-8.228-4.002 2.851-8.039 5.668-12.041 8.537 1.512-4.621 3.006-9.258 4.38-13.931a362.078 362.078 0 00-11.99-9.155c4.965.053 9.912-.067 14.876-.222zm-45 0c1.443-4.518 3.109-8.984 4.913-13.381 1.58 4.432 3.212 8.863 4.707 13.329 4.878.24 9.774.275 14.652.309-3.985 3.023-7.919 6.081-11.887 9.138 1.563 4.5 2.937 9.069 4.397 13.604-4.105-2.594-8.073-5.376-12.007-8.228-4.002 2.851-8.039 5.668-12.041 8.537 1.512-4.621 3.006-9.258 4.38-13.931a362.078 362.078 0 00-11.99-9.155c4.965.053 9.912-.067 14.876-.222zm88 0c1.443-4.518 3.109-8.984 4.913-13.381 1.58 4.432 3.212 8.863 4.707 13.329 4.878.24 9.774.275 14.652.309-3.985 3.023-7.919 6.081-11.887 9.138 1.563 4.5 2.937 9.069 4.397 13.604-4.105-2.594-8.073-5.376-12.007-8.228-4.002 2.851-8.039 5.668-12.041 8.537 1.512-4.621 3.006-9.258 4.38-13.931a362.078 362.078 0 00-11.99-9.155c4.965.053 9.912-.067 14.876-.222zm46 0c1.443-4.518 3.109-8.984 4.913-13.381 1.58 4.432 3.212 8.863 4.707 13.329 4.878.24 9.774.275 14.652.309-3.985 3.023-7.919 6.081-11.887 9.138 1.563 4.5 2.937 9.069 4.397 13.604-4.105-2.594-8.073-5.376-12.007-8.228-4.002 2.851-8.039 5.668-12.041 8.537 1.512-4.621 3.006-9.258 4.38-13.931a362.078 362.078 0 00-11.99-9.155c4.965.053 9.912-.067 14.876-.222zm44 0c1.443-4.518 3.109-8.984 4.913-13.381 1.58 4.432 3.212 8.863 4.707 13.329 4.878.24 9.774.275 14.652.309-3.985 3.023-7.919 6.081-11.887 9.138 1.563 4.5 2.937 9.069 4.397 13.604-4.105-2.594-8.073-5.376-12.007-8.228-4.002 2.851-8.039 5.668-12.041 8.537 1.512-4.621 3.006-9.258 4.38-13.931a362.078 362.078 0 00-11.99-9.155c4.965.053 9.912-.067 14.876-.222z" fill="#010101"/></svg>