<svg xmlns="http://www.w3.org/2000/svg" width="512" height="512"><switch><g><path fill="#F9B617" d="M232.682 115.666h.659c8.88 9.2 18.758 17.361 27.938 26.302 4.65-1.137 9.24-2.455 13.869-3.692-9.24 7.244-18.319 14.687-27.898 21.452-7.503-8.282-13.191-18.279-21.911-25.404-2.794.978-3.911 3.951-5.448 6.206-4.51 8.022-8.381 16.483-14.189 23.687-7.783-6.386-15.346-13.051-22.59-20.036-.06-5.348-2.235-10.277-3.931-15.226.758-.599 2.275-1.796 3.013-2.375 4.769 2.594 9.579 5.169 14.807 6.705 6.306 3.492 12.692 7.064 19.796 8.601 5.089-8.859 10.616-17.459 15.885-26.22zM309.85 126.163c7.703-1.936 15.086-5.109 22.969-6.286-13.031 16.244-24.745 33.546-38.195 49.45 4.59-14.548 9.898-28.876 15.226-43.164z"/><path fill="#F9B617" d="M246.571 171.083c17.98-13.57 35.401-27.898 53.761-40.929-2.395 10.377-6.585 20.195-10.018 30.233-2.415 7.084-6.486 14.368-3.971 22.011-.938.619-2.834 1.876-3.772 2.494-3.572 1.577-5.807 4.869-5.707 8.8-2.554 1.996-5.368 3.692-8.601 4.29-15.925-17.96-44.621-16.104-63.02-3.033-2.455-2.854-4.37-6.067-5.987-9.439-2.135-7.463-5.268-14.608-7.204-22.131 5.468 4.789 10.876 9.718 17.162 13.47 6.106-9.579 11.036-19.856 17.302-29.335 6.744 7.804 12.591 16.385 20.055 23.569z"/><path fill="#F9B617" d="M231.225 191.518c-7.273.726-13.632 4.177-19.666 8.062 1.357.946 2.035 2.573 2.026 4.2.758.004 1.517.016 2.274.011 15.626-1.916 31.231-4.111 46.936-5.169-9.359-5.767-20.534-9.139-31.57-7.104z"/><path fill="#1C1C1B" d="M320.487 105.673c-14.129.26-23.428 13.071-34.703 19.936-9.24 7.244-18.319 14.688-27.898 21.452-7.503-8.282-13.19-18.28-21.911-25.404-2.794.978-3.911 3.951-5.448 6.206-4.51 8.022-8.382 16.483-14.189 23.687-7.783-6.386-15.346-13.052-22.59-20.036-4.051-3.213-8.321-6.146-12.931-8.501 2.455 13.63 6.925 26.761 10.337 40.151 3.617 12.281 6.32 24.854 10.637 36.934a4.476 4.476 0 012.075.971c.067-.036.132-.072.202-.105 3.357-2.878 6.743-5.747 10.195-8.505 4.111-.08 8.182-.639 12.233-1.337-3.493.02-7.005-.06-10.497-.1 7.923-5.268 16.065-11.195 25.863-12.173 11.036-2.036 22.211 1.337 31.57 7.104.619.02 1.836.06 2.455.06l3.013-.698c-15.925-17.96-44.621-16.104-63.02-3.033-2.455-2.854-4.371-6.066-5.987-9.439.379 3.932 1.138 7.823 2.714 11.475-2.156 1.177-4.291 2.335-6.446 3.512-3.931-14.487-8.222-28.895-11.734-43.483 2.834 2.016 5.608 4.111 8.262 6.366 5.468 4.789 10.876 9.718 17.162 13.47 6.107-9.579 11.036-19.856 17.302-29.335 6.745 7.803 12.592 16.384 20.055 23.568 17.98-13.57 35.402-27.898 53.761-40.929-2.395 10.377-6.586 20.195-10.018 30.233-2.414 7.084-6.485 14.368-3.971 22.011l2.614.579c2.095-4.47 3.671-9.14 5.667-13.65 4.59-14.548 9.898-28.876 15.226-43.164.08-2.615.08-5.209 0-7.823z"/><path fill="#1C1C1B" d="M187.123 111.341c7.364 1.636 14.887 4.031 20.514 9.279-5.228-1.537-10.038-4.111-14.807-6.705-.738.579-2.255 1.776-3.013 2.375l-.459.379c-.559-1.337-1.676-3.991-2.235-5.328zM287.5 181.026c-.1-3.931 2.135-7.224 5.707-8.8.519 4.091-2.095 7.284-5.707 8.8zM8.38 224.49c8.781-8.701 24.885-8.381 32.927 1.177 5.109 5.647 5.827 13.59 5.508 20.854-4.57-.04-9.14-.08-13.71-.14-.299-4.37.239-9.718-3.732-12.652-4.47-3.831-12.592-1.297-13.151 4.849-.938 15.984-.04 32.029-.439 48.053.299 4.59-.838 10.157 2.754 13.769 3.612 2.794 9.738 2.475 12.512-1.357 2.455-3.233 1.716-7.523 2.155-11.295 4.59 0 9.18.02 13.769.02.08 7.004-.379 14.647-5.328 20.115-7.803 10.098-24.106 10.676-33.386 2.375-5.348-4.989-6.446-12.712-6.346-19.656.1-16.603-.06-33.206.06-49.809.041-5.986 1.977-12.132 6.407-16.303zM56.692 219.162c4.61-.04 9.239-.04 13.849-.04.14 23.807.02 47.594.04 71.401-.04 3.652.2 7.942 3.532 10.217 4.989 3.752 13.271.319 13.33-6.166.599-25.164-.16-50.348.359-75.532 4.59.06 9.16.1 13.749.14-.239 25.124.12 50.268-.18 75.393.08 11.993-11.295 22.231-23.169 21.392-11.235-.14-21.353-10.038-21.373-21.353-.236-25.144.083-50.308-.137-75.452zM113.646 219.042c4.59.06 9.2.12 13.809.2-.14 27.339-.02 54.659-.08 81.978 8.082.14 16.144.1 24.226.2-.02 4.59-.02 9.18 0 13.769-12.712 0-25.404.02-38.095 0 .06-32.049-.219-64.098.14-96.147zM159.624 219.062c4.59.04 9.16.08 13.749.1-.16 32.049.04 64.078-.1 96.107-4.57-.06-9.14-.08-13.71-.12-.039-32.029-.178-64.058.061-96.087zM186.604 219.182c4.39-.04 8.781-.06 13.191-.08 7.284 19.138 13.49 38.674 21.193 57.632.22-19.217-.12-38.435.14-57.652 4.53.02 9.06.02 13.59 0 .279 32.049.12 64.098.08 96.147-4.33-.04-8.681-.06-13.011-.12-7.184-18.738-13.071-38.036-21.253-56.335-.379 18.679.399 37.417-.339 56.095-4.47.599-9 .399-13.51.399-.181-32.028-.001-64.057-.081-96.086zM262.635 219.202c3.851-.04 7.703-.08 11.554-.1 7.284 31.989 14.328 64.018 21.632 96.007-4.65.08-9.299.06-13.949.02-1.217-6.845-2.634-13.65-3.891-20.475-6.406-.419-12.832-.399-19.217.279-1.118 6.845-2.355 13.67-4.091 20.375-4.53-.08-9.04-.12-13.57-.16 7.224-31.988 14.448-63.957 21.532-95.946m-1.177 62.202c4.61.04 9.239.1 13.849.16-2.335-11.155-4.071-22.45-6.765-33.546-3.472 10.836-4.41 22.33-7.084 33.386zM302.567 219.202c10.098.16 20.295-.898 30.293.758 9.459 1.976 15.406 11.315 15.984 20.514 1.676 11.275-.399 24.805-11.215 30.931 4.39 14.767 9.798 29.195 14.687 43.803-4.949 0-9.898 0-14.847-.239-4.31-13.73-8.242-27.599-13.151-41.109l-7.823.319c-.06 13.67-.06 27.319-.1 40.989-4.59.02-9.18.04-13.749.1-.079-32.028.06-64.057-.079-96.066m13.869 12.672c.02 10.058-.02 20.115-.04 30.193 5.967-.459 14.707 1.776 17.761-5.129 1.756-6.506 2.035-13.889-.299-20.295-3.473-6.146-11.595-4.43-17.422-4.769zM360.917 219.102c4.53 0 9.06-.02 13.59-.06.379 32.049.06 64.118.18 96.166-4.61 0-9.22-.02-13.829-.02.019-32.028-.121-64.057.059-96.086zM389.434 219.142c4.59-.02 9.2-.02 13.789-.04.1 24.526-.12 49.051.1 73.557-.499 5.488 4.47 10.856 10.138 9.419 4.59-.419 7.164-5.208 6.885-9.459.2-24.446.14-48.931 0-73.377 4.57-.1 9.12-.16 13.69-.239.439 24.526.06 49.071.2 73.617.459 8.88-4.809 17.761-13.011 21.333-9.399 4.55-21.712 1.337-27.599-7.324-3.951-5.089-4.39-11.774-4.33-17.96.158-23.17-.122-46.359.138-69.527zM448.682 219.002c4.251.439 9.399-.838 13.171.938 6.865 16.224 11.135 33.506 18.18 49.69 5.987-16.783 11.634-33.705 17.581-50.508 4.57 0 9.12.02 13.69.06v95.907c-4.59.1-9.2.18-13.769.279-1.038-18.858.16-37.756-.639-56.634-5.727 12.712-8.9 26.342-13.829 39.333-2.275-.04-4.55-.1-6.825-.16-4.51-13.35-8.501-26.9-13.41-40.131-.978 19.118-.14 38.275-.419 57.413-4.59.02-9.18.02-13.769.02-.002-32.069-.082-64.138.038-96.207z"/><g fill="#191818"><path d="M27.307 358.294a12.358 12.358 0 00-2.241-.461 23.911 23.911 0 00-2.856-.154 11.45 11.45 0 00-5.405 1.34c-1.699.895-3.252 2.278-4.658 4.153V392H.984v-43.022h10.854v6.636c1.699-2.578 3.574-4.489 5.625-5.735 2.05-1.244 4.189-1.867 6.416-1.867.556 0 1.113.021 1.67.066.556.043 1.143.124 1.758.241v9.975zM56.713 393.011c-3.545 0-6.687-.521-9.426-1.561-2.74-1.039-5.047-2.526-6.921-4.46-1.875-1.934-3.311-4.292-4.307-7.075-.996-2.783-1.494-5.918-1.494-9.404 0-3.545.49-6.709 1.472-9.492.981-2.783 2.395-5.142 4.241-7.075s4.094-3.405 6.746-4.417c2.651-1.01 5.676-1.516 9.075-1.516 3.252 0 6.189.483 8.811 1.45s4.863 2.396 6.724 4.284c1.86 1.891 3.289 4.219 4.285 6.988.996 2.768 1.494 5.925 1.494 9.47v2.681H46.035c.088 2.256.417 4.197.989 5.822.571 1.627 1.325 2.96 2.263 4s2.036 1.809 3.296 2.307c1.259.498 2.637.747 4.131.747 2.314 0 4.277-.498 5.889-1.494 1.611-.996 2.783-2.71 3.516-5.142h10.415c-.411 2.227-1.18 4.204-2.307 5.933a15.7 15.7 0 01-4.263 4.372c-1.714 1.188-3.691 2.081-5.933 2.682-2.242.599-4.681.9-7.318.9zm9.405-26.939c-.439-3.75-1.531-6.548-3.274-8.394s-3.992-2.769-6.746-2.769c-2.725 0-4.959.923-6.702 2.769s-2.834 4.644-3.274 8.394h19.996zM128 389.1c0 6.943-1.699 12.07-5.098 15.381s-8.541 4.966-15.425 4.966c-3.135 0-5.874-.322-8.218-.967-2.344-.645-4.285-1.567-5.823-2.769s-2.696-2.622-3.472-4.263-1.165-3.472-1.165-5.493h10.723c.176 2.109.886 3.684 2.131 4.724 1.245 1.04 3.274 1.561 6.086 1.561 1.934 0 3.508-.308 4.724-.923 1.215-.615 2.16-1.479 2.834-2.593.674-1.113 1.135-2.469 1.384-4.064.249-1.598.374-3.377.374-5.34v-2.813c-3.604 4.102-7.778 6.152-12.524 6.152-2.784 0-5.245-.491-7.383-1.473a14.629 14.629 0 01-5.427-4.262c-1.479-1.86-2.6-4.146-3.362-6.855-.762-2.71-1.143-5.794-1.143-9.251 0-3.223.396-6.226 1.187-9.009s1.94-5.192 3.45-7.229a16.282 16.282 0 015.647-4.813c2.256-1.172 4.863-1.758 7.822-1.758 2.373 0 4.526.337 6.46 1.011s3.735 1.743 5.405 3.208v-3.252H128V389.1zm-11.118-28.96c-2.637-2.637-5.684-3.955-9.141-3.955-2.813 0-5.039 1.18-6.68 3.537-1.641 2.359-2.461 6.058-2.461 11.097 0 4.453.725 7.837 2.175 10.151s3.596 3.472 6.438 3.472c1.787 0 3.479-.534 5.076-1.604 1.597-1.068 3.127-2.614 4.592-4.636l.001-18.062zM153.935 341.771h-11.162v-9.492h11.162v9.492zm0 50.229h-11.162v-43.022h11.162V392zM187.78 348.011c3.252 0 6.196.483 8.833 1.45 2.637.967 4.885 2.402 6.746 4.307s3.296 4.256 4.307 7.054 1.517 6.027 1.517 9.689c0 3.633-.506 6.849-1.517 9.646s-2.446 5.148-4.307 7.053-4.108 3.348-6.746 4.328c-2.637.981-5.581 1.473-8.833 1.473-3.281 0-6.248-.491-8.899-1.473-2.652-.98-4.907-2.424-6.768-4.328-1.861-1.904-3.303-4.255-4.329-7.053s-1.538-6.014-1.538-9.646c0-3.662.512-6.892 1.538-9.689 1.025-2.798 2.468-5.149 4.329-7.054 1.86-1.904 4.116-3.34 6.768-4.307 2.651-.967 5.618-1.45 8.899-1.45zm0 36.782c1.494 0 2.863-.293 4.109-.879 1.245-.586 2.307-1.465 3.186-2.637s1.553-2.651 2.021-4.438c.469-1.787.703-3.896.703-6.328s-.234-4.549-.703-6.35c-.468-1.803-1.142-3.289-2.021-4.461s-1.941-2.051-3.186-2.637c-1.246-.586-2.615-.879-4.109-.879-1.553 0-2.952.293-4.197.879-1.246.586-2.307 1.465-3.186 2.637s-1.56 2.658-2.043 4.461c-.483 1.801-.725 3.918-.725 6.35s.242 4.541.725 6.328 1.165 3.267 2.043 4.438 1.94 2.051 3.186 2.637c1.245.586 2.644.879 4.197.879z"/></g><g fill="#191818"><path d="M287.857 388.771c0 12.035-5.421 18.053-16.262 18.053-2.337 0-4.443-.261-6.322-.78-1.88-.521-3.473-1.271-4.78-2.248s-2.317-2.17-3.028-3.58c-.71-1.408-1.066-3.002-1.066-4.779h6.894c0 4.113 2.703 6.17 8.111 6.17 1.574 0 2.971-.19 4.189-.571s2.248-1.048 3.086-1.999c.838-.953 1.472-2.235 1.904-3.848.432-1.612.646-3.662.646-6.15v-1.79c-3.047 3.555-6.602 5.332-10.664 5.332-2.488 0-4.69-.457-6.607-1.371-1.918-.914-3.523-2.215-4.818-3.903s-2.279-3.72-2.951-6.094c-.673-2.374-1.009-5.009-1.009-7.903 0-3.072.406-5.833 1.219-8.284.812-2.449 1.923-4.531 3.333-6.246 1.409-1.713 3.071-3.027 4.989-3.941 1.917-.914 3.992-1.371 6.227-1.371 3.986 0 7.414 1.257 10.283 3.771v-2.856h6.627v34.388h-.001zm-6.627-7.883v-17.672c-2.971-3.021-6.259-4.532-9.863-4.532-1.423 0-2.705.305-3.848.914s-2.119 1.523-2.932 2.742c-.813 1.219-1.441 2.742-1.886 4.57s-.667 3.961-.667 6.398c0 4.596.801 8.081 2.4 10.454 1.6 2.375 3.82 3.562 6.664 3.562 1.828 0 3.594-.526 5.295-1.581 1.702-1.053 3.314-2.672 4.837-4.855zM321.297 387.896c-3.479 3.123-7.846 4.685-13.102 4.685-1.803 0-3.472-.261-5.008-.78-1.537-.521-2.875-1.251-4.018-2.19s-2.038-2.069-2.686-3.39-.971-2.793-.971-4.418c0-8.734 7.502-13.102 22.508-13.102h3.275c0-1.6-.051-3.021-.152-4.266s-.432-2.291-.99-3.143c-.559-.85-1.447-1.497-2.666-1.941s-2.932-.667-5.141-.667c-5.891 0-8.938 2.12-9.141 6.36h-6.703c.481-7.719 5.89-11.578 16.225-11.578 2.336 0 4.442.203 6.322.609 1.879.406 3.471 1.143 4.779 2.209 1.308 1.066 2.316 2.514 3.027 4.342s1.066 4.151 1.066 6.97v24.07h-6.627v-3.77h.003zm0-6.018v-8.303h-4.607c-9.623 0-14.436 2.615-14.436 7.846 0 1.904.718 3.364 2.152 4.38 1.434 1.016 3.332 1.523 5.693 1.523 1.092 0 2.178-.127 3.257-.381s2.107-.615 3.085-1.085a13.52 13.52 0 002.704-1.715 11.998 11.998 0 002.152-2.265zM357.098 360.436c-.965-.305-2.311-.457-4.037-.457s-3.307.444-4.741 1.333-2.774 2.209-4.019 3.961v26.394h-6.588V354.38h6.588v5.142c2.818-4.037 6.081-6.056 9.789-6.056.432 0 .907.025 1.428.076.52.051 1.047.127 1.58.229v6.665zM385.32 387.896c-3.479 3.123-7.846 4.685-13.102 4.685-1.804 0-3.473-.261-5.009-.78-1.536-.521-2.876-1.251-4.019-2.19s-2.037-2.069-2.685-3.39-.972-2.793-.972-4.418c0-8.734 7.504-13.102 22.51-13.102h3.275c0-1.6-.052-3.021-.152-4.266-.102-1.244-.433-2.291-.99-3.143-.559-.85-1.447-1.497-2.666-1.941s-2.934-.667-5.143-.667c-5.891 0-8.938 2.12-9.141 6.36h-6.703c.482-7.719 5.891-11.578 16.225-11.578 2.336 0 4.443.203 6.322.609s3.473 1.143 4.78 2.209 2.317 2.514 3.028 4.342c.71 1.828 1.066 4.151 1.066 6.97v24.07h-6.627v-3.77h.003zm0-6.018v-8.303h-4.609c-9.623 0-14.434 2.615-14.434 7.846 0 1.904.717 3.364 2.151 4.38s3.333 1.523 5.694 1.523c1.091 0 2.176-.127 3.256-.381 1.079-.254 2.107-.615 3.085-1.085s1.879-1.041 2.704-1.715a12.035 12.035 0 002.153-2.265zM408.324 359.103c1.65-1.904 3.408-3.319 5.274-4.246s3.814-1.391 5.847-1.391c8.455 0 12.682 4.596 12.682 13.787v24.413h-6.703v-24.07c0-3.072-.539-5.274-1.618-6.608-1.079-1.332-2.837-1.999-5.274-1.999-3.377 0-6.779 1.98-10.207 5.941v26.736h-6.59V354.38h6.59v4.723h-.001zM456.273 391.704c-1.396.33-2.983.495-4.76.495-1.98 0-3.549-.241-4.704-.724s-2.038-1.199-2.647-2.152c-.609-.951-1.003-2.145-1.18-3.58-.178-1.434-.268-3.104-.268-5.008v-21.214h-4.607v-5.142h4.607v-9.293h6.627v9.293h6.094v5.142h-6.094v21.519c0 1.32.082 2.368.248 3.143.165.774.406 1.371.724 1.789.317.42.698.692 1.143.819s.946.19 1.505.19c.584 0 1.154-.025 1.713-.076s1.092-.114 1.6-.19v4.989h-.001zM468.424 347.334h-6.589v-7.198h6.589v7.198zm0 44.332h-6.589V354.38h6.589v37.286zM494.018 392.58c-2.717 0-5.192-.438-7.427-1.313-2.234-.877-4.151-2.152-5.751-3.828s-2.838-3.726-3.713-6.15c-.877-2.425-1.314-5.187-1.314-8.284 0-3.047.425-5.776 1.275-8.188s2.051-4.456 3.6-6.132 3.396-2.964 5.541-3.866c2.146-.9 4.514-1.352 7.104-1.352 2.691 0 5.116.444 7.274 1.333s3.999 2.171 5.522 3.847 2.691 3.72 3.504 6.132 1.219 5.154 1.219 8.227v1.6h-28.107c.152 2.158.539 4.037 1.162 5.637.621 1.6 1.428 2.92 2.418 3.961s2.139 1.822 3.447 2.343c1.307.521 2.723.78 4.246.78 1.092 0 2.184-.146 3.275-.438a10.109 10.109 0 002.951-1.295 7.078 7.078 0 002.133-2.133c.546-.85.832-1.821.857-2.913h6.97c-.279 1.93-.883 3.644-1.81 5.142s-2.101 2.755-3.522 3.771-3.06 1.79-4.913 2.323-3.834.796-5.941.796zm9.826-23.194c-.279-1.777-.724-3.332-1.333-4.666-.609-1.332-1.371-2.443-2.285-3.332s-1.955-1.562-3.123-2.019-2.425-.686-3.771-.686-2.597.216-3.752.647-2.189 1.092-3.104 1.98-1.688 2.006-2.323 3.352-1.079 2.92-1.333 4.723h21.024v.001z"/></g><circle cx="232.5" cy="373" r="11" fill="#E30513"/><path fill="#FFF" d="M165 95.5v119h24.432c.568-2.26 2.524-3.952 4.818-3.967a67.788 67.788 0 002.427-.067c.771-1.346 2.126-2.313 4.073-2.313 1.303 0 2.323.451 3.099 1.141.299-.172.629-.308.983-.411.793-1.209 2.098-2.052 3.918-2.052 4.224 0 5.68 4.538 4.371 7.669H362.5v-119H165z"/><path fill="#FEC201" d="M188.167 113.833l31.666 79.334 63.334-7 59.333-77.334-69 22.667-29.667-26.667-17 26.667z"/><path d="M275.75 188.5S238 163.25 204.5 202.25L181.25 126s29 17.75 34.25 26.25.838-.7.838-.7l19.637-29.893 21.911 25.404 60.864-39.811-18 64.75s-6-2.75-5.75-8.25L310.5 120l-53 39.5-20.25-23-16.5 28L195 145.75l11.75 43.75s40.75-33.5 69.5-4.75c0 0 1.75 2.5-.5 3.75z"/><path d="M235.975 121.657L215.5 152.25l3.25 6.25z"/><path d="M182.194 126.58L218.75 152l-1.75 7.75z"/><path fill="none" stroke="#FFD85A" stroke-miterlimit="10" d="M198.167 136.5l18.666 13.667 19.142-28.51 21.911 25.404 29.614-19.894"/><path fill="none" stroke="#FFD757" stroke-miterlimit="10" d="M204.5 154.167l15.351 11.016L237.25 137.5l19.958 21.916L310.5 121 295 164.75"/></g></switch></svg>