<?xml version="1.0" encoding="utf-8"?>
<!-- Generator: Adobe Illustrator 17.0.0, SVG Export Plug-In . SVG Version: 6.00 Build 0)  -->
<!DOCTYPE svg PUBLIC "-//W3C//DTD SVG 1.1//EN" "http://www.w3.org/Graphics/SVG/1.1/DTD/svg11.dtd">
<svg version="1.1" id="Layer_1" xmlns="http://www.w3.org/2000/svg" xmlns:xlink="http://www.w3.org/1999/xlink" x="0px" y="0px"
	 width="512px" height="512px" viewBox="0 0 512 512" enable-background="new 0 0 512 512" xml:space="preserve">
<g id="_x23_e20219ff">
	<path fill="#E21F26" d="M383.503,18.283h18.062c13.535,2.775,26.979,7.325,38.49,15.105c13.171,10.51,19.927,26.729,25.387,42.198
		c3.23,8.212,2.639,18.585,10.123,24.545c15.742,14.036,30.255,30.596,36.351,51.206v22.725
		c-2.912,14.331-8.94,28.299-18.949,39.104c-15.287,17.016-37.375,25.478-59.259,30.164c-0.227,43.267-0.091,86.556-0.068,129.846
		c0.5,8.167-3.776,15.787-10.009,20.837c-14.445,12.17-33.576,16.083-51.706,19.245c-28.731,4.004-58.531,2.821-86.26-6.187
		c0.045-8.28,0.023-16.538-0.046-24.818c22.816,8.894,47.68,9.918,71.838,8.258c16.288-1.661,32.325-6.074,46.861-13.672
		c0.023-2.502,0.046-5.005,0.046-7.507c-22.225-10.942-47.543-15.15-72.179-13.717c-16.06,0.819-31.233,6.529-46.383,11.351
		c-0.091-8.076-0.114-16.151-0.205-24.227c9.372-3.185,18.813-6.347,28.685-7.461c30.937-4.026,63.49-2.684,92.311,10.237
		c0.296-41.72,0.046-83.44,0.068-125.16c19.199-2.002,37.989-8.235,54.322-18.54c13.08-8.69,23.59-23.885,21.77-40.173
		c-2.343-11.806-10.1-21.542-17.493-30.687c-6.802-8.394-17.243-14.741-19.313-26.137c-4.436-17.516-10.305-36.238-25.091-47.885
		c-17.061-11.783-41.788-15.4-59.532-3.048c-7.12,4.163-14.513,10.669-23.43,8.553c-11.328-2.798-19.677-12.261-31.074-15.036
		c-15.423-3.298-31.961,0.637-44.859,9.531c-8.712,6.096-12.762,16.356-19.723,24.045c-8.144,8.258-25.546-0.682-21.497-12.284
		c6.187-15.036,14.309-31.438,29.868-38.603c14.104-6.642,29.39-12.853,45.337-11.033c16.356,1.342,29.004,14.24,45.269,15.764
		C356.546,33.001,368.58,21.695,383.503,18.283z"/>
	<path fill="#E21F26" d="M198.334,102.792c11.806-6.096,25.637-8.076,38.535-4.641c14.559,4.026,30.323,8.508,40.491,20.45
		c13.444,15.628,18.358,36.124,23.749,55.391c15.764,15.582,33.667,31.21,40.014,53.299c3.64,19.359,0.114,40.514-11.601,56.643
		c-14.923,21.383-40.059,33.098-65.037,38.012c-0.023,42.926,0.091,85.828-0.046,128.754c0.569,10.896-6.688,20.178-15.56,25.637
		c-16.674,9.964-35.851,14.468-54.868,17.379H151.7c-19.563-2.661-39.263-7.643-56.142-18.198
		c-8.621-5.278-14.991-14.65-14.581-25.023c0.023-42.675,0-85.351,0-128.026c-24.158-4.413-48.203-15.196-64.218-34.349
		c-9.167-11.078-14.581-24.909-16.674-39.058v-16.106c4.481-18.767,16.606-34.713,30.892-47.248
		c4.459-4.481,10.714-8.03,12.216-14.627c6.324-21.565,12.557-45.837,31.62-59.873c16.583-10.259,36.92-15.287,56.301-11.943
		c12.056,2.229,22.43,9.213,33.895,13.148C177.201,116.304,187.779,107.296,198.334,102.792 M90.963,136.436
		c-16.515,13.876-20.541,36.033-26.297,55.619c-12.739,13.831-27.684,27.093-33.508,45.633c-3.23,14.149,4.117,28.367,14.377,37.716
		c17.084,14.513,39.24,21.019,60.942,24.75c0.387,3.799,0.796,7.621,0.887,11.442c0.159,37.398-0.136,74.773,0.182,112.17
		c16.674-5.937,33.94-10.76,51.706-11.465c26.615-3.139,53.094,3.025,78.276,11.169c0.091-41.447,0.068-82.894,0.023-124.318
		c22.316-4.14,45.883-9.895,62.785-26.092c9.986-9.736,15.491-24.386,11.67-38.148c-6.574-17.971-21.838-30.255-33.167-44.996
		c-6.278-19.177-10.555-41.288-27.639-54.231c-13.626-7.393-29.891-14.513-45.519-9.44c-10.805,3.116-19.04,11.374-29.208,15.787
		c-11.988,3.89-20.86-7.689-30.869-12.079C128.202,119.557,106.75,126.245,90.963,136.436 M115.372,445.354
		c-3.162,1.547-7.484,4.641-5.05,8.621c4.117,3.913,9.486,6.051,14.741,7.985c30.846,9.691,64.559,9.418,95.314-0.5
		c6.324-1.865,11.943-5.505,16.06-10.646c-17.925-13.99-41.606-15.423-63.399-16.902
		C153.452,434.708,133.115,436.324,115.372,445.354z"/>
	<path fill="#E21F26" d="M120.399,184.003c5.505-3.412,6.483-10.396,10.305-15.173c6.733-1.82,13.876-0.66,20.746-0.296
		c0,44.177,0.023,88.353,0,132.507c-10.055,0.25-20.087,0.25-30.118,0.068c-0.159-29.413,0.546-58.849-0.364-88.24
		c-6.574,0.045-13.148,0.023-19.7-0.023c-0.068-7.598-0.046-15.196-0.205-22.794C107.66,188.689,114.78,188.097,120.399,184.003z"/>
	<path fill="#E21F26" d="M166.805,168.193c21.269-0.364,42.562-0.205,63.854-0.091c-0.046,9.054-0.068,18.107-0.023,27.184
		c-13.672,1.342-27.389,0.432-41.083,0.933c0.159,7.348,0.25,14.695,0.159,22.043c6.893-7.097,16.47-12.443,26.592-8.894
		c13.444,2.548,17.357,17.857,18.722,29.481c0.796,17.175,2.161,35.555-6.074,51.297c-5.346,10.305-17.721,14.263-28.662,13.876
		c-10.032,0.409-20.86-2.252-27.571-10.191c-7.803-9.145-8.553-21.679-8.349-33.121c9.349,0.068,18.699,0.296,28.048-0.045
		c0.705,6.005,1.638,11.988,2.639,17.971c2.934,0.114,5.869,0.227,8.803,0.341c3.276-14.217,3.139-29.368-0.318-43.562
		c-2.775,0-5.551,0-8.303,0.023c-0.864,3.207-1.706,6.415-2.548,9.622c-8.667,0-17.334,0.045-25.978,0.091
		C166.691,219.512,166.509,193.852,166.805,168.193z"/>
</g>
</svg>
