<?xml version="1.0" encoding="utf-8"?>
<!-- Generator: Adobe Illustrator 17.0.0, SVG Export Plug-In . SVG Version: 6.00 Build 0)  -->
<!DOCTYPE svg PUBLIC "-//W3C//DTD SVG 1.1//EN" "http://www.w3.org/Graphics/SVG/1.1/DTD/svg11.dtd">
<svg version="1.1" id="Layer_1" xmlns="http://www.w3.org/2000/svg" xmlns:xlink="http://www.w3.org/1999/xlink" x="0px" y="0px"
	 width="512px" height="512px" viewBox="0 0 512 512" enable-background="new 0 0 512 512" xml:space="preserve">
<g id="_x23_e2021aff">
	<path fill="#E21F26" d="M312.849,1.32h20.755c18.764,5.386,38.553,10.948,53.863,23.624c17.71,18.355,27.107,43.179,32.201,67.798
		c1.552,10.304,11.065,15.954,17.74,22.863c17.096,16.335,33.05,35.948,38.143,59.572v26.639
		c-4.977,27.488-21.516,52.751-45.403,67.446c-16.042,10.89-34.718,17.096-53.658,20.609c-0.79,7.201-1.317,14.432-1.347,21.692
		c0,48.828,0.117,97.657-0.029,146.485c0.995,14.549-11.124,25.322-22.541,32.113c-22.921,12.383-48.887,18.823-74.794,20.521
		h-52.136c-25.878-6.147-54.244-11.095-74.53-29.713c-7.172-6.557-11.739-15.808-10.978-25.702
		c0-50.877-0.117-101.755,0.117-152.632c-0.293-4.303,1.171-10.246-4.45-11.622c-16.979-5.738-34.894-9.602-49.941-20.023
		c-26.697-14.695-44.496-42.388-49.414-72.189v-23.624c6.85-24.414,22.95-45.315,42.154-61.474
		c5.855-5.211,13.261-10.099,14.256-18.589c4.596-21.838,12.5-43.383,25.79-61.474c9.865-13.524,25.907-20.169,41.217-25.527
		c15.369-5.328,32.377-7.699,48.184-2.576c15.632,3.923,28.659,14.842,44.701,17.388C274.355,20.553,291.626,5.243,312.849,1.32
		 M152.781,53.251c-19.525,16.218-25.556,42.095-31.645,65.544c-1.054,6.469-6.235,10.773-10.597,15.134
		c-12.588,12.002-23.975,25.644-31.645,41.334c-7.904,16.305-2.225,36.27,9.719,49.063c21.34,23.946,53.98,32.64,84.308,38.7
		c0.644,52.985-0.263,105.97,0.41,158.985c52.722-21.926,113.786-21.428,166.889-1.025c2.752-52.722,0.205-105.619,1.376-158.37
		c4.508-3.132,10.48-2.927,15.661-4.479c26.785-6.177,55.386-16.13,71.867-39.636c9.66-11.827,9.397-28.425,6.235-42.564
		c-9.221-20.492-25.731-36.211-40.515-52.634c-8.46-23.916-13.144-51.843-33.606-69.144c-16.422-12.324-37.997-18.706-58.43-15.252
		c-18.559,2.81-30.562,21.721-49.765,21.984c-15.427-3.776-25.761-17.974-41.393-21.311C191.247,34.78,169.38,40.986,152.781,53.251
		 M181.206,450.698c-4.303,1.288-4.04,5.503-3.484,9.133c11.417,9.602,26.522,12.734,40.807,15.427
		c19.145,3.103,38.758,5.796,58.108,2.781c20.755-2.898,42.564-5.679,60.304-17.798c0.059-1.815,0.176-5.474,0.234-7.318
		c-20.491-12.061-44.349-17.535-67.973-17.974C239.343,433.134,207.786,435.915,181.206,450.698z"/>
	<path fill="#E21F26" d="M202.107,93.268c8.811-0.059,17.623-0.117,26.405-0.176c-0.117,56.615,0.176,113.23-0.117,169.845
		c-12.793-0.351-25.556-0.293-38.319-0.117c-0.673-37.821,0.088-75.643-0.468-113.435c-8.197-0.029-16.422-0.205-24.648-0.088
		c-0.498-9.865-0.498-19.76-0.176-29.625c9.514-1.522,20.696-1.493,27.751-9.104C197.511,105.973,199.678,99.386,202.107,93.268z"/>
	<path fill="#E21F26" d="M269.554,96.752c15.603-5.064,33.255-5.094,48.74,0.439c13.964,8.606,17.828,26.434,17.74,41.744
		c-0.234,13.027-4.069,28.425-16.949,34.455c8.519,5.884,16.481,13.846,18.15,24.531c3.718,18.559,1.581,40.163-10.978,55.122
		c-11.27,13.641-30.913,13.437-46.984,11.856c-13.466-1.112-24.59-11.358-29.42-23.565c-4.479-9.836-4.098-20.814-3.806-31.352
		c12.441,0.117,24.883,0.088,37.324,0.059c-0.029,8.46,0.41,16.979,2.459,25.263c4.625-0.849,12.617,0.585,12.793-6.265
		c1.317-10.773,1.551-21.926-0.556-32.64c-3.396-6.499-12.09-4.889-18.15-6.382c0.088-9.368,0.088-18.735,0.234-28.103
		c4.567-0.351,9.192-0.615,13.671-1.551c6.001-7.699,5.357-17.974,4.83-27.166c0.381-5.386-4.45-8.577-7.523-12.236
		c-7.992,5.094-8.431,14.373-9.514,22.833c-11.358-0.176-22.687-0.176-34.016-0.088C247.716,126.142,252.194,105.124,269.554,96.752
		z"/>
</g>
</svg>
