<?xml version="1.0" encoding="utf-8"?>
<!-- Generator: Adobe Illustrator 17.0.0, SVG Export Plug-In . SVG Version: 6.00 Build 0)  -->
<!DOCTYPE svg PUBLIC "-//W3C//DTD SVG 1.1//EN" "http://www.w3.org/Graphics/SVG/1.1/DTD/svg11.dtd">
<svg version="1.1" id="Layer_1" xmlns="http://www.w3.org/2000/svg" xmlns:xlink="http://www.w3.org/1999/xlink" x="0px" y="0px"
	 width="512px" height="512px" viewBox="0 0 512 512" enable-background="new 0 0 512 512" xml:space="preserve">
<g id="_x23_d60315ff">
	<path fill="#D62027" d="M292.426,3.014h13.632c11.242,2.567,20.448,10.733,31.823,12.548c11.53-1.306,20.736-9.715,31.867-12.548
		h17.483c12.26,4.913,26.334,9.095,33.659,21.09c8.188,11.109,9.538,25.361,15.447,37.422c12.238,12.083,25.56,24.564,29.897,41.936
		v15.779c-3.806,13.831-11.087,27.087-22.927,35.585c-12.371,9.051-26.821,16.752-42.268,18.124
		c-5.178-5.201-9.981-10.755-15.447-15.646c17.615-5.023,36.559-10.246,49.46-24.144c7.812-8.144,11.53-21.223,5.754-31.535
		c-4.957-11.353-15.159-18.921-22.24-28.725c-3.917-9.626-5.267-20.249-10.689-29.278c-6.55-12.57-21.045-18.766-34.589-19.673
		c-12.016-0.907-21.311,7.812-32,11.53c-7.989,1.726-14.451-4.714-21.333-7.613c-14.606-8.232-32.531-2.08-45.101,7.148
		c-9.671,6.639-12.326,18.589-15.823,29.012c-3.674,0.885-7.591,3.275-11.33,1.394c-5.311-2.235-5.156-8.852-4.315-13.588
		c1.97-10.335,7.126-19.828,13.366-28.193C265.095,12.021,279.258,6.887,292.426,3.014z"/>
	<path fill="#D62027" d="M157.721,71.838c14.34-3.607,27.751,3.585,40.276,9.494c11.065,4.537,20.536-4.492,30.251-8.188
		c14.849-6.44,31.469-1.593,45.189,5.378c12.238,5.975,19.386,18.434,24.808,30.362c4.957,11.862,9.118,24.608,8.166,37.621
		c-0.266,4.913-5.378,9.427-10.313,7.391c-6.683-2.08-7.126-9.936-8.498-15.624c-2.788-14.672-9.095-30.097-22.24-38.351
		c-12.039-7.613-28.127-12.415-41.449-5.156c-6.882,2.877-12.968,9.405-20.913,8.431c-11.22-3.674-20.669-13.455-33.305-12.061
		c-10.622,1.461-22.152,4.603-29.189,13.3c-9.339,10.423-11.242,24.808-16.155,37.422c-9.007,11.353-22.063,20.824-24.874,35.961
		c0.044,8.763,7.591,17.239,3.01,25.98c-1.704,6.639-10.976,8.498-15.513,3.674c-3.718-3.541-4.891-8.786-6.418-13.499
		c-2.722-9.383-4.869-19.74-0.974-29.101c4.846-13.654,15.712-23.745,26.113-33.283c3.718-3.01,4.138-7.967,5.466-12.216
		c3.563-13.234,8.476-27.109,19.164-36.315C138.314,77.105,148.006,73.763,157.721,71.838z"/>
	<path fill="#D62027" d="M230.374,167.771c11.729-6.064,25.073-10.6,38.44-8.542c11.198,1.682,20.16,10.18,31.446,11.33
		c11.176-1.815,20.05-10.335,31.38-11.795c14.495-1.793,29.61,2.102,41.648,10.313c14.052,10.888,18.412,29.123,23.369,45.3
		c8.586,10.423,19.939,18.832,25.87,31.336c10.999,20.603,2.988,47.646-14.318,62.229c-10.888,9.383-24.697,14.407-38.572,17.372
		c-1.173,32.708,0.221,65.46-0.708,98.168c-0.221,10.667-10.158,17.173-18.855,21.134c-22.55,9.582-47.823,10.29-71.833,7.524
		c-6.373-1.571-14.03-1.416-19.275-5.355c-0.553-5.975-0.155-11.994-0.221-17.969c22.108,8.21,46.694,8.675,69.532,3.253
		c7.458-2.014,15.712-4.005,20.559-10.578c-12.481-9.626-28.99-11.441-44.215-12.57c-15.801-1.217-31.115,3.452-45.875,8.454
		c0.044-5.931,0.044-11.884-0.066-17.815c28.68-10.667,61.322-9.56,89.714,1.571c0.332-27.242,0.066-54.506,0.089-81.77
		c-0.044-3.74,0.553-7.458,1.217-11.109c17.018-2.545,35.076-7.502,47.314-20.382c7.502-7.48,10.999-19.585,6.44-29.499
		c-4.913-11.862-15.115-20.116-23.059-29.787c-4.426-11.596-6.219-24.564-14.119-34.633c-11.353-14.65-34.39-20.271-50.301-9.759
		c-6.595,3.054-13.698,10.113-21.289,5.887c-9.051-4.05-17.106-11.419-27.552-11.33c-13.256,0.155-27.773,5.577-34.766,17.505
		c-3.054,3.983-5.178,9.892-10.689,10.932c-6.993,1.593-13.831-6.041-11.109-12.835
		C214.905,184.235,220.327,173.303,230.374,167.771z"/>
	<path fill="#D62027" d="M197.422,219.067c14.296-6.086,30.296-1.328,43.596,5.112c13.588,6.152,20.249,20.78,24.542,34.213
		c2.39,6.44,2.7,14.229,8.077,19.098c8.608,8.365,17.615,16.774,22.971,27.729c8.343,15.247,4.625,34.412-3.961,48.752
		c-10.888,17.062-30.473,25.494-49.394,30.274c-1.859,24.099-0.664,48.309-0.797,72.431c0.111,13.344,4.271,30.805-8.321,40.011
		c-13.853,10.025-31.358,13.433-48.044,15.314h-24.011c-17.483-2.169-36.448-5.51-50.013-17.66
		c-8.476-7.17-5.555-19.142-6.019-28.813c-0.398-26.932,0.974-53.908-0.708-80.774c-16.243-4.116-32.774-10.313-44.503-22.816
		c-8.1-8.166-12.68-19.12-15.07-30.229v-15.867c4.869-16.531,17.682-28.459,29.632-40.011c5.887-10.954,6.86-24.055,13.787-34.633
		c7.856-16,26.334-22.24,42.888-24.055c13.057-1.084,24.232,6.727,36.072,10.711C178.966,231.15,187.862,222.431,197.422,219.067
		 M113.749,245.8c-12.813,10.047-15.447,27.131-20.271,41.648c-8.653,10.202-19.563,19.164-24.188,32.155
		c-3.01,10.467,1.35,22.063,9.494,29.012c12.614,11.33,29.477,16.487,45.919,19.12c2.434,30.384,0.221,60.968,1.217,91.44
		c30.96-10.976,65.549-11.353,96.398,0.332c0.752-30.849-0.952-61.764,0.841-92.569c15.823-2.766,32.398-6.949,44.68-17.903
		c7.701-6.573,12.725-17.062,10.954-27.264c-3.961-15.026-17.084-24.498-25.582-36.713c-3.209-9.87-5.444-20.205-11.065-29.101
		c-6.772-12.459-21.444-17.66-34.788-18.921c-12.216-0.243-21.023,9.472-31.734,13.543c-9.361,0.929-15.889-7.524-24.077-10.578
		C139.11,233.894,124.682,238.807,113.749,245.8 M127.935,477.5c0.332,2.545-0.177,5.798,2.81,6.949
		c9.804,5.555,21.333,7.236,32.354,8.719c19.275,1.106,39.922-0.42,56.896-10.445c-0.022-1.284-0.066-3.828-0.089-5.112
		C191.469,463.868,156.416,463.757,127.935,477.5z"/>
	<path fill="#D62027" d="M176.51,273.086c11.198-7.613,29.234-7.347,38.24,3.629c7.635,11.176,6.794,25.427,6.927,38.329
		c-0.332,14.495,1.284,30.229-6.263,43.33c-7.657,12.083-24.719,12.437-36.691,7.391c-8.675-4.116-10.512-14.517-10.689-23.148
		c6.705-0.221,13.411-0.177,20.116-0.066c0.885,2.456,1.748,4.913,2.656,7.369c2.191,0.066,4.36,0.155,6.55,0.243
		c0.996-6.329,1.66-12.68,1.638-19.076c-6.241,2.633-13.189,6.949-20.05,3.762c-9.029-2.965-11.618-13.543-12.282-21.931
		C166.131,299.354,165.467,283.001,176.51,273.086 M190.606,289.241c-1.859,8.83-3.076,18.412-0.044,27.131
		c1.859,4.581,7.812,1.35,8.431-2.39c1.173-8.188,1.217-16.774-1.151-24.763C195.431,289.241,193.019,289.241,190.606,289.241z"/>
	<path fill="#D62027" d="M142.208,271.582c5.112-0.111,10.202-0.133,15.292-0.066c-0.044,31.823,0.022,63.668-0.022,95.49
		c-7.325,0.066-14.65,0.044-21.953-0.089c-0.288-20.78,0.31-41.582-0.31-62.384c-5.046-0.354-10.091-0.863-15.137-1.261
		c0.066-5.687,0.089-11.375,0.155-17.062c5.001-0.664,10.445-0.575,14.761-3.607C138.269,279.57,140.195,275.476,142.208,271.582z"
		/>
</g>
</svg>
