<?xml version="1.0" encoding="utf-8"?>
<!-- Generator: Adobe Illustrator 17.0.0, SVG Export Plug-In . SVG Version: 6.00 Build 0)  -->
<!DOCTYPE svg PUBLIC "-//W3C//DTD SVG 1.1//EN" "http://www.w3.org/Graphics/SVG/1.1/DTD/svg11.dtd">
<svg version="1.1" id="Layer_1" xmlns="http://www.w3.org/2000/svg" xmlns:xlink="http://www.w3.org/1999/xlink" x="0px" y="0px"
	 width="512px" height="512px" viewBox="0 0 512 512" enable-background="new 0 0 512 512" xml:space="preserve">
<g id="_x23_e20219ff">
	<path fill="#E21F26" d="M314.219-0.117h17.972c23.504,5.503,49.584,12.967,64.483,33.486
		c14.635,19.611,20.548,43.759,27.017,66.854c22.129,20.606,45.721,43.116,53.302,73.557v26.519
		c-4.391,27.544-20.548,53.331-44.345,68.171c-16.918,11.855-36.998,17.65-56.814,22.568c0.234,55.204-0.029,110.438,0.176,165.642
		c1.346,15.894-11.123,28.773-24.236,35.652c-22.421,11.767-47.565,17.797-72.708,19.787h-46.13
		c-24.09-2.576-48.062-8.693-69.488-20.226c-11.679-6.908-23.768-17.562-23.855-32.256c-0.322-55.965,0.146-111.96-0.234-167.954
		c-29.593-6.264-59.214-18.265-79.85-41.184c-13.494-14.577-21.28-33.749-24.499-53.185v-23.504
		c5.532-17.387,15.191-33.427,27.661-46.716c8.313-9.337,18.967-16.567,26.431-26.578c9.308-28.597,16.128-61.615,41.652-80.757
		C151.855,7.464,177.087-2.108,201.82,2.663c19.641,3.249,35.564,18.148,55.673,19.348C277.953,19.26,293.613,2.81,314.219-0.117
		 M153.377,51.135c-20.167,15.806-27.105,41.974-32.754,65.8c-1.229,7.523-7.64,12.235-12.469,17.533
		c-13.699,13.435-26.431,28.773-32.929,47.067c-4.595,18.323,5.005,37.32,18.704,49.204c22.041,18.909,50.96,27.28,79.001,32.373
		c1.229,53.155,0,106.34,0.615,159.525c52.863-22.099,114.682-22.099,167.603-0.146c0.527-53.068-0.439-106.135,0.498-159.173
		c4.566-4.361,11.884-3.542,17.65-5.444c23.534-5.913,48.267-14.05,65.127-32.461c10.391-10.713,16.801-25.992,14.987-40.979
		c-6.937-25.904-28.305-43.789-44.667-63.722c-7.23-23.797-12.908-50.228-32.461-67.41c-16.596-11.386-37.379-20.138-57.809-16.099
		c-17.621,3.395-29.797,18.909-47.038,22.86c-17.035-1.493-28.627-16.509-44.521-21.426
		C192.512,31.583,170.706,40.276,153.377,51.135 M183.819,449.713c-3.864,2.225-11.562,7.23-5.854,11.825
		c17.006,12.791,39.105,15.338,59.624,17.826c19.26,2.868,38.783,0.41,57.839-2.751c16.216-2.81,33.31-7.054,44.96-19.494
		c-8.342-6.527-17.65-12.03-28.1-14.313c-24.412-5.474-49.701-10.274-74.757-6.557C219.265,438.736,200.415,441.195,183.819,449.713
		z"/>
	<path fill="#E21F26" d="M200.357,89.538c8.81,0.088,17.65,0.059,26.461,0c0.059,57.165,0.293,114.331-0.117,171.496
		c-12.85-0.088-25.7-0.117-38.549,0.059c-0.41-37.993-0.117-75.986-0.234-113.98c-8.401-0.176-16.801-0.234-25.202-0.176
		c0-9.776,0-19.523-0.088-29.3c8.284-1.405,17.153-1.961,24.207-7.054C194.21,105.871,196.961,97.119,200.357,89.538z"/>
	<path fill="#E21F26" d="M284.275,93.812c14.108-1.551,28.392-0.702,42.53-0.029c-0.205,33.603,0.117,67.176-0.117,100.779
		c4.039,0.088,8.049,0.176,12.118,0.293c-0.146,11.533-0.146,23.094,0.029,34.627c-4.01,1.434-8.723,1.522-12.03,4.42
		c-0.41,9.045-0.059,18.089-0.263,27.134c-11.474-0.088-22.948,0.088-34.422,0c-0.117-10.011-0.088-20.021-0.234-30.032
		c-17.006-0.82-34.042-0.468-51.048-0.351c0.585-12.82-1.61-25.934,1.2-38.549c11.942-29.153,24.646-58.044,36.266-87.343
		C280.031,100.983,281.495,96.973,284.275,93.812 M272.187,194.444c6.557,0.146,13.142,0.234,19.728,0.322
		c0.059-16.626,0.527-33.281-0.468-49.877C284.217,161.076,277.016,177.379,272.187,194.444z"/>
</g>
</svg>
