<?xml version="1.0" encoding="utf-8"?>
<!-- Generator: Adobe Illustrator 17.0.0, SVG Export Plug-In . SVG Version: 6.00 Build 0)  -->
<!DOCTYPE svg PUBLIC "-//W3C//DTD SVG 1.1//EN" "http://www.w3.org/Graphics/SVG/1.1/DTD/svg11.dtd">
<svg version="1.1" id="Layer_1" xmlns="http://www.w3.org/2000/svg" xmlns:xlink="http://www.w3.org/1999/xlink" x="0px" y="0px"
	 width="512px" height="512px" viewBox="0 0 512 512" enable-background="new 0 0 512 512" xml:space="preserve">
<g id="_x23_e20219ff">
	<path fill="#E21F26" d="M385.792,18.007h15.965c14.439,3.143,29.242,7.789,40.948,17.126
		c16.102,15.441,22.797,37.715,28.081,58.713c3.917,6.422,10.613,10.522,15.532,16.102c11.456,11.046,19.745,24.915,25.895,39.491
		v24.505c-2.87,15.008-9.451,29.447-20.042,40.561c-15.304,16.284-36.963,23.663-58.029,29.129
		c-0.82,43.909-0.046,87.841-0.364,131.773c-0.41,14.917-14.895,23.731-27.079,29.083c-20.064,7.516-41.586,11.182-62.994,11.046
		c-19.609,0.273-39.514-1.754-57.984-8.7c-0.068-8.062-0.114-16.147-0.114-24.232c38.352,12.868,82.58,13.141,118.974-5.876
		c-0.137-2.346-0.137-4.669,0.046-6.992c-22.023-11.547-47.69-15.213-72.309-13.938c-16.079,0.547-31.064,6.832-46.392,11
		c-0.273-7.88-0.273-15.737-0.182-23.594c7.402-3.006,14.986-5.716,22.911-6.992c32.681-5.147,67.185-4.077,97.93,9.133
		c0.729-41.655-0.046-83.332,0.319-124.986c20.178-2.437,40.197-8.837,56.959-20.52c12.708-9.542,22.866-26.1,18.197-42.383
		c-5.557-15.646-17.377-27.944-28.81-39.536c-6.377-5.853-7.174-14.849-9.679-22.638c-3.894-14.485-10.567-29.037-22.524-38.58
		c-13.551-9.246-31.087-13.118-47.098-9.064c-10.522,2.915-18.265,11.569-28.65,14.712c-13.369,2.05-22.82-9.816-34.526-13.915
		c-16.876-5.671-36.075-1.025-50.127,9.383c-7.994,5.944-11.797,15.509-18.288,22.797c-7.994,8.609-25.371-0.547-21.704-11.957
		c6.172-15.122,14.325-31.634,29.948-38.83c14.097-6.718,29.425-12.845,45.367-11.023c16.42,1.23,29.083,14.28,45.435,15.692
		C357.415,32.719,369.713,20.056,385.792,18.007z"/>
	<path fill="#E21F26" d="M199.747,101.885c13.027-6.582,28.468-7.197,42.247-2.619c12.275,3.963,25.439,8.039,34.321,17.992
		c14.189,15.737,19.358,36.849,24.893,56.64c15.737,15.646,33.661,31.247,40.06,53.361c3.53,18.903,0.364,39.491-10.795,55.433
		c-14.69,22.205-40.379,34.162-65.75,39.332c-0.66,43.727,0.205,87.454-0.387,131.158c-0.046,10.135-7.356,18.288-15.464,23.412
		c-16.625,10.021-35.824,14.462-54.818,17.4h-42.52c-19.017-2.642-38.238-7.197-54.773-17.354
		c-8.267-5.215-15.851-13.596-15.919-23.89c-0.524-43.317,0.66-86.68-0.592-129.974c-23.298-5.147-46.779-14.826-62.675-33.296
		c-9.839-11.273-15.555-25.644-17.787-40.334v-16.17c5.17-24.209,24.05-41.336,41.45-57.323
		c7.607-22.82,12.731-49.466,33.387-64.611c16.557-10.34,36.963-15.304,56.344-11.957c12.093,2.255,22.501,9.178,33.98,13.186
		C177.747,116.233,188.61,106.394,199.747,101.885 M92.001,135.364c-14.644,11.729-21.089,30.632-24.915,48.396
		c-1.298,11.592-12.776,17.218-19.199,25.803c-9.155,11.319-19.973,24.619-17.331,40.22c2.232,13.779,12.093,25.348,23.845,32.363
		c15.532,10.658,34.321,14.029,52.176,18.743c1.571,40.812,0.023,81.76,0.843,122.618c2.915-0.774,5.853-1.526,8.723-2.437
		c28.035-9.861,58.622-11.524,87.796-6.468c11.433,1.822,22.114,6.514,33.433,8.768c0.478-41.358-0.023-82.762,0.228-124.144
		c22.797-4.327,47.166-10.294,63.905-27.466c11.114-11.228,15.874-29.63,7.447-43.75c-7.311-14.712-20.315-25.189-30.04-38.056
		c-5.99-18.88-10.476-39.992-26.373-53.452c-15.555-9.338-35.756-17.081-53.156-7.903c-10.499,3.963-18.516,15.259-30.563,14.006
		c-11.364-3.234-19.677-12.959-31.155-16.147C122.086,120.993,105.575,127.689,92.001,135.364 M126.504,440.906
		c-6.673,2.46-14.986,4.441-17.924,11.752c4.213,4.031,9.178,7.151,14.735,8.973c31.383,10.408,65.909,10.021,97.338,0.023
		c5.967-2.05,11.797-5.124,15.555-10.362c-8.267-7.857-19.54-10.841-30.336-13.437C179.683,432.616,152.126,432.958,126.504,440.906
		z"/>
	<path fill="#E21F26" d="M128.258,169.07c6.605-0.091,13.186-0.091,19.791,0.046c0.524,5.01,0.797,10.066,0.706,15.122
		c-0.364,38.922,0.251,77.866-0.319,116.788c-9.816,0.251-19.7,0.774-29.493-0.387c-0.091-29.174,0.205-58.348-0.137-87.5
		c-6.673-0.273-13.346-0.319-20.019-0.319c-0.137-7.652-0.068-15.282,0-22.911c6.605-1.253,13.733-1.685,19.381-5.716
		C123.521,180.776,125.684,174.536,128.258,169.07z"/>
	<path fill="#E21F26" d="M170.732,180.024c6.377-8.039,17.149-11.433,27.17-11.114c10.021-0.023,21.818,1.253,28.4,9.77
		c4.464,7.607,6.582,16.58,6.172,25.371c-9.019,0.068-18.037,0.091-27.056-0.023c-1.458-4.031-0.228-10.454-5.466-11.797
		c-2.915-0.706-6.832,1.503-7.311,4.487c-1.503,7.903-0.774,15.988-0.774,23.982c5.352-3.416,10.522-8.563,17.4-7.971
		c9.201-0.364,18.402,5.079,21.408,13.961c6.081,16.352,5.124,34.458,1.776,51.288c-2.164,10.545-8.768,20.998-19.677,24.004
		c-14.439,4.213-33.365,3.257-43.021-9.884c-10.089-15.737-9.201-35.232-9.224-53.156
		C160.757,219.083,159.618,197.492,170.732,180.024 M192.573,242.677c-2.255,11.16-2.733,22.82-0.114,33.98
		c2.186,4.509,11.023,2.983,11.251-2.072c0.843-9.315,0.888-18.766,0.091-28.081c-0.023-3.393-3.553-4.851-5.625-6.878
		C196.786,240.377,193.985,241.903,192.573,242.677z"/>
</g>
</svg>
