<?xml version="1.0" encoding="utf-8"?>
<!-- Generator: Adobe Illustrator 17.0.0, SVG Export Plug-In . SVG Version: 6.00 Build 0)  -->
<!DOCTYPE svg PUBLIC "-//W3C//DTD SVG 1.1//EN" "http://www.w3.org/Graphics/SVG/1.1/DTD/svg11.dtd">
<svg version="1.1" id="Layer_1" xmlns="http://www.w3.org/2000/svg" xmlns:xlink="http://www.w3.org/1999/xlink" x="0px" y="0px"
	 width="512px" height="512px" viewBox="0 0 512 512" enable-background="new 0 0 512 512" xml:space="preserve">
<g id="_x23_e20219ff">
	<path fill="#E21F26" d="M254.992,2.006h17.411c14.832,4.556,31.158,9.248,41.163,22.006c9.791,12.021,16.054,26.718,19.99,41.647
		c2.036,8.628,4.207,17.644,2.443,26.505c-0.95,4.266-5.506,6.999-9.714,6.282c-5.681-0.31-8.996-5.894-9.985-10.935
		c-2.87-12.409-5.196-25.438-12.486-36.18c-9.811-15.356-27.959-24.604-45.932-25.264c-13.436-0.659-22.898,10.567-35.133,13.863
		c-10.819,1.474-18.807-7.62-28.153-11.323c-12.7-5.545-26.97-1.221-38.603,4.925c-12.002,6.301-18.478,19.176-22.627,31.507
		c-2.714,7.62-2.404,16.849-8.686,22.763c-9.52,10.024-19.738,20.145-24.837,33.291c-4.149,9.656,4.789,18.478,4.033,28.191
		c0.097,6.456-4.285,13.126-10.858,14.29c-8.57-0.194-13.107-8.667-15.143-15.918c-2.889-10.625-6.767-22.045-3.354-33.019
		c5.216-17.14,18.264-30.285,31.391-41.783c4.905-3.897,4.847-10.683,6.728-16.17c4.576-15.879,11.187-32.922,25.399-42.578
		C153.452,6,171.872-0.67,189.186,5.205c10.858,3.141,20.242,11.401,31.914,11.42C233.296,14.124,243.281,5.942,254.992,2.006z"/>
	<path fill="#E21F26" d="M267.808,106.958c10.024-3.238,21.076-4.382,31.158-0.756c10.043,2.637,18.478,9.656,28.792,11.304
		c9.578,0.078,17.179-6.941,25.923-9.908c18.245-8.201,39.321-2.831,56.208,6.127c17.217,10.916,23.596,31.662,28.792,50.217
		c1.28,6.922,7.445,10.935,12.04,15.627c10.877,10.063,19.35,22.724,24.372,36.684v21.328c-2.753,10.664-6.941,21.095-13.844,29.781
		c-13.107,16.267-33.465,23.887-53.067,29.044c-0.155,37.595,0.136,75.19-0.116,112.766c-1.183,15.22-17.295,22.161-29.742,26.834
		c-31.235,9.171-65.36,9.578-96.576,0.136c0-7.019,0.019-14.018,0.097-21.017c22.84,7.096,47.348,9.248,70.924,4.925
		c10.606-2.443,21.968-4.188,30.673-11.265c-0.039-1.183-0.136-3.548-0.174-4.711c-21.425-12.273-46.96-13.34-70.963-11.246
		c-10.683,1.474-20.882,5.235-30.596,9.811c0.039-7.348,0-14.716,0.155-22.065c33.194-11.265,70.866-10.974,103.284,2.831
		c0.174-34.725-0.213-69.47,0.174-104.196c-0.252-4.518,5.332-4.149,8.337-4.867c13.805-1.571,26.854-7.213,38.467-14.677
		c10.664-7.019,18.633-19.369,17.973-32.418c-2.055-12.583-10.47-22.976-18.923-32.069c-4.556-5.177-11.052-9.384-12.293-16.655
		c-3.18-12.971-7.232-26.156-15.783-36.664c-6.65-8.221-17.295-11.575-27.203-14.018c-11.498-2.831-23.305,1.377-32.825,7.775
		c-5.914,3.684-13.165,8.628-20.184,4.615c-11.362-5.72-22.317-14.929-35.928-13.146c-11.711,2.016-24.294,5.681-32.205,15.181
		c-4.77,5.061-6.825,12.351-12.603,16.481c-7.135,3.858-18.206-2.462-16.384-11.149c1.57-7.949,6.476-14.755,10.8-21.444
		C243.533,115.411,255.942,110.235,267.808,106.958z"/>
	<path fill="#E21F26" d="M184.281,184.765c13.456-1.842,23.771-12.642,37.285-14.483c15.337-2.346,30.091,4.246,43.47,10.916
		c16.791,10.935,23.189,31.391,27.842,49.829c0.95,6.864,7.232,10.664,11.691,15.22c11.672,11.013,22.472,24.488,25.438,40.658
		c1.9,15.705-2.773,32.011-11.808,44.905c-13.029,17.624-34.086,26.873-55.006,31.255c-1.028,37.925-0.058,75.907-0.485,113.832
		c0.058,8.357-6.883,14.387-13.281,18.613c-13.747,8.202-29.646,11.536-45.176,14.483h-40.077
		c-18.943-4.091-40.329-7.794-53.688-23.228c-5.758-7.019-3.878-16.868-4.324-25.264c0-32.631,0.31-65.263-0.078-97.894
		c-20.358-4.382-41.066-12.642-54.599-29.141c-7.659-9.423-12.603-20.94-14.58-32.903v-13.727c2.85-15.86,13.34-29.2,24.856-39.941
		c4.537-4.595,11.207-8.046,12.486-14.91c5.002-18.322,10.838-38.526,26.776-50.392c14.231-7.988,30.983-13.436,47.445-10.451
		C161.072,174.392,171.406,183.68,184.281,184.765 M113.899,204.988c-13.126,11.905-17.062,29.956-21.347,46.359
		c-10.548,12.448-24.197,23.383-28.948,39.747c-3.49,14.173,5.739,27.784,16.81,35.753c13.999,9.772,30.867,15.143,47.658,17.586
		c0.95,6.67,0.601,13.417,0.601,20.145c-0.058,28.87,0,57.721-0.019,86.591c9.85-5.08,20.707-7.775,31.584-9.617
		c26.66-3.994,55.045-2.191,79.63,9.578c0.039-35.85-0.523-71.739,0.271-107.589c16.209-2.656,32.612-7.193,46.436-16.345
		c11.052-7.523,19.583-20.533,18.361-34.299c-4.401-17.431-18.613-29.568-29.684-42.811c-4.207-16.228-8.938-34.027-22.103-45.447
		c-10.993-6.728-24.042-11.982-37.168-9.772c-11.788,2.365-20.32,12.254-31.778,15.24c-12.855-1.881-21.638-14.503-34.939-15.453
		C136.604,193.083,124.253,198.144,113.899,204.988 M146.821,464.12c-6.224,2.23-14.639,3.82-16.81,11.052
		c5.313,4.304,11.595,7.135,18.167,8.977c23.538,6.456,48.608,5.875,72.204-0.097c6.941-1.958,14.096-4.789,18.419-10.897
		c-10.315-9.326-24.701-10.567-37.769-12.913C182.962,456.888,164.465,459.757,146.821,464.12z"/>
	<path fill="#E21F26" d="M184.552,236.883c7.232-7.542,18.691-7.639,28.385-6.728c9.423,0.756,18.148,7.368,20.979,16.481
		c3.839,12.603,2.346,28.269-8.899,36.722c6.573,3.645,11.556,10.005,12.409,17.624c1.163,12.661,1.881,27.474-7.659,37.362
		c-8.395,8.454-21.367,6.185-32.127,6.166c-11.905,0.33-20.843-10.606-22.045-21.735c-0.989-10.567-1.919-22.084,3.296-31.759
		c1.9-3.723,5.952-5.429,9.248-7.659c-6.418-4.44-10.703-11.672-10.858-19.563C176.894,254.546,177.359,243.688,184.552,236.883
		 M202.758,250.784c-2.268,7.794-2.404,16.112,0.019,23.887c2.462-0.078,4.944-0.175,7.426-0.271
		c2.036-7.678,1.919-15.686-0.097-23.344C207.644,250.94,205.201,250.843,202.758,250.784 M200.529,310.289
		c0.523,4.207-1.144,9.52,2.21,12.835c1.919,3.083,5.254,1.299,7.969,0.698c1.667-8.163,2.152-16.674,0.834-24.934
		c-0.427-3.49-4.246-6.476-7.62-4.479C199.171,298.19,201.052,305.034,200.529,310.289z"/>
	<path fill="#E21F26" d="M146.162,233.49c6.011-0.078,12.002-0.078,18.012-0.078c0.116,36.858,0.116,73.697-0.039,110.555
		c-8.454-0.252-16.907-0.233-25.361-0.039c-0.136-24.275,0.485-48.55-0.271-72.805c-5.797-0.136-11.595-0.194-17.411-0.271
		c0.078-6.767,0.078-13.514,0-20.281c5.157-0.872,10.916-0.271,15.375-3.471C141.218,243.882,143.777,238.511,146.162,233.49z"/>
</g>
</svg>
