<svg xmlns="http://www.w3.org/2000/svg" width="512" height="512"><path d="M108.627 132.083h12.889c13.317 1.748 25.556 10.304 30.65 22.797 4.65 9.71 4.171 20.659 4.086 31.115 11.539-7.842 25.146-15.159 39.642-12.392 22.736 4.346 38.445 29.689 32.138 51.859-4.257 14.717-17.06 25.327-31.112 30.538 11.881 5.738 24.12 13.325 29.488 25.921 9.419 21.643-4.804 48.973-27.18 55.559-15.265 4.023-31.437-1.528-42.975-11.73-.154 10.117 1.077 20.777-3.316 30.266-5.282 12.935-18.035 21.796-31.762 23.901h-12.496c-10.496-1.698-20.941-6.688-26.821-15.804-8.051-11.102-8.325-25.31-8.12-38.414-11.146 7.707-24.343 14.734-38.411 12.629-25.112-3.718-42.292-33.407-32.36-56.781 4.769-11.798 16-19.097 27.112-24.342 3.812-.594-.325-2.444-1.214-3.208-10.496-5.432-20.855-12.816-25.693-23.952-11.18-24.665 9.641-57.528 37.215-56.968 12.462-.526 23.71 5.805 33.385 12.918-.068-11.068-.615-22.831 5.009-32.847 5.88-11.271 17.419-18.791 29.846-21.065m-9.897 17.212c-8.889 5.687-12.752 16.703-12 26.871-.479 17.365 7.812 33.067 13.488 48.973a599.482 599.482 0 01-5.71 3.123c-12.411-16.703-25.915-35.851-47.283-41.3-20.394-5.771-39.3 18.095-32.428 36.988 2.957 8.657 10.77 14.582 18.855 18.265 14.633 6.467 30.719 8.572 46.531 10.083.051 1.714.171 5.143.222 6.858-16.257 2.105-32.992 3.887-47.95 11.034-8 3.853-15.607 10.1-18.103 18.927-3.744 14.021 4.923 29.74 18.274 35.104 8.769 2.682 18.428.611 26.137-4.074 14.958-8.708 25.59-22.78 35.676-36.428 2 .985 3.983 1.986 5.966 2.988-8.017 19.606-17.881 40.893-12 62.451 5.248 18.061 30.172 22.95 44.24 12.171 7.094-5.738 10.599-15.006 10.086-23.969.923-17.909-6.923-34.476-13.658-50.585a331.132 331.132 0 015.949-3.022c12.582 16.381 25.949 35.172 46.993 40.944 21.095 5.941 40.001-18.757 32.411-37.973-3.949-9.285-13.026-15.159-22.154-18.689-13.761-5.143-28.445-7.452-43.044-8.538.103-2.41.154-4.804.137-7.214 15.368-1.494 30.992-3.446 45.3-9.506 8.274-3.514 16.24-9.268 19.744-17.756 5.128-14.123-2.684-31.081-16.325-37.124-9.573-3.955-20.377-.713-28.804 4.43-14.325 8.827-24.411 22.628-34.206 35.919-1.966-1.069-3.932-2.173-5.898-3.276 7.163-17.094 15.317-34.833 13.641-53.862-.325-8.98-4.257-18.808-12.906-22.814-9.762-4.414-21.848-4.516-31.181 1.001zm292.725-17.212h12.274c10.308 1.647 20.359 6.62 26.411 15.311 8.086 10.864 9.419 25.055 8.752 38.143 11.282-7.927 24.992-14.598 39.198-11.916 22.599 4.329 38.873 29.655 32.377 51.791-4.239 14.717-17.129 25.327-31.146 30.589 11.727 5.704 23.864 13.139 29.3 25.513 12 25.412-10.923 59.378-39.351 57.155-11.71-.034-22.513-5.568-31.249-12.986 2.085 13.274.906 28.094-7.863 38.941-6.462 8.454-16.479 13.478-26.872 15.294h-12.513c-10.513-1.647-20.975-6.535-27.009-15.566-8.137-11.068-8.718-25.361-8.308-38.533-11.163 7.486-24.154 14.7-38.138 12.511-25.351-3.87-42.326-34.544-31.454-57.783 5.299-12.239 17.505-19.182 29.112-24.563-11.59-5.687-23.351-13.173-29.078-25.157-11.812-24.563 8.735-58.224 36.514-57.749 12.359-.509 23.454 5.788 33.044 12.85 0-9.574-.632-19.521 3.111-28.603 5.11-13.699 18.477-23.29 32.888-25.242m-3.111 14.174c-11.351 2.461-18.718 13.682-19.3 24.75-1.214 18.723 5.846 36.836 14.12 53.301-2.12 1.358-4.239 2.699-6.359 4.04-12.342-17.009-26.155-36.259-47.813-41.555-20.12-5.059-38.36 18.214-31.95 36.87 2.94 9.217 11.402 15.244 19.932 18.995 14.394 6.111 30.103 8.216 45.574 9.625-.051 2.41-.051 4.821-.017 7.231-12.872.934-25.744 2.937-38.052 6.824-11.043 3.497-22.821 9.659-27.197 21.015-5.06 14.378 3.829 31.047 17.556 36.87 8.735 2.648 18.342.662 26.086-3.921 15.129-8.691 25.864-22.865 35.881-36.734 2.12 1.29 4.205 2.682 6.428 3.819-8.205 15.99-14.906 33.61-14.274 51.808.085 9.404 4.633 19.216 13.009 24.054 9.043 4.753 20.377 4.906 29.539.39 8.735-4.821 13.402-14.768 13.846-24.41.889-18.503-6.821-35.8-14.017-52.402a448.284 448.284 0 015.692-3.072c11.248 13.665 21.778 29.044 38.001 37.396 9.829 5.602 23.471 6.298 32.172-1.765 12.53-9.676 15.71-30.725 3.299-41.758-16.188-14.276-39.01-15.277-59.301-18.825.085-1.613.273-4.855.359-6.467 16.394-1.613 33.163-3.718 48.206-10.813 9.539-4.549 18.736-13.291 18.513-24.563.735-9.778-4.325-19.233-11.761-25.378-8-6.909-20.137-6.145-29.3-2.173-17.248 8.114-28.736 24.003-39.864 38.771-2-1.069-4-2.139-5.983-3.242 8.735-19.878 18.599-42.183 11.778-64.114-4.375-14.041-21.965-18.132-34.803-14.567z" fill="#C02331"/></svg>