<svg id="Layer_1" data-name="Layer 1" xmlns="http://www.w3.org/2000/svg" viewBox="0 0 510.03 403"><defs><style>.cls-1{fill:#fff}.cls-2{fill:#1a2d4e}</style></defs><g id="_ffffffff" data-name="#ffffffff"><path class="cls-1" d="M1 56h251a39.54 39.54 0 00-30.19 18 37.3 37.3 0 00-25.07-1 24.16 24.16 0 00-14.32 11.4c-3.13 5.68-4 12.28-3.95 18.67.38 14.45 4.72 28.45 9.8 41.87A342.68 342.68 0 00207.64 186c2.74 5.18 5.89 10.15 8.68 15.29.28 16.35 0 32.73.16 49.09.87 2.22 3.69 2.76 5.72 3.51 10.77 2.87 22 3.25 33.09 3.42 11.16-.21 22.5-.56 33.31-3.61 1.95-.78 4.86-1.41 5.24-3.84.19-16.18.22-32.37.51-48.53 1.9-3.8 4.31-7.36 6.3-11.14 10.16-18.36 19.39-37.37 25.7-57.43 3.22-10.54 5.73-21.48 5.39-32.56-.27-7.2-2.13-14.71-7.06-20.19-4.68-5.28-11.77-7.81-18.68-8.55A38.51 38.51 0 00288.41 74a40.57 40.57 0 00-19.91-15.83A41.57 41.57 0 00258.08 56H511v403H30.34a60.13 60.13 0 0027.72-9.26c12.72-8 22.85-19.36 31.44-31.5a232.77 232.77 0 0015.94-26.4c3.74-7.39 8-14.79 9.09-23.13.61-4.78.22-10.23-3.22-13.94-3.29-3.44-8.34-4.28-12.91-4.15-9.85 0-19.09 4-27.54 8.72 4.38-1.34 8.87-2.25 13.3-3.4 5.58-1.29 11.36-2.35 17.1-1.66 2.93.39 6.27 1.83 7.09 5 1.08 4.39 1 9.26-1.16 13.34-2.4 4.85-4.17 10.16-7.89 14.21-5.37 6.28-12.09 11.85-20.16 14.15-5.37 1.48-11.33 1.76-16.56-.43-4.44-1.85-7.6-6-9.1-10.44-1.67-5-1.52-10.36-.81-15.51a58.28 58.28 0 016.95-20.14c4.81-.71 9.87-2.11 13.29-5.77 2.38-2.47 3.4-5.86 3.84-9.18-2.74 3.82-5.82 7.67-10.22 9.64a22.92 22.92 0 01-5 1.52c7.5-12.05 17.9-22.56 30.78-28.79 9.06 4.16 18 9.41 28.2 10.14 3.48.21 7.35.58 10.38-1.48 1.73-1.21 3.15-3.61 2.16-5.69-1.43-3-4.32-5.1-7.31-6.46a34.8 34.8 0 00-16.55-2.92 60.72 60.72 0 00-17.13 2.79c-9.71-4-19.54-7.82-29.82-10.07-6.16-1.37-12.82-1.63-18.73.87a18 18 0 00-9.3 9.39c-2.27 5.13-2.86 10.83-2.84 16.38a18.43 18.43 0 005.23 12.57 25.06 25.06 0 0013.27 7.07c-4.07 8.85-6.21 18.87-4.45 28.56a25.14 25.14 0 009.87 16A27.63 27.63 0 0075.78 404c8-1 15.23-5.38 21.1-10.78-8.19 14.7-17 29.29-28.78 41.46a82 82 0 01-20.8 16.05 48.26 48.26 0 01-23.67 5.71c-5.05-.22-10.27-2-13.73-5.78-3.23-3.54-4.2-8.59-3.8-13.24a14.84 14.84 0 014.17-8.91 23.21 23.21 0 0116.3-6.66c5.38-.2 11 1.27 15 5 2.1 1.82 3.47 4.26 5.16 6.42-.42-3.89-2-7.8-5.22-10.24-4.76-3.72-11-4.59-16.91-4.85a24.05 24.05 0 00-20.3 10.24 18.77 18.77 0 00-2.73 13.49A18.11 18.11 0 008 454c4.34 3.44 10 4.61 15.38 5H1V56m155.62 87.66c-2.67 5.36-2.64 11.66-1.44 17.4 1.65-5.64 3.29-11.45 6.6-16.38-1.67 5.57-3.66 11-5.45 16.56 4.89-3.28 9-8.1 10.36-13.92a22.31 22.31 0 00-.92-12.42 19.49 19.49 0 00-9.15 8.76m188.07 3.4c1.27 5.92 5.45 10.79 10.37 14.15-1.75-5.54-3.81-11-5.41-16.56 3.29 4.94 4.92 10.75 6.63 16.37 1.14-5.38 1.17-11.17-1-16.31a18.85 18.85 0 00-9.57-9.73 21.29 21.29 0 00-1 12.08m-197.43-6.4a2.91 2.91 0 104.37 2.2 2.93 2.93 0 00-4.37-2.2m213.94 0a2.9 2.9 0 104.37 2.22 2.92 2.92 0 00-4.37-2.22m-220.09 23.27c2.2 5.13 6.49 9.08 11.25 11.85-2.19-5.46-4.58-10.83-6.74-16.29 3.88 4.84 6 10.76 8.17 16.52a24 24 0 00-2.17-15.53 21 21 0 00-11.17-9.48 19.49 19.49 0 00.66 13M361 158.55c-3.51 5-4.37 11.51-3.41 17.46 2.28-5.72 4.3-11.74 8.27-16.55-2.2 5.45-4.58 10.84-6.76 16.31 4.77-2.77 9-6.74 11.24-11.85A19.58 19.58 0 00371 151a21.62 21.62 0 00-10 7.58m-196.72-1.48c-4.69 4.44-6.85 11-7.17 17.3 2.71-5.38 5.84-10.86 10.82-14.46-2.92 4.92-6.2 9.61-9.16 14.51 5.25-1.75 10.16-5 13.08-9.79a22 22 0 002.89-12.51 19.49 19.49 0 00-10.46 4.95m172.53-4.94a21.52 21.52 0 002 10.93c2.67 5.61 8.12 9.48 13.94 11.34-3.08-4.91-6.29-9.73-9.34-14.66 5 3.67 8.21 9.18 11 14.6-.35-5.5-2-11.1-5.48-15.44a19.21 19.21 0 00-12.12-6.77m-198.69 19.3a19.61 19.61 0 002 12.25c2.77 5.06 7.69 8.59 12.91 10.82-2.74-5-5.77-9.78-8.45-14.78 4.53 4 7.38 9.44 10 14.78a24.54 24.54 0 00-3.8-14.57c-2.86-4.41-7.64-7.23-12.66-8.5m223.51 7.25c-3.53 4.47-4.91 10.29-4.78 15.91 2.67-5.4 5.53-10.92 10.14-15-2.76 5-5.77 9.88-8.54 14.89 4.58-2 8.95-4.94 11.83-9.12a19.22 19.22 0 003.09-14 21.23 21.23 0 00-11.74 7.24m-201.39.82c-3.35 5.44-3.74 12.18-2.63 18.33 1.76-5.58 3.58-11.24 6.61-16.28-1.66 5.43-3.71 10.73-5.31 16.18a25.57 25.57 0 009.47-10c2.51-4.83 2.47-10.61.91-15.73a19.32 19.32 0 00-9 7.55m181.94-7.56a22.07 22.07 0 00-.09 13.31 23.94 23.94 0 0010.52 12.45c-1.65-5.39-3.65-10.67-5.25-16.09a72.57 72.57 0 016.07 14.87c.19.38.17 1 .56 1.24.87-6.07.65-12.66-2.61-18a19.45 19.45 0 00-9.2-7.74m-209.29 12.7a2.91 2.91 0 104.14 2.88 2.94 2.94 0 00-4.14-2.88m243.05.08a2.91 2.91 0 104.31 2.3 2.92 2.92 0 00-4.31-2.3M163.4 199.91c-2 5.87-1.21 12.41 1.09 18.07.71-6.31 1.46-12.75 4-18.64-.88 6.1-1.84 12.19-2.67 18.3a23.84 23.84 0 007.77-13.85 21.39 21.39 0 00-2.63-13.34 19.23 19.23 0 00-7.53 9.46m177.09-9.49a21.87 21.87 0 00-2.7 12.8c.64 5.61 3.79 10.67 7.87 14.47-.82-6-1.82-12-2.6-18 2.51 5.79 3.15 12.17 3.9 18.37 2.24-5.71 3.15-12.25 1.06-18.15a19.32 19.32 0 00-7.53-9.46m-201.71 1.32A19.93 19.93 0 00142 202.5c3.39 5.06 9.1 8.06 14.88 9.56-3.38-4.32-7-8.48-10.31-12.82 5.34 2.93 8.81 8.16 12.22 13a25.21 25.21 0 00-6.09-14.07 21 21 0 00-13.9-6.45m221 5.4c-4.24 3.9-6.48 9.53-7.18 15.14 3.44-4.87 6.9-10.13 12.28-13-3.4 4.31-7 8.51-10.35 12.85 5.47-1.48 10.87-4.19 14.33-8.81a19.34 19.34 0 003.74-11.54c-4.68.45-9.41 2.08-12.82 5.4m-188.87 23.29c-.31 5.94 2.16 11.69 5.67 16.38-1.2-6-2.27-12.36-.81-18.45.89 6.19 1.57 12.42 2.44 18.61 3-5.05 4.58-11.2 3.29-17a21.67 21.67 0 00-6.13-10.64 19.26 19.26 0 00-4.46 11.14m159.1-1c-1.49 6 .06 12.38 3.2 17.58.84-6.35 1.55-12.71 2.47-19a44.59 44.59 0 01-.91 18.74 24.3 24.3 0 005.63-17.25 19.58 19.58 0 00-4.36-10.2 21.82 21.82 0 00-6 10.17m-188.68-7.21a19.75 19.75 0 006 9.86c4.43 3.87 10.44 5.32 16.2 5.47-4.18-3.38-8.72-6.29-13-9.53 5.9 1.44 11 5 15.24 9.25a24.48 24.48 0 00-10.62-12.94 21.73 21.73 0 00-13.8-2.11m215.3 1.91a24 24 0 00-11 13.07c4.21-4.27 9.35-7.85 15.26-9.26-4.41 3.19-8.88 6.29-13.23 9.55 4.9-.17 9.93-1.12 14.11-3.81a19.19 19.19 0 008.24-11.51 21.59 21.59 0 00-13.43 1.88m-170.15 9.09a17.38 17.38 0 00-2.43 12c1 6.19 4.54 11.61 8.74 16.12A77.32 77.32 0 01189 232.5c3.43 4.6 4.68 10.44 5.59 16 2.79-9-.4-19.6-8-25.27M317 248.44c.79-5.58 2.12-11.39 5.54-16a78.09 78.09 0 01-3.83 18.7 30.81 30.81 0 008.41-14.49 17.66 17.66 0 00-2.12-13.41 23.12 23.12 0 00-8 25.2M141.7 224a2.93 2.93 0 00-.89 5.19c1.73 1.36 4.73-.08 4.56-2.34a2.9 2.9 0 00-3.67-2.85m226.3 0a2.92 2.92 0 103.74 3.72A2.94 2.94 0 00368 224m-219 6.54a19.87 19.87 0 007.51 8.42c5.29 3.18 11.79 3.37 17.74 2.41-5.56-1.57-11.45-2.9-16-6.6 5.79 1.81 11.55 3.71 17.34 5.5a24.68 24.68 0 00-12.3-10.16 21 21 0 00-14.25.43m186.91 9.68c5.81-1.72 11.55-3.71 17.36-5.46-4.64 3.66-10.5 5-16.08 6.59 5.61.94 11.66.8 16.79-1.88a18.92 18.92 0 008.39-9 23.53 23.53 0 00-10.71-1.17c-6.62.91-12.27 5.42-15.75 10.95m-176.6 6.84a24.38 24.38 0 009.51 8.6c7.84 3.61 16.79 3.25 25.18 2.41-7.71-2.28-15.91-4.12-22.46-9 6.42 1.34 12.7 3.28 18.95 5.24a24 24 0 00-14.95-9.4 26.27 26.27 0 00-16.23 2.2M334 245.29a23.38 23.38 0 00-13 9c6.24-2 12.51-3.89 18.92-5.23-6.53 4.89-14.67 6.77-22.37 9a66.26 66.26 0 0010.54.56c5.77-.12 11.77-1 16.71-4.17a24.63 24.63 0 007.31-7.35 25.78 25.78 0 00-18.11-1.81M303.84 268a6.63 6.63 0 003.05 5.43c2.45 1.36 6-.6 6-3.45 0-1.95-1.35-4.19-3.52-4.14-1.38 0-2.29 1.1-2.89 2.19.63-.19 1.28-.35 1.93-.49a4 4 0 012.81 3.39 1.51 1.51 0 01-2.35 1.45 8 8 0 01-3-7.26c.17-2 1.7-3.49 2.8-5.07l-.43-.21a9 9 0 00-4.39 8.16M202 260.11c.37.46.74.93 1.13 1.39-1.23 2.85-2.64 5.63-4.06 8.4-.33 1.07-1.56.64-2.4.82 3.35 1.75 6.83 4.47 10.83 3.68s6.08-6.43 3.26-9.56c-2.32-2.44-5.6-3.76-8.76-4.73m90.46 7.94c.11.92.24 1.85.38 2.77 1.27-2 3.82-2.31 5.86-3.17-.14 4-1.07 7.85-1.28 11.81l.82.48c.77-4.9 1.11-9.85 1.93-14.73-2.56 1-5.13 1.94-7.71 2.84m-76.88-1.77c.44.46.9.92 1.38 1.36a101 101 0 01-3.31 9.91l-2-.23c.91 1.13 2.46 1.16 3.72 1.67 1.95.52 3.8 1.38 5.78 1.77a5.82 5.82 0 001.49-2.85c-1.08.5-2 1.83-3.36 1.35-1-.32-2.33-.45-2.94-1.38a18.94 18.94 0 011.22-4.4 16.41 16.41 0 012.66 1c.09.48.25 1.45.33 1.93a12 12 0 001.61-4.42l-1.59 1.26a17.67 17.67 0 01-2.7-.64c.4-1.48.89-2.94 1.4-4.38 1.11.42 2.46.56 3.36 1.42a21.62 21.62 0 00.93 2.16c.28-1 .47-2 .67-3-2.92-.73-5.69-2-8.65-2.55m68.82 4.37a4 4 0 00-.17 5.28 3 3 0 004.68-.51c-2.54.94-4.57-2.48-3.25-4.5.63-1 2-.32 2.44.54a8.94 8.94 0 01.77 7.64c-.66 1.65-2.21 2.65-3.36 3.93 5.12-.88 8-7.81 4.84-12a4 4 0 00-5.95-.35m-58.18-.93c.56.67 1.87 1.1 1.38 2.19-.58 3-1.17 5.95-1.9 8.89-.61.21-1.19.45-1.78.69a48.69 48.69 0 006 1.25c-.55-.55-1.26-.91-1.79-1.47.49-3.41 1.38-6.76 2-10.15 1.83.06 3.47 1.78 2.76 3.63-.24 1.64-1.92 2.15-3.25 2.65 1.45.44 3.2.64 4.48-.35a3.38 3.38 0 00-.09-5.48c-2.34-1.36-5.15-1.6-7.79-1.85m48.64 3.73c.73.27 2.15-.2 2.3.92a66.5 66.5 0 011.35 7.92c-.57.52-1.25.9-1.83 1.41a23.91 23.91 0 006.21-1.28c-.7-.16-1.4-.28-2.09-.39-.84-3.56-1.37-7.18-2-10.78-1.3.75-2.64 1.45-3.94 2.2m-37.55-1.56c.53.41 1.07.81 1.63 1.19 0 3.16-1.11 6.39-.26 9.5 1.74 3.37 8.17 3.44 9.26-.54.75-2.68.48-5.53 1.26-8.2l1.35-.21v-.62c-1.54-.08-3.07-.24-4.61-.27.56.39 1.11.81 1.65 1.25a28.18 28.18 0 01-.5 7.09 3.26 3.26 0 01-3.61 2.93c-1.85-.08-2.85-2-2.81-3.65a56.66 56.66 0 01.78-7.23l1.83-.53a24.06 24.06 0 00-5.93-.71m23.63 1.36a3.27 3.27 0 00-.83 4.63c1 1.39 2.73 1.86 4.08 2.82a2.27 2.27 0 01.7 2.92 2.36 2.36 0 01-2.78.75c-1.28-.61-1.74-2.12-2.93-2.83.14 1.11.06 2.41.83 3.32a6.11 6.11 0 005.74-.26 3.59 3.59 0 00.65-5.17c-1.27-1.64-3.77-1.71-4.86-3.52-.72-1.75 1.51-3.25 3-2.3.77.66 1.33 1.52 2.08 2.22-.09-1-.25-2.07-.42-3.09-1.75-.27-3.72-.56-5.25.51m-9.46-.3c.55.63 1.86.85 1.72 1.9 0 3 .1 5.95-.16 8.92 0 .86-1.28.79-1.69 1.27 1.9.58 3.93.26 5.88.21a11 11 0 01-1.69-1.07 71.22 71.22 0 010-9.24c-.19-1.15 1-1.28 1.78-1.69-1.9-.56-3.92-.22-5.86-.3m15.48 27c-9 3.95-16.87 10-23.86 16.88-12.83 12.91-22.68 28.42-31.16 44.42a7.68 7.68 0 00-4.76-3c-4.66-.9-9.29 1.26-12.83 4.15a40.07 40.07 0 00-12.87 18.12 64.51 64.51 0 01-8 10.67c-1.89 1.95-3.94 3.92-6.56 4.82-.88.21-2 .43-2.71-.27-1.8-1.42-1-4-.64-5.92 2.85-9.5 7.76-18.2 12.93-26.6a6.78 6.78 0 00-2.68-3.17c-1.91-1.37-4-2.79-6.45-2.74a18.68 18.68 0 01.44 8.21c-.62 3.12-2.89 5.48-4.56 8.08-4.57 7-9.4 14.09-15.76 19.66-1.4 1.05-3 2.35-4.89 2-1.71-.84-1.32-3.06-.88-4.54.48-2.29 2.18-4.18 2.29-6.55 2.68-4.46 4.69-9.27 7-13.93 1-2.41 2.42-4.81 2.41-7.48a12.85 12.85 0 00-4-6.33c-3.66 7.94-6.71 16.12-10.06 24.19-1.06 2.93-3.13 5.33-5 7.75-2.41 2.67-5.11 5.66-8.86 6.23a2.82 2.82 0 01-3.55-2.34c-.28-4.39 1.68-8.49 3.4-12.42 3.22-7.22 8.06-13.86 9.53-21.76a16.3 16.3 0 00-7-.26 22.07 22.07 0 01-1.6 7.92c-2.66 7.47-6.59 14.4-10.33 21.36a11.43 11.43 0 001.3 7.49c1.52 2.42 4.64 3.15 7.32 2.92 4.5-.29 8.5-2.76 11.82-5.65.32 2 1.18 4.19 3.23 5a7.21 7.21 0 007.42-.72c4.26-3 7.67-7.11 10.88-11.2-.58 3.2-.83 6.71.63 9.72a6.82 6.82 0 006.31 3.54c3 .24 5.71-1.51 8-3.32a55.42 55.42 0 007.9-8.37c-.16 3.12 0 6.54 1.89 9.15a7.6 7.6 0 006.32 2.79c4.89.17 9.28-2.64 12.68-5.91a7.28 7.28 0 002.82 4.44 8.55 8.55 0 009.6-.75c3.9-3 6.23-7.52 9.18-11.39-.07 4.06 1.28 8.32 4.41 11 3.4 3 8.58 2.89 12.51 1.05 5.09-2.42 8.86-6.82 12.13-11.27a38.8 38.8 0 003.84-6.15c.28-1-.61-1.26-1.31-1.46-4.35 5.71-8 12.35-14.2 16.27-2.38 1.45-5.36 2.48-8.12 1.58-2.46-1.11-2.66-4.25-2.54-6.59s.2-5.19 2.32-6.67c3.06-2.29 6.25-4.39 9.49-6.4 3.51-2.1 7.23-4.22 9.63-7.63a7.19 7.19 0 00.69-7.46c-1.23-2.05-3.9-2.42-6.09-2.23-3.5.36-6.6 2.26-9.37 4.3-4.44 3.39-8.52 7.45-11 12.49-.92 1.79-1.31 3.83-2.51 5.48-3 4.41-6 8.87-10 12.43a10.3 10.3 0 01-3.73 2.14 6.25 6.25 0 01-1.93-4.93c.68-5.63 3.58-10.59 5.53-15.83 3.46-7.06 7.2-14 11.12-20.81 8.23-14.17 17.37-28.12 29.5-39.31 7.41-6.84 16.1-12.58 25.9-15.35 5.75-1.55 11.87-2.35 17.77-1.25 5.48 1 10.55 4.66 12.54 10-5.17.82-10.51 2.47-14.25 6.32-4.59 4.62-5.9 11.6-5 17.87a22.34 22.34 0 01-20.13-11.29l-.21.06a15 15 0 005.16 9.88c4.53 3.62 10.51 4.63 16.15 4.93a20.53 20.53 0 005.17 7.71 24.23 24.23 0 0019.75 5.54c5.55-.64 11.44-2.14 15.46-6.26 2.93-2.85 4.26-6.94 4.58-10.93-1.75 2.58-3.1 5.48-5.51 7.55-5 4.82-12.52 6.2-19.24 5.18-5.76-.85-11.59-3.81-14.53-9a23.35 23.35 0 0015.18-9.39c3.16-4.38 3.61-10 2.86-15.24a149.75 149.75 0 0152.68 8.09 21.64 21.64 0 00-10.38 3.83 47.21 47.21 0 00-13.28 14.19c-3.69 5.77-7 11.78-10.17 17.83a184.23 184.23 0 01-13.53 21.38c-4.82 6.69-10.46 12.93-17.42 17.44a35.09 35.09 0 01-15.46 5.67c-5.26 0-10.94-1.08-14.91-4.76-3.61-3.43-4.79-8.63-4.6-13.44a15.47 15.47 0 016.43-11.61 25.5 25.5 0 0117.95-4.23 19.48 19.48 0 0111.5 5.45c2.07 2 3.37 4.54 5.17 6.74-.44-4.38-2.29-8.78-5.8-11.57-4.66-3.78-10.88-4.92-16.73-5.13a23.69 23.69 0 00-21.38 11.33c-2.85 4.93-2.71 11-1.38 16.33a16.56 16.56 0 007.93 10.62c5.84 3.21 12.76 3.2 19.23 2.81a52.28 52.28 0 0018.2-4.22 82.65 82.65 0 0112.57 2.47 133.3 133.3 0 0036.06 3.22 55.59 55.59 0 0020.64-4.74c4.57-2.21 8.84-5.71 10.63-10.59 1.76-4.26.88-9.06-.74-13.21-3.07-7.24-9.24-12.72-16.13-16.28 5.8-1 11.56-3.48 15.67-7.79a14.65 14.65 0 002.59-15.35c-1.72-4.29-5-7.74-8.55-10.61a30.26 30.26 0 00-8.21-5.1c-6.36-2.51-12.52-5.74-19.29-7-13.24-3-26.75-5.4-40.38-5.1a17 17 0 00-3.91-6.33c-3.37-3.43-8.1-5.11-12.77-5.83a55 55 0 00-30.5 4.31m190.58 3.66c-12.16 6.62-22.09 16.62-30.53 27.45-9.81 12.68-17.74 26.71-24.77 41.09-2.73 5.79-5.31 12-5 18.54.09 3.28 2.12 6.73 5.49 7.49s6.35-1.08 8.72-3.13a61.48 61.48 0 0010.07-11.76 14.77 14.77 0 003 11.21 9.79 9.79 0 008.17 3.62c5.53 0 10.14-3.72 13.72-7.56.42 1.76.83 3.67 2.21 5 1.88 1.86 4.76 2.17 7.28 1.86 4.22-.49 7.89-2.88 11.08-5.55.3 1.8 1 3.78 2.71 4.69a7.22 7.22 0 006.81.21 31 31 0 007-5.95 130.85 130.85 0 009.3-11.42c1-1-.83-2.79-1.58-1.4-3.5 4.63-6.86 9.44-11.06 13.49-1.74 1.67-3.67 3.47-6.15 3.87-1.86-.05-2.24-2.26-1.78-3.68.34-2.71 2.33-4.89 2.53-7.6 2.4-3.8 4-8 6.1-12 1.3-3 3-5.9 3.33-9.18-.84-2.41-2-5-4.21-6.43-3.72 8.5-7 17.15-10.61 25.7a40 40 0 01-7.11 9.07c-2.13 1.9-4.84 3.83-7.85 3.27-1.41-.34-2-1.92-1.9-3.22.19-4.73 2.39-9 4.33-13.27 3.08-6.55 7.39-12.72 8.66-20a16.83 16.83 0 00-7-.27 25.1 25.1 0 01-1.94 8.73 133.3 133.3 0 01-8.45 17.63 28 28 0 01-7.31 8.71c-2.78 2.18-6.4 4.08-10 3.08-2.37-1-2.79-3.87-2.7-6.12s.13-4.67 1.55-6.51c4.88-4.13 10.64-7 15.87-10.68 2.77-2.12 5.77-5.09 5.42-8.89a4.62 4.62 0 00-3.21-4.52c-4-1.17-8.06.65-11.34 2.84-5.87 4-11.18 9.37-13.76 16.12-2 1.32-3 3.58-4.5 5.38-3.09 3.91-5.65 8.44-9.91 11.24-1.33.87-3.19 1.65-4.63.57-1.11-1-1.17-2.68-1.06-4.06.3-5.47 3.27-10.17 5.49-15 9.3-18.8 19.69-37.33 33.74-53 8.3-9.18 18.19-17.39 30-21.53a43.52 43.52 0 0119.22-2.34c5.33.68 10.62 3.6 13.1 8.52a17.93 17.93 0 011.18 13.36c-1.44 4.32-4.94 7.69-8.91 9.77a26.58 26.58 0 01-15 2.55 22.19 22.19 0 01-16.18-11.26A14.77 14.77 0 00471 333c4.86 3.54 11.12 4.23 17 4.41 8.58.2 17.42-4.54 21.17-12.39 1.36-3.58 2.38-7.58 1.32-11.37a19.35 19.35 0 00-3.91-9.69c-3.21-4-8.22-6-13.16-6.86a56.27 56.27 0 00-35.72 6.55m-281.06 41.2a3.1 3.1 0 00-2.25 3.67 6.14 6.14 0 005.7 4.61c1.1.1 2.52-.37 2.7-1.63.29-1.51-1.53-2.43-1.47-3.9 2.27-2.63 6.17-2.5 9.33-3.22a36.32 36.32 0 00-14 .47m23.58 74.33a5.19 5.19 0 00-.32 7.78c1.5 1.68 3.81 2.26 5.43 3.79a3.6 3.6 0 01.7 4.47 3.67 3.67 0 01-5.13.59c-1.42-1-1.92-2.7-3-4l-.61.25c0 1.55-.06 3.44 1 4.69a9.39 9.39 0 008.77.11 5.53 5.53 0 001.58-7.88c-1.33-2.06-3.81-2.73-5.72-4.06-1.26-.86-2.21-2.49-1.5-4 1-2.28 4.48-2.29 5.78-.34.64.82.78 2.11 2 2.36a12.62 12.62 0 00-.47-4.33c-2.73-.93-6.07-1.2-8.53.57m62.5-.34a5 5 0 00-2.34 5.41c.43 2.13 2.24 3.6 4.05 4.59s4.1 2.27 4.09 4.65-2.83 3.8-4.83 2.78c-2-.79-2.59-2.92-3.74-4.47l-.64.27c.09 1.8-.18 4.61 2 5.18 2.77 1 6.19.93 8.58-1a5.65 5.65 0 00.08-8.11c-1.95-2.2-5.74-2.44-6.73-5.5-.62-2.55 2.52-4.41 4.67-3.16 1.71.53 1.59 2.91 3.24 3.43a12.44 12.44 0 00-.47-4.34c-2.56-.85-5.58-1.15-8 .24m19.46.2a5.18 5.18 0 00-.59 7.83c1.88 2.23 5.61 2.59 6.57 5.63a3.13 3.13 0 01-3.27 4.08c-2.64-.07-3.93-2.67-5-4.7-1.59 0-.57 2.1-.56 3.12 0 2.14 2.4 2.54 4.06 2.79 2.51.3 5.42-.2 7-2.31a5.78 5.78 0 00-.95-7.6c-2-1.94-5.51-2.31-6.45-5.22-.6-2.49 2.44-4.35 4.57-3.2 1.75.54 1.73 2.86 3.38 3.5a17.48 17.48 0 00-.46-4.45c-2.74-.65-5.9-1.15-8.38.53m-65.4-.17c.82.49 2.39.39 2.43 1.67.32 3.64-.07 7.31.18 11 .16 1.91.79 4 2.5 5.08a10.21 10.21 0 006.44 1.22 6.52 6.52 0 005.86-4.34c1.23-4.22.18-8.67.83-13 .17-1.31 2.13-.89 2.39-2.2-1.57 0-3.12.14-4.68 0-.91 0-2-.33-2.64.51a16.6 16.6 0 012.45 1 7.48 7.48 0 01.54 2.85 48.86 48.86 0 01-.16 9.13c-.32 1.73-1.29 3.59-3.07 4.2-2 .72-4.61.33-5.82-1.56-1.52-2.31-1.25-5.21-1.27-7.84a47 47 0 01.18-6.39c.1-1.23 2.64-.47 2.11-1.93-2.53.1-5.07.1-7.59 0-.18.13-.52.41-.68.55m27.18-.55c-1.19 1.22 2.12.72 2.06 2 .25 3.73 0 7.48.11 11.21-.07 1.45.2 2.95-.23 4.36-.47.75-3 .48-1.92 1.56 2.75.05 5.51 0 8.26 0-.34-1.05-1.54-1-2.34-1.52-.57-3.06-.25-6.2-.33-9.3.07-2.29-.21-4.66.41-6.88.81-.43 2-.38 2.2-1.49-2.74.19-5.49.09-8.22.07m54.94-.07c.11 1.48 2.53.83 2.28 2.48.09 4.25 0 8.5 0 12.75-.07.86.16 1.88-.43 2.62-.88.42-2.24.15-2.52 1.34 5.08 0 10.16-.1 15.24.05.41-1.51 1.23-3 1-4.6-1-.31-1.13 1-1.66 1.58-.94 1.77-3.24 1.67-5 1.66-1.11-.07-2.87 0-3-1.43-.21-2.16 0-4.33-.08-6.48a16.7 16.7 0 014.41.23c1 .34.55 3.16 1.79 2.16a54.15 54.15 0 000-6.11c-1.15-.62-1.05 1.42-1.62 2.05a16 16 0 01-4.58.28v-7.17a19.65 19.65 0 015.36.26c1.45.42 1.14 2.58 2.66 2.93a41.33 41.33 0 00-.35-4.6c-4.39.32-8.92.23-13.44.06z" transform="translate(-1 -56)"/><path class="cls-1" d="M240.25 60.76a38.54 38.54 0 0124.85-1.59 33.86 33.86 0 0120.21 16.14 51.59 51.59 0 00-13.46 9.27c4.15-2.92 8.37-5.83 13.11-7.75 9.42-4.14 20.56-5.1 30.15-1a21.39 21.39 0 0111.05 11.49c3.26 7.71 3.11 16.36 2 24.53-1.52 10.93-4.8 21.54-8.66 31.86a360 360 0 01-28 56.58c.31 15.84.55 31.68 1 47.51-4.35-2.35-9.36-2.94-14.18-3.65a206.54 206.54 0 00-41.3-.55v-44.8a43.18 43.18 0 00-.11-5c-8.42-19.32-15.56-39.28-20.3-59.83-2.36-10.64-4.2-21.48-4.19-32.4-.06-5.66 1.27-11.66 5.12-16a16.88 16.88 0 019.93-5.27c-6.72-3.42-14.33-5.56-21.91-4.86-6.8.75-13.6 3.81-17.89 9.26a28 28 0 00-5.45 13.9c-1 7.91.08 15.93 1.78 23.67 3.39 14.77 9.23 28.86 15.74 42.5a387.89 387.89 0 0019.09 34.82l-1.06.51c-5.5-9-10.6-18.25-15.39-27.65-6.87-13.7-13.14-27.76-17.58-42.44-2.74-9.23-4.88-18.77-4.71-28.45.14-7 1.84-14.37 6.68-19.67 5-5.5 12.56-7.72 19.76-8.17 11.49-.59 22.56 4.15 31.7 10.78a49.35 49.35 0 00-15-10 40 40 0 0117-13.82M225.7 74.16a29.42 29.42 0 019.41 5.77 13.11 13.11 0 011.67-11c3.72-5.53 10.24-8.3 16.54-9.71-10.94.07-21.11 6.39-27.62 14.89m26.3 63.77a525 525 0 002.82 54.21h1.28c-1.56-16.06-2.81-32.15-3.59-48.27a39.38 39.38 0 00-.51-6m32.24 59.21a1.62 1.62 0 001.17-1 243.89 243.89 0 0010.25-23.24 248.17 248.17 0 0010-34.41c-5.75 20-13.81 39.26-21.46 58.6M275.11 162c-1.72 10.43-3.56 20.85-5.28 31.28l2 .25c1.53-11.32 2.49-22.71 3.9-34.05a15.78 15.78 0 00-.64 2.52M232 160c1.29 11.41 4.94 22.38 8.89 33.1l2.38-.25c-4.14-10.81-7.77-21.81-11.27-32.85m46.49 35l1.58.32a149.21 149.21 0 007.78-26.59c-3 8.79-5.71 17.7-9.36 26.27m-18.94-25c.07 7.35-.12 14.72.36 22.06l.88.44c-.15-7.5-.75-15-1-22.48h-.26m28.17 28l2 .85a123.28 123.28 0 0011.3-25.23c-4.37 8.15-8.39 16.5-13.25 24.38m-43.09-20.86c.47 5.1 1.16 10.19 2 15.25l1.45.08c-1.13-5.11-2.14-10.27-3.48-15.33m20.17 15.49h1.14c.49-4.34.64-8.72.93-13.08-.94 4.31-1.42 8.71-2.07 13.06m15-11.6c-1.37 4.54-3.13 9-4.35 13.53l.83-.4a58.72 58.72 0 003.52-13.13m-29.26 11.17h1.35c-.72-3.56-1.38-7.14-2.28-10.67.23 3.59.57 7.14.9 10.69z" transform="translate(-1 -56)"/><path class="cls-1" d="M214.24 171.85c-4.52-10.94-8.38-22.23-10.49-33.9a308.09 308.09 0 0012.81 32.8 164.32 164.32 0 0013.53 24.52c-1.07.36-2.14.7-3.2 1-5.12-7.6-9.01-15.99-12.65-24.42zm-.72 8.78c3.57 5.53 6.95 11.19 10.77 16.56-.95.24-2.32 1.56-2.93.18-3.56-5.07-5.76-10.95-7.84-16.74zm13.78 1.42c2.37 4.06 4.53 8.25 7.25 12.09l-2.58.68a73.69 73.69 0 01-4.67-12.77zm-1.61 64.55c11.19-2.18 22.65-2.45 34-2.34 9.2.31 18.49.75 27.46 3 1.84.59 4.13.91 5.28 2.63-.12 1-1.31 1.29-2.05 1.73-4.16 1.63-8.64 2.22-13 2.83a197.92 197.92 0 01-31 1.06 128.79 128.79 0 01-21.81-2.51c-2.48-.65-5.26-1.11-7.07-3.1 2.12-2.23 5.33-2.63 8.19-3.33m43.37-.63c.53.73 1.57 1.38 1.15 2.41a7.36 7.36 0 01-3.6 2.25 48.89 48.89 0 01-11.88 2.23 166.17 166.17 0 01-19.71.34c5.36 1.17 10.89 1 16.34 1.22 10.16-.16 20.38-.5 30.43-2.17a20.4 20.4 0 006.46-1.9c.21-1.14-1.14-1.22-1.9-1.56-5.64-1.54-11.52-1.91-17.29-2.76zm-63.73 16.56c2.33.52 4.71 2.45 4.47 5.06-.3 2.82-2.5 6.25-5.74 5.76-1.16-.21-3.12-.81-2.73-2.35 1.05-2.97 2.73-5.62 4-8.47zM40.91 315.19c2.89-3.69 7.66-5.36 12.23-5.42 7.63-.12 15 2.34 22 5 4.39 1.64 8.79 3.21 13.16 4.87a106.8 106.8 0 00-20 12.55c-6.38 5.13-12.33 11-16.27 18.25-5.09-1.09-10.15-3.53-13.26-7.83A15.75 15.75 0 0136 332.35c.17-5.97 1.05-12.35 4.91-17.16zm258.15 1.45c2.89-3.26 7.24-4.71 11.46-5.26.52 3.4.57 7.06-1.07 10.19-2.72 5.28-8.17 8.62-13.78 10.16-.87-5.17-.15-11 3.39-15.09zM96.31 320.3a31.83 31.83 0 0113.84-3.3c4.64.37 9.38.83 13.76 2.51 2.53 1 5.08 2.49 6.39 5 .43 1.62.29 4-1.46 4.8a11.66 11.66 0 01-3.44.07c-10.27-.6-20.12-4.2-29.09-9.08zm259.83 8.17a27.79 27.79 0 0114.78-7C376 324.21 381 327.88 384 333c1.94 3.26 1.67 7.23.76 10.76a17.24 17.24 0 01-6.16 9.6 20.37 20.37 0 01-10.14 3.64c-4.08-2.12-8.79-3.59-13.41-2.68a5.3 5.3 0 00-4 5.05c0 1.78-.51 3.87.94 5.25.88-2.48.45-5.78 2.84-7.45 2.59-1.52 5.69-.31 8.32.48 4.35 1.54 8.84 3.21 12.14 6.57a25.79 25.79 0 017.19 14.23c.79 6.44-2.75 12.86-7.94 16.54-5.59 4.15-12.59 5.8-19.45 6.06-10.56 0-21.05-1.41-31.47-3a67 67 0 01-10.84-2.31c7.67-5.4 13-13.39 17.43-21.47 5.12-9.53 9.2-19.56 14.26-29.11 3.26-5.96 6.6-12.06 11.67-16.69zm-115.87 37.97c1.63-2.05 3.26-4.31 5.69-5.48.93-.61 1.89 0 2.78.38q.52.92 1.08 1.8a13 13 0 01-4.34 6.63 123.1 123.1 0 01-12.83 9.79c1.75-4.78 4.67-9 7.62-13.12zm198.92-.72c1.61-2 3.32-4.25 5.9-5 1.57-.14 2.47 1.33 3.14 2.51a13.94 13.94 0 01-4.17 6.35 122.77 122.77 0 01-13 9.95c1.79-5.07 4.94-9.53 8.13-13.81zm-236.96-4.37c1.42-.52 3.42-.5 4.29.95 1.18 2.08.84 4.61.53 6.88-.32 2.84-1.75 5.37-2.69 8-.92 2.38-1.43 4.92-2.69 7.16-1.89 3.51-4 7.13-7.39 9.41-1.73 1.1-4 1.92-6 1.05-1.63-.88-2-2.92-2.09-4.6-.18-6.46 2.28-12.67 5.6-18.11 2.63-4.2 5.64-8.78 10.44-10.74z" transform="translate(-1 -56)"/></g><g id="_002c51ff" data-name="#002c51ff"><path class="cls-2" d="M252 56h6a41.57 41.57 0 0110.42 2.17A40.57 40.57 0 01288.41 74 38.51 38.51 0 01306 71.46c6.89.74 14 3.27 18.66 8.57 4.93 5.48 6.79 13 7.06 20.19.34 11.08-2.17 22-5.39 32.56-6.31 20.06-15.54 39.07-25.7 57.43-2 3.78-4.4 7.34-6.3 11.14-.29 16.16-.32 32.35-.51 48.53-.38 2.43-3.29 3.06-5.24 3.84-10.81 3-22.15 3.4-33.31 3.61-11.09-.17-22.32-.55-33.09-3.42-2-.75-4.85-1.29-5.72-3.51-.21-16.36.12-32.74-.16-49.09-2.79-5.14-5.94-10.11-8.68-15.29a342.68 342.68 0 01-19.37-41.08c-5.08-13.42-9.42-27.42-9.8-41.87-.05-6.39.82-13 3.95-18.67A24.16 24.16 0 01196.78 73a37.3 37.3 0 0125.07 1A39.54 39.54 0 01252 56m-11.79 4.76a40 40 0 00-17 13.82 49.35 49.35 0 0115 10c-9.14-6.63-20.21-11.37-31.7-10.78-7.2.45-14.79 2.67-19.76 8.17-4.84 5.3-6.54 12.68-6.68 19.67-.17 9.68 2 19.22 4.71 28.45 4.44 14.68 10.71 28.74 17.58 42.44 4.79 9.4 9.89 18.64 15.39 27.65l1.06-.51a387.89 387.89 0 01-19.09-34.82c-6.51-13.64-12.35-27.73-15.74-42.5-1.7-7.74-2.82-15.76-1.78-23.67a28 28 0 015.45-13.9c4.29-5.45 11.09-8.51 17.89-9.26 7.58-.7 15.19 1.44 21.91 4.86a16.88 16.88 0 00-9.93 5.27c-3.85 4.34-5.18 10.34-5.12 16 0 10.92 1.83 21.76 4.19 32.4 4.74 20.55 11.88 40.51 20.3 59.83a43.18 43.18 0 01.11 5v44.8a206.54 206.54 0 0141.3.55c4.82.71 9.83 1.3 14.18 3.65-.48-15.83-.72-31.67-1-47.51a360 360 0 0028-56.58c3.86-10.32 7.14-20.93 8.66-31.86 1.06-8.17 1.21-16.82-2-24.53a21.39 21.39 0 00-11.05-11.49c-9.59-4.14-20.73-3.18-30.15 1-4.74 1.92-9 4.83-13.11 7.75a51.59 51.59 0 0113.46-9.27 33.86 33.86 0 00-20.19-16.22 38.54 38.54 0 00-24.85 1.59m-26 111.09c3.64 8.43 7.53 16.82 12.65 24.46 1.06-.34 2.13-.68 3.2-1a164.32 164.32 0 01-13.53-24.52A308.09 308.09 0 01203.75 138c2.11 11.67 6 23 10.49 33.9m-.72 8.78c2.08 5.79 4.28 11.67 7.84 16.74.61 1.38 2 .06 2.93-.18-3.82-5.37-7.2-11-10.77-16.56m13.78 1.42a73.69 73.69 0 004.7 12.72l2.58-.68c-2.72-3.84-4.88-8-7.25-12.09m-1.61 64.55c-2.86.7-6.07 1.1-8.19 3.33 1.81 2 4.59 2.45 7.07 3.1a128.79 128.79 0 0021.81 2.45 197.92 197.92 0 0031-1.06c4.4-.61 8.88-1.2 13-2.83.74-.44 1.93-.74 2.05-1.73-1.15-1.72-3.44-2-5.28-2.63-9-2.22-18.26-2.66-27.46-3-11.38-.08-22.84.19-34.03 2.37z" transform="translate(-1 -56)"/><path class="cls-2" d="M225.7 74.16c6.51-8.5 16.68-14.82 27.62-14.89-6.32 1.41-12.82 4.18-16.54 9.73a13.11 13.11 0 00-1.67 11 29.42 29.42 0 00-9.41-5.84zm-69.08 69.5a19.49 19.49 0 019.15-8.76 22.31 22.31 0 01.92 12.42c-1.36 5.82-5.47 10.64-10.36 13.92 1.79-5.53 3.78-11 5.45-16.56-3.31 4.93-4.95 10.74-6.6 16.38-1.18-5.74-1.18-12.06 1.44-17.4zm188.07 3.4a21.29 21.29 0 011-12.08 18.85 18.85 0 019.57 9.73c2.15 5.14 2.12 10.93 1 16.31-1.71-5.62-3.34-11.43-6.63-16.37 1.6 5.58 3.66 11 5.41 16.56-4.9-3.36-9.04-8.21-10.35-14.15zM252 137.88a39.38 39.38 0 01.51 6c.78 16.12 2 32.21 3.59 48.27h-1.28a525 525 0 01-2.82-54.27zm32.25 59.21c7.65-19.34 15.71-38.59 21.46-58.6a248.17 248.17 0 01-10 34.41 243.89 243.89 0 01-10.25 23.24 1.62 1.62 0 01-1.21.95zm-136.99-56.43a2.91 2.91 0 11.35 5.19 2.94 2.94 0 01-.35-5.19zm213.94.03a2.9 2.9 0 11.34 5.16 2.89 2.89 0 01-.34-5.16zm-220.07 23.24a19.49 19.49 0 01-.66-13 21 21 0 0111.17 9.51 24 24 0 012.17 15.56c-2.13-5.76-4.29-11.68-8.17-16.52 2.16 5.46 4.55 10.83 6.74 16.29-4.76-2.77-9.05-6.71-11.25-11.84zM361 158.55a21.62 21.62 0 0110-7.55 19.58 19.58 0 01-.64 12.95c-2.22 5.11-6.47 9.08-11.24 11.85 2.18-5.47 4.56-10.86 6.76-16.31-4 4.81-6 10.83-8.27 16.55-1.01-5.98-.15-12.47 3.39-17.49zm-196.75-1.48a19.49 19.49 0 0110.46-4.95 22 22 0 01-2.89 12.51c-2.92 4.78-7.83 8-13.08 9.79 3-4.9 6.24-9.59 9.16-14.51-5 3.6-8.11 9.08-10.82 14.46.32-6.37 2.48-12.86 7.17-17.3zm172.53-4.94a19.21 19.21 0 0112.12 6.77c3.51 4.34 5.13 9.94 5.48 15.44-2.79-5.42-6-10.93-11-14.6 3.05 4.93 6.26 9.75 9.34 14.66-5.82-1.86-11.27-5.73-13.94-11.34a21.52 21.52 0 01-2-10.93zM275.11 162a15.78 15.78 0 01.64-2.52c-1.41 11.34-2.37 22.73-3.9 34.05l-2-.25c1.7-10.46 3.54-20.88 5.26-31.28zM232 160c3.5 11 7.13 22 11.27 32.85l-2.38.25C237 182.39 233.3 171.42 232 160zm46.5 35c3.65-8.57 6.36-17.48 9.36-26.27a149.21 149.21 0 01-7.78 26.59zm-18.94-25h.26c.23 7.5.83 15 1 22.48l-.88-.44c-.5-7.32-.31-14.69-.38-22.04zm-121.47 1.43c5 1.27 9.8 4.09 12.66 8.5a24.54 24.54 0 013.8 14.57c-2.61-5.34-5.46-10.79-10-14.78 2.68 5 5.71 9.81 8.45 14.78-5.22-2.23-10.14-5.76-12.91-10.82a19.61 19.61 0 01-2-12.25zm223.51 7.25a21.23 21.23 0 0111.74-7.24 19.22 19.22 0 01-3.09 14c-2.88 4.18-7.25 7.08-11.83 9.12 2.77-5 5.78-9.88 8.54-14.89-4.61 4-7.47 9.55-10.14 15-.13-5.67 1.25-11.52 4.78-15.99zm-201.39.82a19.32 19.32 0 019-7.55c1.56 5.12 1.6 10.9-.91 15.73a25.57 25.57 0 01-9.47 10c1.6-5.45 3.65-10.75 5.31-16.18-3 5-4.85 10.7-6.61 16.28-1.06-6.1-.67-12.84 2.68-18.28zm181.94-7.56a19.45 19.45 0 019.2 7.74c3.26 5.38 3.48 12 2.61 18-.39-.25-.37-.86-.56-1.24a72.57 72.57 0 00-6.07-14.87c1.6 5.42 3.6 10.7 5.25 16.09a23.94 23.94 0 01-10.52-12.45 22.07 22.07 0 01.09-13.27zM287.73 198c4.86-7.88 8.88-16.23 13.25-24.38a123.28 123.28 0 01-11.24 25.23zm-43.09-20.84c1.34 5.06 2.35 10.22 3.48 15.33l-1.45-.08c-.87-5.06-1.56-10.15-2.03-15.25zm-111.78 7.48a2.91 2.91 0 11-.58 4.9 2.91 2.91 0 01.58-4.9zm243.05.08a2.91 2.91 0 11.37 5.25 2.91 2.91 0 01-.37-5.25zM163.4 199.91a19.23 19.23 0 017.53-9.46 21.39 21.39 0 012.63 13.34 23.84 23.84 0 01-7.77 13.85c.83-6.11 1.79-12.2 2.67-18.3-2.51 5.89-3.26 12.33-4 18.64-2.27-5.66-3.1-12.2-1.06-18.07zm177.09-9.49a19.32 19.32 0 017.53 9.46c2.09 5.9 1.18 12.44-1.06 18.15-.75-6.2-1.39-12.58-3.9-18.37.78 6 1.78 12 2.6 18-4.08-3.8-7.23-8.86-7.87-14.47a21.87 21.87 0 012.7-12.77zm-201.71 1.32a21 21 0 0113.9 6.45 25.21 25.21 0 016.09 14.07c-3.41-4.86-6.88-10.09-12.22-13 3.35 4.34 6.93 8.5 10.31 12.82-5.78-1.5-11.49-4.5-14.88-9.56a19.93 19.93 0 01-3.2-10.78zm221.04 5.4c3.41-3.32 8.14-4.95 12.82-5.4a19.34 19.34 0 01-3.74 11.54c-3.46 4.62-8.86 7.33-14.33 8.81 3.38-4.34 6.95-8.54 10.35-12.85-5.38 2.91-8.84 8.17-12.28 13 .7-5.57 2.94-11.24 7.18-15.1zm-188.89 23.31a19.26 19.26 0 014.46-11.14 21.67 21.67 0 016.13 10.69c1.29 5.84-.27 12-3.29 17-.87-6.19-1.55-12.42-2.44-18.61-1.46 6.09-.39 12.41.81 18.45-3.51-4.7-5.98-10.45-5.67-16.39zm159.07-1a21.82 21.82 0 016-10.17 19.58 19.58 0 014.36 10.2 24.3 24.3 0 01-5.63 17.25 44.59 44.59 0 00.97-18.73c-.92 6.33-1.63 12.69-2.47 19-3.14-5.17-4.69-11.57-3.23-17.55zm-188.65-7.21a21.73 21.73 0 0113.8 2.11 24.48 24.48 0 0110.62 12.94c-4.25-4.22-9.34-7.81-15.24-9.25 4.28 3.24 8.82 6.15 13 9.53-5.76-.15-11.77-1.6-16.2-5.47a19.75 19.75 0 01-5.98-9.86zm215.3 1.91a21.59 21.59 0 0113.43-1.88 19.19 19.19 0 01-8.24 11.51c-4.18 2.69-9.21 3.64-14.11 3.81 4.35-3.26 8.82-6.36 13.23-9.55-5.91 1.41-11 5-15.26 9.26a24 24 0 0110.95-13.15zm-170.15 9.09c7.64 5.67 10.83 16.25 8 25.27-.91-5.57-2.16-11.41-5.59-16a77.32 77.32 0 003.86 18.85c-4.2-4.51-7.77-9.93-8.74-16.12a17.38 17.38 0 012.47-12zm130.5 25.2a23.12 23.12 0 018-25.2 17.66 17.66 0 012.14 13.42 30.81 30.81 0 01-8.41 14.49 78.09 78.09 0 003.83-18.7c-3.47 4.6-4.8 10.41-5.56 15.99zM141.7 224a2.9 2.9 0 013.67 2.85c.17 2.26-2.83 3.7-4.56 2.34a2.93 2.93 0 01.89-5.19zm226.3 0a2.92 2.92 0 11-1 4.83 2.93 2.93 0 011-4.83zm-219 6.54a21 21 0 0114.25-.43 24.68 24.68 0 0112.3 10.16c-5.79-1.79-11.55-3.69-17.34-5.5 4.59 3.7 10.48 5 16 6.6-6 1-12.45.77-17.74-2.41a19.87 19.87 0 01-7.47-8.42zm186.93 9.68c3.48-5.53 9.13-10 15.75-10.95a23.53 23.53 0 0110.71 1.17 18.92 18.92 0 01-8.39 9c-5.13 2.68-11.18 2.82-16.79 1.88 5.58-1.55 11.44-2.93 16.08-6.59-5.81 1.78-11.55 3.77-17.36 5.49zm-176.6 6.84a26.27 26.27 0 0116.23-2.2 24 24 0 0114.95 9.4c-6.25-2-12.53-3.9-18.95-5.24 6.55 4.93 14.75 6.77 22.46 9-8.39.84-17.34 1.2-25.18-2.41a24.38 24.38 0 01-9.51-8.55zM334 245.29a25.78 25.78 0 0118.06 1.79 24.63 24.63 0 01-7.31 7.35c-4.94 3.16-10.94 4.05-16.71 4.17a66.26 66.26 0 01-10.54-.56c7.7-2.25 15.84-4.13 22.37-9-6.41 1.34-12.68 3.26-18.92 5.23a23.38 23.38 0 0113.05-8.98zm-64.94.71c5.77.88 11.65 1.25 17.29 2.82.76.34 2.11.42 1.9 1.56a20.4 20.4 0 01-6.46 1.9c-10.05 1.67-20.27 2-30.43 2.17-5.45-.23-11 0-16.34-1.22a166.17 166.17 0 0019.71-.34 48.89 48.89 0 0011.88-2.23 7.36 7.36 0 003.6-2.25c.42-1.06-.62-1.71-1.15-2.41zm34.78 22a9 9 0 014.39-8.16l.43.21c-1.1 1.58-2.63 3-2.8 5.07a8 8 0 003 7.26 1.51 1.51 0 002.35-1.45 4 4 0 00-2.81-3.39c-.65.14-1.3.3-1.93.49.6-1.09 1.51-2.22 2.89-2.19 2.17-.05 3.52 2.19 3.52 4.14 0 2.85-3.57 4.81-6 3.45a6.63 6.63 0 01-3.04-5.43zM202 260.11c3.16 1 6.44 2.29 8.76 4.73 2.82 3.13.86 8.76-3.26 9.56s-7.48-1.93-10.83-3.68c.84-.18 2.07.25 2.4-.82 1.42-2.77 2.83-5.55 4.06-8.4-.39-.46-.76-.93-1.13-1.39m3.3 2.39c-1.27 2.85-3 5.52-4 8.47-.39 1.54 1.57 2.14 2.73 2.35 3.24.49 5.44-2.94 5.74-5.76.23-2.56-2.11-4.56-4.44-5.06zm10.31 3.78c3 .58 5.73 1.82 8.65 2.55-.2 1-.39 2-.67 3a21.62 21.62 0 01-.93-2.16c-.9-.86-2.25-1-3.36-1.42-.51 1.44-1 2.9-1.4 4.38a17.67 17.67 0 002.7.64l1.59-1.26a12 12 0 01-1.61 4.42c-.08-.48-.24-1.45-.33-1.93a16.41 16.41 0 00-2.66-1 18.94 18.94 0 00-1.22 4.4c.61.93 1.93 1.06 2.94 1.38 1.34.48 2.28-.85 3.36-1.35a5.82 5.82 0 01-1.49 2.85c-2-.39-3.83-1.25-5.78-1.77-1.26-.51-2.81-.54-3.72-1.67l2 .23a101 101 0 003.31-9.91c-.48-.46-.94-.92-1.38-1.38zm68.82 4.37a4 4 0 015.95.35c3.13 4.22.28 11.15-4.84 12 1.15-1.28 2.7-2.28 3.36-3.93a8.94 8.94 0 00-.77-7.64c-.41-.86-1.81-1.52-2.44-.54-1.32 2 .71 5.44 3.25 4.5a3 3 0 01-4.68.51 4 4 0 01.17-5.25zm-58.18-.93c2.64.25 5.45.49 7.79 1.85a3.38 3.38 0 01.09 5.48c-1.28 1-3 .79-4.48.35 1.33-.5 3-1 3.25-2.65.71-1.85-.93-3.57-2.76-3.63-.63 3.39-1.52 6.74-2 10.15.53.56 1.24.92 1.79 1.47a48.69 48.69 0 01-6-1.25c.59-.24 1.17-.48 1.78-.69.73-2.94 1.32-5.91 1.9-8.89.51-1.09-.8-1.52-1.36-2.19zm48.64 3.73c1.3-.75 2.64-1.45 3.94-2.2.63 3.6 1.16 7.22 2 10.78.69.11 1.39.23 2.09.39a23.91 23.91 0 01-6.21 1.28c.58-.51 1.26-.89 1.83-1.41a66.5 66.5 0 00-1.35-7.92c-.19-1.12-1.57-.65-2.3-.92zm-37.55-1.56a24.06 24.06 0 015.93.71l-1.83.53a56.66 56.66 0 00-.78 7.23c0 1.66 1 3.57 2.81 3.65a3.26 3.26 0 003.61-2.93 28.18 28.18 0 00.5-7.09c-.54-.44-1.09-.86-1.65-1.25 1.54 0 3.07.19 4.61.27v.62l-1.35.21c-.78 2.67-.51 5.52-1.26 8.2-1.09 4-7.52 3.91-9.26.54-.85-3.11.27-6.34.26-9.5-.52-.38-1.06-.78-1.59-1.19zm23.66 1.37c1.53-1.07 3.5-.78 5.25-.51.17 1 .33 2.05.42 3.09-.75-.7-1.31-1.56-2.08-2.22-1.48-.95-3.71.55-3 2.3 1.09 1.81 3.59 1.88 4.86 3.52a3.59 3.59 0 01-.65 5.17 6.11 6.11 0 01-5.74.26c-.77-.91-.69-2.21-.83-3.32 1.19.71 1.65 2.22 2.93 2.83a2.36 2.36 0 002.78-.75 2.27 2.27 0 00-.7-2.92c-1.35-1-3.08-1.43-4.08-2.82a3.27 3.27 0 01.84-4.63zm-9.43-.26c1.94.08 4-.26 5.86.3-.74.41-2 .54-1.78 1.69a71.22 71.22 0 000 9.24 11 11 0 001.69 1.07c-1.95.05-4 .37-5.88-.21.41-.48 1.73-.41 1.69-1.27.26-3 .19-5.95.16-8.92.12-1.09-1.19-1.31-1.74-1.9zm15.48 27a55 55 0 0130.54-4.33c4.67.72 9.4 2.4 12.77 5.83a17 17 0 013.91 6.33c13.63-.3 27.14 2.08 40.38 5.1 6.77 1.3 12.93 4.53 19.29 7a30.26 30.26 0 018.21 5.1c3.55 2.87 6.83 6.32 8.55 10.61a14.65 14.65 0 01-2.59 15.36c-4.11 4.31-9.87 6.76-15.67 7.79 6.89 3.56 13.06 9 16.13 16.28 1.62 4.15 2.5 8.95.74 13.21-1.79 4.88-6.06 8.38-10.63 10.59a55.59 55.59 0 01-20.68 4.75 133.3 133.3 0 01-36.12-3.22 82.65 82.65 0 00-12.57-2.47 52.28 52.28 0 01-18.2 4.22c-6.47.39-13.39.4-19.23-2.81a16.56 16.56 0 01-7.88-10.62c-1.33-5.37-1.47-11.4 1.38-16.33a23.69 23.69 0 0121.38-11.33c5.85.21 12.07 1.35 16.73 5.13 3.51 2.79 5.36 7.19 5.8 11.57-1.8-2.2-3.1-4.77-5.17-6.74a19.48 19.48 0 00-11.5-5.45 25.5 25.5 0 00-17.95 4.23 15.47 15.47 0 00-6.43 11.61c-.19 4.81 1 10 4.6 13.44 4 3.68 9.65 4.79 14.91 4.76a35.09 35.09 0 0015.46-5.67c7-4.51 12.6-10.75 17.42-17.44a184.23 184.23 0 0013.53-21.38c3.2-6.05 6.48-12.06 10.17-17.83a47.21 47.21 0 0113.27-14.19 21.64 21.64 0 0110.4-3.83 149.75 149.75 0 00-52.85-8.15c.75 5.2.3 10.86-2.86 15.24a23.35 23.35 0 01-15.18 9.39c2.94 5.2 8.77 8.16 14.53 9 6.72 1 14.21-.36 19.24-5.18 2.41-2.07 3.76-5 5.51-7.55-.32 4-1.65 8.08-4.58 10.93-4 4.12-9.91 5.62-15.46 6.26a24.23 24.23 0 01-19.75-5.54 20.53 20.53 0 01-5.17-7.71c-5.64-.3-11.62-1.31-16.15-4.93a15 15 0 01-5.16-9.88l.21-.06a22.34 22.34 0 0020.13 11.29c-.9-6.27.41-13.25 5-17.87 3.74-3.85 9.08-5.5 14.25-6.32-2-5.3-7.06-8.94-12.54-10-5.9-1.1-12-.3-17.77 1.25-9.8 2.77-18.49 8.51-25.9 15.35C241.35 326 232.21 340 224 354.15c-3.92 6.82-7.66 13.75-11.12 20.81-2 5.24-4.85 10.2-5.53 15.83a6.25 6.25 0 001.93 4.93 10.3 10.3 0 003.73-2.14c4-3.56 7-8 10-12.43 1.2-1.65 1.59-3.69 2.51-5.48 2.52-5 6.6-9.1 11-12.49 2.77-2 5.87-3.94 9.37-4.3 2.19-.19 4.86.18 6.09 2.23a7.19 7.19 0 01-.69 7.46c-2.4 3.41-6.12 5.53-9.63 7.63-3.24 2-6.43 4.11-9.49 6.4-2.12 1.48-2.09 4.36-2.32 6.67s.08 5.48 2.54 6.59c2.76.9 5.74-.13 8.12-1.58 6.24-3.92 9.85-10.56 14.2-16.27.7.2 1.59.51 1.31 1.46a38.8 38.8 0 01-3.84 6.15c-3.27 4.45-7 8.85-12.13 11.27-3.93 1.84-9.11 1.91-12.51-1.05-3.13-2.73-4.48-7-4.41-11-2.95 3.87-5.28 8.35-9.18 11.39a8.55 8.55 0 01-9.6.75 7.28 7.28 0 01-2.82-4.44c-3.4 3.27-7.79 6.08-12.68 5.91a7.6 7.6 0 01-6.32-2.79c-1.93-2.61-2.05-6-1.89-9.15a55.42 55.42 0 01-7.9 8.37c-2.26 1.81-5 3.56-8 3.32a6.82 6.82 0 01-6.31-3.54c-1.46-3-1.21-6.52-.63-9.72-3.21 4.09-6.62 8.16-10.88 11.2a7.21 7.21 0 01-7.42.72c-2.05-.79-2.91-3-3.23-5-3.32 2.89-7.32 5.36-11.82 5.65-2.68.23-5.8-.5-7.32-2.92a11.43 11.43 0 01-1.3-7.49c3.74-7 7.67-13.89 10.33-21.36a22.07 22.07 0 001.6-7.92 16.3 16.3 0 017 .26c-1.47 7.9-6.31 14.54-9.53 21.76-1.72 3.93-3.68 8-3.4 12.42a2.82 2.82 0 003.55 2.34c3.75-.57 6.45-3.56 8.86-6.23 1.91-2.42 4-4.82 5-7.75 3.35-8.07 6.4-16.25 10.06-24.19a12.85 12.85 0 014 6.33c0 2.67-1.41 5.07-2.41 7.48-2.29 4.66-4.3 9.47-7 13.93-.11 2.37-1.81 4.26-2.29 6.55-.44 1.48-.83 3.7.88 4.54 1.86.36 3.49-.94 4.89-2 6.36-5.57 11.19-12.62 15.76-19.66 1.67-2.6 3.94-5 4.56-8.08a18.68 18.68 0 00-.44-8.21c2.45-.05 4.54 1.37 6.45 2.74a6.78 6.78 0 012.68 3.17c-5.17 8.4-10.08 17.1-12.93 26.6-.38 1.9-1.16 4.5.64 5.92.71.7 1.83.48 2.71.27 2.62-.9 4.67-2.87 6.56-4.82a64.51 64.51 0 008-10.67 40.07 40.07 0 0112.87-18.12c3.54-2.89 8.17-5.05 12.83-4.15a7.68 7.68 0 014.76 3c8.48-16 18.33-31.51 31.16-44.42 7-6.83 14.86-12.93 23.86-16.88m32 16.66c-3.54 4.09-4.26 9.92-3.39 15.09 5.61-1.54 11.06-4.88 13.78-10.16 1.64-3.13 1.59-6.79 1.07-10.19-4.22.55-8.57 2-11.46 5.26m57.08 11.83c-5.07 4.63-8.41 10.73-11.63 16.7-5.06 9.55-9.14 19.58-14.26 29.11-4.47 8.08-9.76 16.07-17.43 21.47a67 67 0 0010.84 2.31c10.42 1.58 20.91 2.95 31.47 3 6.86-.26 13.86-1.91 19.45-6.06 5.19-3.68 8.73-10.1 7.94-16.54a25.79 25.79 0 00-7.19-14.23c-3.3-3.36-7.79-5-12.14-6.57-2.63-.79-5.73-2-8.32-.48-2.39 1.67-2 5-2.84 7.45-1.45-1.38-.93-3.47-.94-5.25a5.3 5.3 0 014-5.05c4.62-.91 9.33.56 13.41 2.68a20.37 20.37 0 0010.14-3.64 17.24 17.24 0 006.16-9.6c.91-3.53 1.18-7.5-.76-10.76-3-5.12-8-8.79-13.08-11.57a27.79 27.79 0 00-14.78 7m-115.87 38c-3 4.12-5.87 8.34-7.62 13.12a123.1 123.1 0 0012.83-9.79 13 13 0 004.34-6.63q-.56-.88-1.08-1.8c-.89-.34-1.85-1-2.78-.38-2.43 1.17-4.06 3.43-5.69 5.48m-38-5.09c-4.8 2-7.81 6.54-10.43 10.77-3.32 5.44-5.78 11.65-5.6 18.11.13 1.68.46 3.72 2.09 4.6 2 .87 4.26.05 6-1.05 3.37-2.28 5.5-5.9 7.39-9.41 1.26-2.24 1.77-4.78 2.69-7.16.94-2.66 2.37-5.19 2.69-8 .31-2.27.65-4.8-.53-6.88-.74-1.45-2.74-1.47-4.16-.95zm255.54-57.68a56.27 56.27 0 0135.72-6.55c4.94.83 9.95 2.87 13.16 6.86a19.35 19.35 0 013.91 9.69c1.06 3.79 0 7.79-1.32 11.37-3.75 7.85-12.59 12.59-21.17 12.39-5.84-.18-12.1-.87-17-4.41a14.77 14.77 0 01-5.72-10.67 22.19 22.19 0 0016.18 11.26 26.58 26.58 0 0015-2.55c4-2.08 7.47-5.45 8.91-9.77a17.93 17.93 0 00-1.18-13.36c-2.48-4.92-7.77-7.84-13.1-8.52a43.52 43.52 0 00-19.22 2.34c-11.83 4.14-21.72 12.35-30 21.53-14.05 15.71-24.44 34.24-33.74 53-2.22 4.83-5.19 9.53-5.49 15-.11 1.38-.05 3 1.06 4.06 1.44 1.08 3.3.3 4.63-.57 4.26-2.8 6.82-7.33 9.91-11.24 1.49-1.8 2.51-4.06 4.5-5.38 2.58-6.75 7.89-12.07 13.76-16.12 3.28-2.19 7.35-4 11.34-2.84a4.62 4.62 0 013.21 4.52c.35 3.8-2.65 6.77-5.42 8.89-5.23 3.64-11 6.55-15.87 10.68-1.42 1.84-1.39 4.3-1.55 6.51s.33 5.16 2.7 6.12c3.62 1 7.24-.9 10-3.08a28 28 0 007.31-8.71 133.3 133.3 0 008.45-17.63 25.1 25.1 0 001.94-8.73 16.83 16.83 0 017 .27c-1.27 7.25-5.58 13.42-8.66 20-1.94 4.22-4.14 8.54-4.33 13.27-.07 1.3.49 2.88 1.9 3.22 3 .56 5.72-1.37 7.85-3.27a40 40 0 007.11-9.07c3.57-8.55 6.89-17.2 10.61-25.7 2.25 1.42 3.37 4 4.21 6.43-.31 3.28-2 6.21-3.33 9.18-2.07 4-3.7 8.2-6.1 12-.2 2.71-2.19 4.89-2.53 7.6-.46 1.42-.08 3.63 1.78 3.68 2.48-.4 4.41-2.2 6.15-3.87 4.2-4.05 7.56-8.86 11.06-13.49.75-1.39 2.61.44 1.58 1.4a130.85 130.85 0 01-9.3 11.42 31 31 0 01-7 5.95 7.22 7.22 0 01-6.81-.21c-1.73-.91-2.41-2.89-2.71-4.69-3.19 2.67-6.86 5.06-11.08 5.55-2.52.31-5.4 0-7.28-1.86-1.38-1.29-1.79-3.2-2.21-5-3.58 3.84-8.19 7.59-13.72 7.56a9.79 9.79 0 01-8.17-3.62 14.77 14.77 0 01-3-11.21 61.48 61.48 0 01-10.07 11.76c-2.37 2.05-5.45 4-8.72 3.13s-5.4-4.21-5.49-7.49c-.32-6.52 2.26-12.75 5-18.54 7-14.38 15-28.41 24.77-41.09 8.44-10.83 18.37-20.83 30.53-27.45m-18.44 62.08c-3.19 4.29-6.34 8.74-8.15 13.8a122.77 122.77 0 0013-9.95 13.94 13.94 0 004.17-6.35c-.67-1.18-1.57-2.65-3.14-2.51-2.51.81-4.22 3.07-5.83 5.06zM43.51 309c5.91-2.5 12.57-2.24 18.73-.87 10.28 2.25 20.11 6.09 29.82 10.07a60.72 60.72 0 0117.13-2.79 34.8 34.8 0 0116.55 2.92c3 1.36 5.88 3.42 7.31 6.46 1 2.08-.43 4.48-2.16 5.69-3 2.06-6.9 1.69-10.38 1.48-10.16-.73-19.14-6-28.2-10.14-12.88 6.24-23.31 16.75-30.78 28.8a22.92 22.92 0 005-1.52c4.4-2 7.48-5.82 10.22-9.64-.44 3.32-1.46 6.71-3.84 9.18-3.42 3.66-8.48 5.06-13.29 5.77a58.28 58.28 0 00-6.95 20.14c-.71 5.15-.86 10.52.81 15.51 1.5 4.47 4.66 8.59 9.1 10.44 5.23 2.19 11.19 1.91 16.56.43 8.07-2.3 14.79-7.87 20.16-14.15 3.72-4 5.49-9.36 7.89-14.21 2.14-4.08 2.24-8.95 1.16-13.34-.82-3.12-4.16-4.56-7.09-5-5.74-.69-11.52.37-17.1 1.66-4.43 1.15-8.92 2.06-13.3 3.4 8.45-4.68 17.69-8.76 27.54-8.72 4.57-.13 9.62.71 12.91 4.15 3.44 3.71 3.83 9.16 3.22 13.94-1.14 8.34-5.35 15.74-9.09 23.13a232.77 232.77 0 01-15.94 26.4c-8.59 12.14-18.72 23.54-31.44 31.5A60.13 60.13 0 0130.34 459h-7c-5.41-.43-11-1.6-15.38-5a18.11 18.11 0 01-6.39-12.1 18.77 18.77 0 012.73-13.49 24.05 24.05 0 0120.3-10.24c5.87.26 12.15 1.13 16.91 4.85 3.18 2.44 4.8 6.35 5.22 10.24-1.69-2.16-3.06-4.6-5.16-6.42-4-3.72-9.64-5.19-15-5a23.21 23.21 0 00-16.3 6.66 14.84 14.84 0 00-4.17 8.91c-.4 4.65.57 9.7 3.8 13.24 3.46 3.82 8.68 5.56 13.73 5.78a48.26 48.26 0 0023.67-5.71 82 82 0 0020.8-16.05c11.77-12.17 20.59-26.76 28.78-41.46-5.87 5.4-13 9.79-21.1 10.78A27.63 27.63 0 0155.29 399a25.14 25.14 0 01-9.87-16c-1.76-9.69.38-19.71 4.45-28.56a25.06 25.06 0 01-13.27-7.07 18.43 18.43 0 01-5.23-12.57c0-5.55.57-11.25 2.84-16.38a18 18 0 019.3-9.39m-2.6 6.18c-3.86 4.79-4.74 11.17-4.91 17.14a15.75 15.75 0 002.77 10.28c3.11 4.3 8.17 6.74 13.26 7.83 3.94-7.23 9.89-13.12 16.27-18.25a106.8 106.8 0 0120-12.55c-4.37-1.66-8.77-3.23-13.16-4.87-7-2.68-14.38-5.14-22-5-4.57.06-9.34 1.73-12.23 5.42m55.4 5.11c9 4.88 18.82 8.48 29.09 9.09a11.66 11.66 0 003.44-.07c1.75-.81 1.89-3.18 1.46-4.8-1.31-2.48-3.86-4-6.39-5-4.38-1.68-9.12-2.14-13.76-2.51a31.83 31.83 0 00-13.84 3.27z" transform="translate(-1 -56)"/><path class="cls-2" d="M176.57 344.84a36.32 36.32 0 0114-.47c-3.16.72-7.06.59-9.33 3.22-.06 1.47 1.76 2.39 1.47 3.9-.18 1.26-1.6 1.73-2.7 1.63a6.14 6.14 0 01-5.7-4.61 3.1 3.1 0 012.26-3.67zm23.58 74.33c2.46-1.77 5.8-1.5 8.53-.57a12.62 12.62 0 01.47 4.33c-1.18-.25-1.32-1.54-2-2.36-1.3-1.95-4.83-1.94-5.78.34-.71 1.51.24 3.14 1.5 4 1.91 1.33 4.39 2 5.72 4.06a5.53 5.53 0 01-1.58 7.88 9.39 9.39 0 01-8.77-.11c-1.07-1.25-1-3.14-1-4.69l.61-.25c1 1.3 1.53 3 3 4a3.67 3.67 0 005.13-.59 3.6 3.6 0 00-.7-4.47c-1.62-1.53-3.93-2.11-5.43-3.79a5.19 5.19 0 01.3-7.78zm62.5-.34c2.42-1.39 5.44-1.09 8-.24a12.44 12.44 0 01.47 4.34c-1.65-.52-1.53-2.9-3.24-3.43-2.15-1.25-5.29.61-4.67 3.16 1 3.06 4.78 3.3 6.73 5.5a5.65 5.65 0 01-.08 8.11c-2.39 1.9-5.81 2-8.58 1-2.22-.57-1.95-3.38-2-5.18l.64-.27c1.15 1.55 1.78 3.68 3.74 4.47 2 1 5-.37 4.83-2.78s-2.25-3.68-4.09-4.65-3.62-2.46-4.05-4.59a5 5 0 012.3-5.44zm19.46.17c2.48-1.68 5.64-1.18 8.38-.53A17.48 17.48 0 01291 423c-1.65-.64-1.63-3-3.38-3.5-2.13-1.15-5.17.71-4.57 3.2.94 2.91 4.47 3.28 6.45 5.22a5.78 5.78 0 01.95 7.6c-1.63 2.11-4.54 2.61-7 2.31-1.66-.25-4.05-.65-4.06-2.79 0-1-1-3.13.56-3.12 1 2 2.33 4.63 5 4.7a3.13 3.13 0 003.27-4.08c-1-3-4.69-3.4-6.57-5.63a5.18 5.18 0 01.46-7.91zm-65.4-.14c.16-.14.5-.42.68-.55 2.52.06 5.06.06 7.59 0 .53 1.46-2 .7-2.11 1.93a47 47 0 00-.18 6.39c0 2.63-.25 5.53 1.27 7.84 1.21 1.89 3.83 2.28 5.82 1.56 1.78-.61 2.75-2.47 3.07-4.2a48.86 48.86 0 00.16-9.13 7.48 7.48 0 00-.54-2.85 16.6 16.6 0 00-2.45-1c.64-.84 1.73-.52 2.64-.51 1.56.09 3.11-.06 4.68 0-.26 1.31-2.22.89-2.39 2.2-.65 4.29.4 8.74-.83 13a6.52 6.52 0 01-5.86 4.34 10.21 10.21 0 01-6.44-1.22c-1.71-1.09-2.34-3.17-2.5-5.08-.25-3.65.14-7.32-.18-11-.04-1.33-1.61-1.23-2.43-1.72zm27.18-.55c2.73 0 5.48.12 8.22-.07-.18 1.11-1.39 1.06-2.2 1.49-.62 2.22-.34 4.59-.41 6.88.08 3.1-.24 6.24.33 9.3.8.49 2 .47 2.34 1.52-2.75-.07-5.51 0-8.26 0-1-1.08 1.45-.81 1.92-1.56.43-1.41.16-2.91.23-4.36-.08-3.73.14-7.48-.11-11.21.05-1.3-3.25-.77-2.06-1.99zm54.94-.07c4.52.17 9.05.26 13.57 0a41.33 41.33 0 01.35 4.6c-1.52-.35-1.21-2.51-2.66-2.93a19.65 19.65 0 00-5.36-.26c-.05 2.39 0 4.78 0 7.17a16 16 0 004.58-.28c.57-.63.47-2.67 1.62-2.05a54.15 54.15 0 010 6.11c-1.24 1-.83-1.82-1.79-2.16a16.7 16.7 0 00-4.41-.23c0 2.15-.13 4.32.08 6.48.18 1.47 1.94 1.36 3 1.43 1.71 0 4 .11 5-1.66.53-.54.63-1.89 1.66-1.58.22 1.58-.6 3.09-1 4.6-5.08-.15-10.16-.07-15.24-.05.28-1.19 1.64-.92 2.52-1.34.59-.74.36-1.76.43-2.62-.06-4.25.05-8.5 0-12.75.18-1.65-2.24-1-2.35-2.48z" transform="translate(-1 -56)"/></g><path d="M264.81 192.65c.65-4.35 1.13-8.75 2.07-13.06-.29 4.36-.44 8.74-.93 13.08zm14.96-11.6a58.72 58.72 0 01-3.52 13.13l-.83.4c1.22-4.58 2.98-8.99 4.35-13.53zm12.72 87c2.58-.9 5.15-1.88 7.71-2.84-.82 4.88-1.16 9.83-1.93 14.73l-.82-.48c.21-4 1.14-7.85 1.28-11.81-2 .86-4.59 1.13-5.86 3.17-.14-.92-.27-1.82-.38-2.77z" transform="translate(-1 -56)" fill="#1a2d4f" id="_002c52ff" data-name="#002c52ff"/><path d="M252.48 191.22c-.33-3.55-.67-7.1-.93-10.66.89 3.53 1.56 7.11 2.28 10.67z" transform="translate(-1 -56)" fill="#192d4d" id="_012c50ff" data-name="#012c50ff"/></svg>