<svg xmlns="http://www.w3.org/2000/svg" width="512" height="512"><path d="M55.79 180.39c4.102-4.052 9.101-7.502 14.832-8.693 10.77-2.657 22.497 2.911 28.381 12.063 4.896 6.851 5.965 15.483 5.334 23.678a35.18 35.18 0 0116.165-7.207c11.177-2.026 23.729 2.962 29.328 13.122 7.217 11.961 2.698 28.31-7.859 36.769-3.105 2.637-6.932 4.133-10.434 6.128 6.953 1.272 12.409 6.311 16.491 11.819 6.322 8.571 7.37 20.848 2.128 30.203-4.184 7.472-12.307 12.328-20.716 13.305-8.816 1.13-17.682-1.873-24.798-6.973.611 7.818-.346 15.992-4.652 22.721-5.945 9.691-18.181 15.931-29.47 12.867-12.562-3.074-21.744-15.382-22.08-28.147-.061-2.738.071-5.477.234-8.205-10.75 10.567-29.969 11.34-41.004.774-5.599-5.008-8.632-12.572-8.184-20.054.112-12.786 9.65-24.319 21.459-28.442-10.617-3.543-19.26-12.898-21.225-24.014-.621-4.693-.662-9.62.998-14.119 3.257-9.325 12.155-16.369 21.958-17.489 4.866-.397 9.884-.316 14.557 1.283 4.031 1.15 7.431 3.665 11.055 5.67-1.273-9.54 1.099-19.74 7.502-27.059m3.624 12.603c-2.962 7.767-1.588 16.43.937 24.116 1.384 4.489 4.54 8.195 5.914 12.674.906 4.102-4.622 7.411-7.686 4.56-3.573-3.99-5.365-9.325-9.406-12.969-6.199-6.179-14.404-11.971-23.566-11.32-8.887.397-17.051 8.459-16.623 17.519.682 9.162 7.787 16.674 16.064 19.922 6.851 3.176 14.496 3.858 21.958 3.817 3.716-.438 6.037 4.601 3.889 7.431-1.507 2.779-5.141 2.036-7.767 2.514-9.538-.153-19.402 2.749-26.691 9.029-6.077 5.059-8.846 13.956-6.006 21.438 1.568 3.298 4.265 5.955 7.248 8.011 6.729 4.123 15.575 3.013 22.029-1.13 7.197-4.51 13.223-10.913 17.122-18.476 1.262-2.932 4.805-4.377 7.645-2.779 1.415 1.537 2.922 3.909 1.69 5.965-1.537 3.807-4.021 7.167-5.334 11.076-1.71 4.337-2.372 8.968-2.728 13.59-.407 7.482 2.474 15.422 8.663 19.942 4.408 3.013 10.322 4.092 15.351 2.056 7.472-2.555 12.053-10.261 12.796-17.855.651-8.846-1.914-17.713-6.372-25.327-1.313-2.525-3.461-5.975-.977-8.5 1.232-1.965 3.868-1.761 5.823-1.303 2.005 1.405 3.064 3.726 4.347 5.741 4.296 7.686 11.238 13.783 19.219 17.448 3.593 1.69 7.675 1.639 11.554 1.446 8.052-.57 15.127-7.849 15.046-16.013.57-7.187-3.868-13.763-9.569-17.733-7.309-4.856-16.125-7.38-24.9-7.085-2.148-.244-4.866.499-6.484-1.313-2.341-2.148-1.832-6.617 1.15-7.93 2.402-.774 4.958-.733 7.452-.814 10.689-.071 21.866-4.306 28.554-12.918 4.754-6.108 5.161-15.585.061-21.622-4.296-5.446-11.849-7.462-18.486-6.118-5.517 1.16-10.251 4.499-14.659 7.859-5.843 4.601-8.856 11.564-13.295 17.336-2.229-.051-4.917.204-6.22-2.046-2.331-2.433-.183-5.752 1.14-8.103 4.713-7.401 6.708-16.318 6.189-25.042-.387-9.437-8.022-18.914-17.896-19.097-7.679-.63-14.377 5.253-17.176 12.003zm351.555-6.831c5.09-9.589 16.013-16.247 26.997-14.984 7.869.937 15.473 5.293 19.83 11.971 5.008 7.014 6.352 15.84 5.782 24.268 11.025-9.325 28.91-10.628 39.955-.662 7.757 6.678 10.933 18.079 7.757 27.801-2.616 9.905-10.719 18.059-20.492 21.041 5.243 2.433 10.536 5.12 14.313 9.65 6.932 7.737 9.62 19.331 5.864 29.155-1.629 4.693-4.642 8.907-8.765 11.717-11.167 8.693-28.188 7.024-38.561-2.168 1.028 8.704-.417 17.906-5.711 25.083-4.398 6.759-12.063 10.913-19.973 11.819-8.948.855-17.947-3.41-23.393-10.475-6.087-7.044-7.737-16.705-6.82-25.734-7.37 5.253-16.511 8.755-25.643 7.167-9.284-1.171-17.713-7.319-21.489-15.911-2.29-5.059-2.117-10.79-1.527-16.196 2.107-10.953 10.78-19.728 21.021-23.637-13.447-4.286-23.434-18.415-21.561-32.626 1.211-10.75 9.783-19.718 20.125-22.395 9.895-2.107 21.062-.092 28.564 7.014-.66-7.463.062-15.24 3.727-21.898m6.047 13.936c-.407 8.408 1.425 17.061 5.874 24.268 1.14 2.229 3.044 4.459 2.494 7.146-.58 4.204-7.268 5.385-9.04 1.435-2.84-4.846-5.68-9.783-9.935-13.549-6.535-5.874-15.31-11.086-24.421-8.897-4.998.702-8.693 4.591-11.676 8.358-3.777 6.271-2.168 14.608 2.209 20.166 3.471 4.978 9.223 7.502 14.669 9.691 6.383 2.514 13.325 2.117 20.023 2.708 3.807.377 5.029 6.383 1.853 8.429-2.85 2.005-6.495 1.374-9.752 1.537-6.179-.143-12.165 1.965-17.621 4.693-5.68 2.759-10.373 7.767-12.419 13.773-1.934 5.477-.723 11.941 3.146 16.288 4.011 4.774 10.648 6.759 16.715 6.047 8.755-1.608 16.359-7.238 21.754-14.15 2.728-3.431 4.316-7.706 7.533-10.74 2.372-1.395 5.029.051 6.983 1.486.397 2.789-.051 5.609-1.659 7.961-4.265 6.973-6.617 15.107-6.535 23.291.081 6.434 2.85 12.775 7.543 17.193 4.622 3.492 11.055 4.927 16.562 2.718 6.352-2.128 10.536-8.205 12.175-14.465 1.507-8.978-.092-18.435-4.642-26.345-1.649-3.044-4.245-6.26-3.054-9.946 1.171-2.626 4.469-2.83 6.902-2.209 3.023 2.596 4.184 6.627 6.719 9.63 4.326 5.222 9.274 10.18 15.544 12.999 4.723 2.525 10.332 2.463 15.483 1.629 5.334-1.843 10.343-5.965 11.727-11.635 1.588-5.772-.092-12.104-3.654-16.796-5.762-6.8-14.526-10.129-23.088-11.595-4.102-.753-8.307-.051-12.389-.804-5.029-1.863-2.616-10.18 2.463-9.701 11.737.723 24.757-2.504 32.544-11.89 4.846-5.609 6.199-14.262 2.301-20.756-4.459-7.39-14.394-10.088-22.344-7.36-10.322 3.634-18.385 12.043-23.179 21.723-1.456 3.848-8.123 3.899-9.233-.214-.987-3.207 1.201-6.047 2.647-8.704 4.601-7.543 6.149-16.786 5.202-25.5-1.181-9.742-10.577-18.334-20.614-16.837-9.092 1.181-15.312 10.21-15.81 18.924z" fill="#B72D26"/><path fill="#B82D26" d="M231.657 185.734c5.466-10.76 18.761-16.99 30.488-13.895 10.465 2.698 18.568 11.768 21.001 22.182 1.181 4.571.875 9.345.641 14.017 10.556-10.119 28.982-11.208 40.118-1.446 7.044 5.975 10.322 15.84 8.571 24.879-.937 5.69-3.858 10.831-7.37 15.32-3.716 4.408-9.019 6.851-14.028 9.447 15.748 3.695 26.06 22.477 20.573 37.756-2.362 6.739-7.614 12.419-14.211 15.188-10.913 5.019-24.584 2.616-33.481-5.355.835 7.564.224 15.555-3.655 22.253-5.66 10.444-18.476 17.265-30.244 14.089-10.231-2.494-18.344-11.126-20.99-21.204-1.486-4.856-1.15-9.996-.743-14.984-6.22 5.69-14.822 8.48-23.169 8.174-9.762-.468-19.209-6.26-23.566-15.086-2.718-5.263-2.983-11.432-2.128-17.183 2.25-10.892 10.607-20.197 21.072-23.78-10.261-3.39-18.568-12.185-21.102-22.731-1.649-8.704.132-18.537 6.749-24.828 7.39-8.032 19.474-9.986 29.653-7.034 4.296 1.293 8.093 3.756 12.002 5.904-.446-7.39-.13-15.178 3.819-21.683m6.363 10.333c-1.893 9.498.305 19.626 5.202 27.923 1.517 2.708 3.543 5.874 2.066 9.05-1.049 2.565-4.438 2.769-6.627 1.761-2.942-2.667-4.326-6.515-6.668-9.65-4.245-5.711-10.007-10.22-16.42-13.254-5.599-2.504-12.267-2.647-17.784.173-4.428 2.779-8.327 7.055-9.05 12.429-1.028 7.574 3.288 14.995 9.335 19.331 7.655 5.405 17.255 7.594 26.538 7.39 1.832.092 4.102-.193 5.375 1.456 2.413 2.24 1.466 7.034-1.781 7.879-6.169 1.395-12.725.102-18.7 2.545-9.62 2.799-19.891 9.691-20.482 20.644-1.415 9.762 7.665 18.67 17.183 18.588 9.681.163 17.916-6.179 24.116-13.03 3.349-3.573 4.866-8.49 8.358-11.931 2.158-1.15 5.64-.926 6.668 1.7 1.975 3.064-.733 6.189-2.005 8.948-3.217 5.456-4.988 11.686-5.466 17.987-.896 7.126.977 14.944 6.311 20.013 4.754 4.978 12.745 6.454 18.924 3.38 7.36-3.349 11.289-11.554 11.544-19.341-.153-7.635-1.934-15.341-5.813-21.978-1.405-2.749-4.225-6.047-2.178-9.182 1.181-2.545 4.734-2.769 6.922-1.557 3.522 3.716 5.11 8.866 8.805 12.49 6.311 6.719 14.964 12.786 24.645 11.839 7.044-.031 13.743-5.273 15.473-12.114 2.046-7.248-.906-15.229-6.688-19.911-7.838-6.383-18.211-9.202-28.228-8.877-1.822-.214-4.123.346-5.426-1.293-2.28-2.117-1.944-6.525.967-7.92 5.039-1.496 10.424-.254 15.504-1.608 8.276-2.036 16.929-5.741 21.53-13.346 4.062-6.291 3.858-15.31-1.262-20.96-5.141-5.965-14.201-7.37-21.357-4.591-6.81 2.698-12.877 7.309-17.265 13.203-2.687 3.512-4.499 7.614-7.35 11.025a10.782 10.782 0 00-4.194.041c-1.049-1.171-2.138-2.341-2.881-3.726-.519-2.667 1.354-4.958 2.392-7.248 5.446-9.304 7.828-21.123 4.143-31.455-2.738-6.902-9.762-12.236-17.336-11.9-8.194.55-15.483 6.994-17.04 15.077z"/></svg>