<svg xmlns="http://www.w3.org/2000/svg" width="512" height="512"><path fill="#BC2C26" d="M228.126 5.013c25.52-10.03 55.365-4.233 76.744 12.331 28.219 21.655 39.17 59.383 34.967 93.768 31.133-29.017 83.308-33.219 117.233-6.625 25.029 18.772 36.348 53.157 28.219 83.216-7.699 31.225-32.422 56.929-62.512 67.634 22.299 8.312 42.114 23.588 53.709 44.599 17.913 29.201 15.49 69.475-7.086 95.547-22.606 27.023-62.328 34.415-95.026 24.078-11.963-3.742-22.269-11.134-33.587-16.349 1.779 20.428.245 41.624-9.631 59.997-15.214 31.931-51.531 54.108-87.173 47.574-39.691-6.104-69.444-43.709-72.174-82.818-.46-8.251.123-16.502.307-24.753-22.207 14.171-48.126 25.152-74.996 21.257-25.152-2.699-48.678-17.3-61.929-38.894-14.938-25.244-14.662-58.402.061-83.646 11.073-21.41 31.164-36.225 52.942-45.519-24.784-9.785-46.685-28.311-57.39-53.065-12.637-28.833-8.711-65.549 13.435-88.768 16.993-18.956 43.065-28.281 68.248-26.318 21.625-.368 40.703 10.858 58.893 21.164-.123-15.337-1.779-31.195 3.251-46.01 8.221-25.917 27.3-49.382 53.495-58.4m12.269 26.839c-23.71 7.331-38.802 31.501-40.427 55.488-1.258 25.091 4.417 50.734 17.484 72.297 3.926 7.454 9.815 15.459 7.27 24.355-2.116 10.644-17.484 12.944-23.986 5.092-8.282-9.417-12.576-21.625-20.919-31.011-15.827-18.312-36.102-34.477-60.273-39.476-23.557-5.521-50.733 5.951-61.5 28.005-7.576 14.416-6.595 32.146.828 46.439 9.907 21.686 31.931 34.231 53.555 41.777 18.465 6.533 38.249 6.38 57.543 7.392 13.036.705 15.919 21.686 4.417 26.808-9.969 3.926-20.919 2.945-31.409 3.343-18.251.031-35.704 6.779-51.623 15.214-17.484 9.386-32.606 25.489-36.409 45.488-4.816 17.975 2.485 37.912 16.625 49.66 16.84 14.386 41.777 16.287 61.776 7.791 19.569-8.374 36.317-22.668 49.445-39.262 7.914-9.723 11.901-22.269 21.165-30.857 10.091-5.767 21.41 1.84 23.373 12.515-8.65 20.49-22.146 39.262-24.539 61.991-5.184 24.845-1.779 54.016 17.729 72.082 16.932 17.821 47.789 20.582 66.622 4.233 15.367-11.625 23.894-30.244 25.029-49.23.613-25.551-6.012-51.347-19.57-73.125-3.558-7.055-10.46-16.011-4.386-23.68 4.08-7.116 13.834-8.681 20.612-4.785 9.969 9.907 14.294 24.017 23.956 34.231 18.588 21.287 44.169 41.01 73.953 39.231 21.839.797 43.188-14.355 49.721-35.182 4.018-16.41 1.84-34.814-8.404-48.617-16.717-22.79-44.66-34.354-71.867-38.372-12.545-2.301-25.459-.123-38.004-2.393-8.036-3.558-8.558-13.343-6.564-20.796 6.288-9.815 19.171-8.159 29.201-8.466 21.072.828 41.593-6.043 59.997-15.858 11.656-6.196 21.901-15.183 28.618-26.655 12.177-18.925 11.778-46.071-3.865-62.941-15.582-18.097-42.85-22.483-64.598-14.14-19.876 7.791-37.053 21.594-50.549 38.035-8.957 10.828-13.742 24.539-23.618 34.722-7.27.521-15.95.153-19.57-7.392-5.429-9.601 2.638-18.987 6.901-27.207 12.208-20.398 17.33-44.476 16.502-68.125-.153-22.361-12.852-44.353-32.544-55.12-11.349-6.474-25.306-6.505-37.698-3.499z"/></svg>