<svg xmlns="http://www.w3.org/2000/svg" width="512" height="512"><switch><g><path d="M267.245 302.348c3.434-3.282 9.745-.465 9.927 4.161.434 3.605-3.262 6.817-6.746 6.332-2.565-.04-4.019-2.434-5.645-4.04.182-2.333.283-5.039 2.464-6.453zm135.82-.647c3.676-2.282 8.826.606 9.109 4.837.424 4.474-5.211 8.008-9.069 5.605-4.16-1.878-4.12-8.492-.04-10.442zm-237.97 1.293c3.09-.04 6.191-.05 9.281-.101.586 16.603.111 33.225.222 49.828-3.161.03-6.312.03-9.463.05-.091-16.592-.01-33.184-.04-49.777zm18.713-.071c3.04.01 6.08.03 9.109.091-.05 16.572 0 33.155-.02 49.727-3.06.01-6.11.01-9.16-.01.101-16.602-.04-33.205.071-49.808zm-181.568.899c3.312-.02 6.635-.01 9.947.101-.02 6.059-.02 12.119-.01 18.188 7.897 0 15.795-.02 23.692.01.05-6.059.04-12.129-.01-18.198 3.272-.131 6.544-.131 9.826-.071-.05 16.31.02 32.619-.04 48.929-3.272 0-6.544-.02-9.806-.162.121-7.221.01-14.431.081-21.642-7.918-.03-15.845-.02-23.773 0 .071 7.19-.05 14.391.091 21.591-3.343.212-6.696.222-10.038.162.08-16.308.009-32.608.04-48.908zm324.548 2.485c7.392-5.14 17.835-3.858 24.954 1.202-1.414 2.474-2.979 4.858-4.625 7.17-4.029-2.313-9.291-4.262-13.664-1.707-2.565 1.262-3.292 5.403-.697 6.988 5.686 3.888 13.371 4.666 17.915 10.24 4.999 5.989 3.211 15.805-3.222 20.036-8.806 6.302-21.218 2.929-28.479-4.221 2.05-1.979 3.767-4.383 6.16-5.968 3.868 1.727 7.322 5.393 12.048 4.686 4.777.586 8.877-5.595 5.251-9.321-4.959-4.656-12.624-4.878-17.481-9.735-5.643-5.121-4.431-15.26 1.84-19.37zM101.32 318.86c.071-3.222.081-6.433.081-9.644 3.04 0 6.09 0 9.14.01 0 3.08-.02 6.16-.081 9.24 3.706.515 7.463.424 11.21.374 0 2.515.01 5.039.03 7.564-3.726.202-7.453.505-11.179.545.131 4.787-.283 9.604.192 14.391.768 4.534 6.181 3.252 9.533 3.908.353 2.646.778 5.282 1.171 7.928-5.979.626-13.28.959-17.431-4.272-4.585-6.584-1.798-14.997-2.707-22.43-3.06.03-6.13.03-9.19.02 0-2.545-.01-5.09-.02-7.625 3.081-.03 6.161-.03 9.251-.009zm138.345-.425c2.606.01 5.211.01 7.827-.01.323.667.98 2 1.303 2.676 3.484-2.878 7.988-3.242 12.321-2.939a161.407 161.407 0 01-1.161 8.786c-4.322-.646-8.564.606-11.301 4.11.02 7.221-.01 14.441.03 21.652-3.06.04-6.12.05-9.17.03.131-11.431-.152-22.873.151-34.305zm-174.014.303c6.807-1.838 14.775.061 19.319 5.665 6.372 7.413 5.009 20.147-3.181 25.692-8.534 6.494-22.682 3.525-27.146-6.453-4.989-9.392.586-22.389 11.008-24.904m3.524 8.14c-3.05.626-5.635 2.969-6.534 5.958-2.03 5.251 2.04 12.088 7.897 11.907 6.181.798 10.796-6.383 8.645-11.876-1.08-4.191-5.817-7.09-10.008-5.989zm63.916-6.18c5.716-3.716 14.017-3.636 19.228.97 4.847 3.979 6.332 10.493 5.837 16.512-7.726.05-15.451-.01-23.177.03.353 4.191 4.029 7.655 8.271 7.574 3.494.333 6.453-1.727 9.119-3.686a303.94 303.94 0 005.12 5.1c-6.605 8.392-21.157 8.523-27.883.182-6.462-7.818-4.796-20.805 3.485-26.682m2.04 10.492c4.646.101 9.301.101 13.947-.04-1.262-2.434-2.999-5.302-6.11-5.262-3.595-.565-6.898 1.889-7.837 5.302zm69.713-8.564c5.817-5.908 16.522-6.211 22.359-.182 4.08 4.09 5.645 10.048 5.262 15.704-7.918.121-15.825-.02-23.743.091.778 3.504 3.333 6.928 7.1 7.382 3.908.879 7.625-1.03 10.412-3.625 1.687 1.565 3.504 3.04 4.817 4.959-.323 2.292-2.717 3.333-4.484 4.403-8.271 4.474-20.208 2.06-24.722-6.605-3.404-7.029-2.576-16.4 2.999-22.127m4.07 8.463c4.696.252 9.402.192 14.098.091-.98-2.727-3.05-5.504-6.282-5.332-3.615-.475-6.221 2.373-7.816 5.241zm57.816-12.26c3.05-.01 6.1.01 9.15.121-.04 11.23-.061 22.46.01 33.69-3.07.101-6.13.131-9.19.111.06-11.31.01-22.621.03-33.922zm22.955 1.858c6.09-3.969 15.118-3.565 20.198 1.919 4.181 4.009 5.231 10.008 4.827 15.573-7.736.05-15.472-.02-23.207.04.434 4.11 3.969 7.574 8.18 7.554 3.535.384 6.564-1.666 9.251-3.676a308.577 308.577 0 005.13 5.1c-6.887 8.796-22.48 8.463-28.731-.949-5.525-7.918-3.556-19.966 4.352-25.561m2.02 10.513c4.656.081 9.321.111 13.977-.071-1.303-2.404-3.03-5.332-6.17-5.241-3.586-.555-6.868 1.909-7.807 5.312zm67.905-12.391c3.05-.01 6.12.03 9.18.202-.071 6.564-.172 13.129-.01 19.693-.162 3.504 3.242 6.544 6.716 6.039 2.999.182 5.262-2 7.382-3.777 0-7.372.01-14.744 0-22.117 3.1-.01 6.201-.01 9.301-.04.071 11.321.05 22.642.01 33.973-2.888-.05-5.787.141-8.655-.202l-.899-1.434c-3.959 2.161-8.705 3.232-13.068 1.656-5.534-1.747-9.968-7.12-9.937-13.018-.111-6.988 0-13.987-.02-20.975zm41.688.111c3.05-.081 6.1-.091 9.16-.081-.02 11.321.04 22.642-.04 33.963-3.04-.04-6.08-.061-9.119-.121.06-11.261.06-22.511-.001-33.761zm17.39 6.575c1.727-5.009 7.392-7.473 12.381-7.382 4.221-.212 8.251 1.323 11.927 3.252-1.424 2.373-2.929 4.696-4.565 6.938-2.828-1.919-6.16-2.545-9.513-1.979-.444.646-1.323 1.949-1.767 2.595 3.949 3.171 9.362 3.413 13.341 6.544 4.817 3.595 4.373 11.947-.646 15.189-6.968 4.959-16.694 3.04-23.288-1.687a364.57 364.57 0 014.332-6.706c4.05 2.636 10.745 5.534 14.25.576-3.757-4.757-10.897-3.918-14.805-8.473-2.364-2.273-2.525-5.909-1.647-8.867zm31.075.151c1.636-5.181 7.453-7.756 12.553-7.534 4.201-.182 8.19 1.353 11.806 3.353-1.545 2.232-3.04 4.504-4.534 6.766-3.131-1.757-7.584-3.484-10.664-.717-.05.434-.162 1.313-.212 1.747 3.403 2.797 8.18 2.919 11.765 5.453 4.141 2.454 5.847 8.281 3.444 12.502-2.525 4.363-7.756 6.484-12.634 6.312-5.009.172-9.665-2.01-13.846-4.534 1.535-2.252 3.09-4.504 4.635-6.746 3.969 2.858 10.654 5.383 14.25.646-3.747-4.726-10.796-4.019-14.835-8.352-2.385-2.291-2.193-5.897-1.728-8.896zm36.952-4.908c5.827-3.928 14.522-3.656 19.652 1.353 4.292 4.019 6.564 10.361 5.272 16.158-7.716-.091-15.431-.071-23.147-.02.414 4.514 4.716 7.968 9.2 7.564 3.191.101 5.807-1.899 8.21-3.716 1.676 1.586 3.444 3.11 4.858 4.959-.293 2.141-2.595 2.999-4.171 4.07-7.806 4.504-19.178 2.767-24.318-4.948-5.312-7.878-3.474-19.926 4.444-25.42m1.838 10.442c4.706.111 9.422.101 14.138-.02-1.081-3.232-3.868-5.049-7.009-5.979-3.11 1-5.918 2.838-7.129 5.999z"/><g fill="red"><path d="M227.829 188.048c9.857-4.646 19.36-10.149 29.358-14.401 3.908 1.404 7.534 3.615 11.28 5.423 1.727.707 1.151 2.807 1.313 4.252-.091 15.047.061 30.095-.091 45.132-9.069-6.191-17.501-13.432-24.621-21.814-.808-.646-1.444-2.141-2.676-1.848-4.07 3.282-7.221 7.544-10.927 11.21-7.817 7.645-15.249 15.684-23.106 23.298 0-13.926-.263-27.873.131-41.789 6.604-2.818 12.926-6.251 19.339-9.463zm53.433 47.728c-.04-16.744-.01-33.488-.02-50.232 2.08.969 4.151 1.979 6.191 3.05 5.777 3.03 11.745 5.716 17.491 8.806 1.505.788 1 2.676 1.131 4.05-.051 14.987-.02 29.974-.02 44.95-5.908-1.818-11.695-4.05-17.269-6.736-2.515-1.273-4.969-2.666-7.504-3.888z"/><path d="M232.646 231.312c3.211-3.181 6.221-6.605 9.685-9.503l1.202.364c7.877 7.897 16.885 14.542 26.227 20.592-.02 9.554-.01 19.107 0 28.661-20.491.051-40.971.01-61.452.02.03-5.13-.121-10.271.131-15.391a118.722 118.722 0 006.847-6.675c5.514-6.282 11.786-11.847 17.36-18.068zm48.606 17.926c6.08 2.797 12.21 5.484 18.531 7.685 2.07.687 4.151 1.333 6.251 1.929-.01 4.201-.01 8.392 0 12.593-8.241.01-16.491 0-24.732 0-.131-7.402-.03-14.805-.05-22.207z"/></g><path d="M11.849 186.104c-.576.288-1.729.576-3.205.576-3.421 0-5.996-2.161-5.996-6.14 0-3.799 2.575-6.374 6.338-6.374 1.512 0 2.466.324 2.881.54l-.378 1.278c-.594-.288-1.44-.504-2.449-.504-2.845 0-4.735 1.819-4.735 5.006 0 2.971 1.71 4.879 4.664 4.879.954 0 1.926-.198 2.557-.504l.323 1.243zm1.905-12.388h1.584V186.5h-1.584v-12.784zm9.073 12.784l-.126-1.098h-.054c-.486.684-1.423 1.296-2.665 1.296-1.765 0-2.665-1.243-2.665-2.503 0-2.106 1.873-3.259 5.239-3.241v-.18c0-.72-.198-2.017-1.98-2.017-.81 0-1.657.252-2.269.648l-.36-1.044c.72-.468 1.765-.774 2.863-.774 2.665 0 3.313 1.818 3.313 3.565v3.259c0 .756.036 1.495.144 2.089h-1.44zm-.234-4.447c-1.729-.036-3.691.27-3.691 1.962 0 1.026.684 1.513 1.494 1.513 1.134 0 1.854-.72 2.107-1.458.054-.162.09-.342.09-.504v-1.513zm3.868 2.826c.468.306 1.296.63 2.089.63 1.152 0 1.692-.576 1.692-1.296 0-.756-.45-1.17-1.621-1.603-1.566-.558-2.305-1.422-2.305-2.467 0-1.404 1.135-2.557 3.007-2.557.882 0 1.657.252 2.143.54l-.396 1.152a3.39 3.39 0 00-1.782-.504c-.937 0-1.458.54-1.458 1.188 0 .72.522 1.044 1.656 1.477 1.513.576 2.287 1.333 2.287 2.629 0 1.53-1.188 2.611-3.259 2.611-.954 0-1.836-.234-2.449-.594l.396-1.206zm7.128 0c.468.306 1.296.63 2.089.63 1.152 0 1.692-.576 1.692-1.296 0-.756-.45-1.17-1.621-1.603-1.566-.558-2.305-1.422-2.305-2.467 0-1.404 1.135-2.557 3.007-2.557.882 0 1.657.252 2.143.54l-.396 1.152a3.39 3.39 0 00-1.782-.504c-.937 0-1.458.54-1.458 1.188 0 .72.522 1.044 1.656 1.477 1.513.576 2.287 1.333 2.287 2.629 0 1.53-1.188 2.611-3.259 2.611-.954 0-1.836-.234-2.449-.594l.396-1.206zm9.109-9.542c.018.54-.378.972-1.008.972-.558 0-.955-.432-.955-.972 0-.559.414-.991.99-.991.595 0 .973.432.973.991zM40.934 186.5v-8.715h1.584v8.715h-1.584zm4.374 0v-7.508h-1.225v-1.207h1.225v-.468c0-2.305 1.35-3.799 3.799-3.799.811 0 1.765.252 2.215.576l-.45 1.207c-.378-.27-1.063-.504-1.836-.504-1.674 0-2.161 1.17-2.161 2.557v.432h5.06v8.715h-1.566v-7.508h-3.493v7.508h-1.568zm10.134-4.069c.036 2.143 1.404 3.025 2.989 3.025 1.134 0 1.818-.198 2.413-.45l.27 1.134c-.558.252-1.512.541-2.898.541-2.683 0-4.286-1.765-4.286-4.394 0-2.628 1.548-4.699 4.087-4.699 2.845 0 3.601 2.502 3.601 4.105 0 .324-.036.576-.054.738h-6.122zm4.645-1.135c.018-1.008-.414-2.575-2.196-2.575-1.603 0-2.305 1.477-2.431 2.575h4.627zm11.017-7.58v10.533c0 .774.018 1.656.072 2.25h-1.422l-.072-1.513h-.036c-.486.973-1.549 1.711-2.971 1.711-2.106 0-3.727-1.783-3.727-4.43-.018-2.898 1.783-4.681 3.907-4.681 1.333 0 2.233.63 2.629 1.333h.036v-5.204h1.584zm-1.584 7.617a2.81 2.81 0 00-.072-.667c-.234-1.008-1.098-1.836-2.287-1.836-1.639 0-2.611 1.44-2.611 3.367 0 1.765.864 3.223 2.575 3.223 1.063 0 2.035-.703 2.323-1.891.054-.216.072-.432.072-.685v-1.511zm7.953 5.167c.036-.594.072-1.477.072-2.25v-10.533h1.566v5.474h.036c.558-.972 1.566-1.603 2.971-1.603 2.161 0 3.691 1.8 3.673 4.447 0 3.115-1.963 4.664-3.907 4.664-1.261 0-2.269-.486-2.917-1.639h-.054l-.072 1.44h-1.368zm1.639-3.493c0 .198.036.396.072.576.306 1.099 1.225 1.854 2.377 1.854 1.656 0 2.647-1.35 2.647-3.349 0-1.747-.9-3.241-2.593-3.241-1.081 0-2.089.738-2.413 1.945-.036.18-.09.396-.09.648v1.567zm9.125-5.222l1.909 5.15c.198.576.414 1.26.558 1.782h.036c.162-.522.342-1.188.558-1.818l1.729-5.114h1.674l-2.377 6.212c-1.134 2.989-1.908 4.52-2.989 5.456-.774.684-1.548.954-1.944 1.026l-.396-1.332a4.19 4.19 0 001.386-.774c.432-.342.972-.954 1.333-1.765.072-.162.126-.288.126-.378 0-.09-.036-.216-.108-.414l-3.223-8.031h1.728zm7.955 1.441c0-.666.45-1.134 1.081-1.134s1.044.468 1.063 1.134c0 .63-.415 1.117-1.081 1.117-.63-.001-1.063-.487-1.063-1.117zm0 6.356c0-.666.45-1.134 1.081-1.134s1.044.468 1.063 1.134c0 .63-.415 1.117-1.081 1.117-.63-.001-1.063-.487-1.063-1.117z"/></g></switch></svg>