<svg xmlns="http://www.w3.org/2000/svg" width="512" height="512"><path fill="#2A2A2A" d="M46.738 142.963c43.509.114 87.017.014 130.526.052 19.737-.028 39.474.071 59.21-.128 13.749.251 27.812 2.467 40.088 8.904 8.889 4.622 16.564 11.859 20.847 20.952 3.492 7.052 4.64 15.051 4.145 22.841-.414 7.18-1.867 14.411-5.159 20.862-3.444 7.047-9.07 12.924-15.716 17.083-7.532 4.67-16.126 7.393-24.825 8.923-1.658.246-3.387.862-4.226 2.425 1.043.909 2.282 1.624 3.692 1.729 8.122 1.042 16.107 3.651 23.019 8.07 6.989 4.452 12.767 10.703 16.788 17.916 4.202 7.454 6.555 15.828 7.565 24.286.848 6.308.386 12.692.924 19.024.686 8.312 1.948 16.841 5.888 24.31 1.715 3.419 4.959 5.806 8.527 7.066 5.402 1.937 11.2 2.543 16.917 2.51 7.632.152 15.273.043 22.91.085 1.448.081 3.106-.44 3.74-1.852.838-1.909.862-4.045.953-6.09.067-17.064.01-34.122.029-51.186-.067-12.295.238-24.584.129-36.879.262-5.849.024-11.707.195-17.561.191-24.305.6-48.605 1-72.91-.029-3.831.405-7.701-.262-11.504-.124-1.028-.786-2.169-1.982-2.022-8.28-.033-16.564-.014-24.844 0-.753-.052-1.572.062-2.249-.317-.372-1.819-.319-3.751.01-5.574.333-1.179 1.839-.559 2.749-.696 18.246.98 36.515 1.35 54.785 1.283 8.899-.332 17.812.033 26.716-.208 26.044-.142 52.084-.407 78.123-1.103.953.019 2.063.062 2.753.829.886.99.724 2.42.834 3.642.653 20.535 1.334 41.065 1.987 61.596-.938.663-2.006 1.449-3.225 1.103-1.41-2.444-2.249-5.167-3.497-7.691-6.474-14.407-13.163-28.747-20.947-42.51-1.844-3.363-4.135-6.824-7.818-8.373-4.23-1.781-8.923-1.923-13.449-2.003-15.416.014-30.827.014-46.243 0-1.086-.043-2.244.199-2.996 1.037-1.324 1.255-1.448 3.197-1.534 4.906-.981 24.622-1.372 49.263-1.648 73.9.071 2.851-.253 5.768.405 8.572.253 1.345 1.715 1.79 2.925 1.738 9.194-.024 18.436.152 27.564-1.146 1.267-.237 2.763-.256 3.621-1.373 1.81-2.027 3.273-4.329 4.754-6.597 5.207-8.421 9.909-17.163 13.753-26.284.691-2.036 4.759-1.478 4.154.89-.867 9.775-1.053 19.593-1.224 29.396 0 18.527-.114 37.082 1.362 55.562-1.12 1.07-3.192 1.563-4.083-.038-4.902-11.537-9.375-23.315-15.454-34.317-1.663-2.676-3.249-5.622-5.936-7.416-2.782-1.307-5.907-1.629-8.918-2.032-6.036-.54-12.105-.696-18.165-.654-1.42.024-3.163.223-3.892 1.62-.943 2.098-.762 4.461-.862 6.697-.01 20.516 0 41.032-.005 61.548.071 9.481-.162 18.967.138 28.444.219 1.828.076 4.39 1.972 5.389 2.449.369 4.959.142 7.432.128 19.532-.331 39.064-.658 58.591-.971 3.501-.114 7.193-.919 9.771-3.443 3.94-3.789 6.598-8.634 9.39-13.265 5.912-10.192 11.124-20.767 16.007-31.475.572-.857-.086-2.235 1.105-2.685 1.31-2.619 2.363-5.356 3.468-8.065 1.134-.081 3.158-.365 3.201 1.293.043 7.582-.395 15.164-.543 22.747-.462 13.592-.848 27.189-1.262 40.781-.09.625 0 1.459-.638 1.838-1.801 1.293-4.121.611-6.165.72-56.4.005-112.809-.024-169.195.019-14.254-1.269-28.812-.777-42.718-4.632-.991-.369-2.32.265-2.963-.819-4.126-1.468-8.165-3.301-11.672-5.948-5.426-4.049-8.994-10.121-10.924-16.509-3.039-10.05-3.087-20.649-3.173-31.049-.224-6.815-1.11-13.649-3.082-20.199-2.029-6.682-5.364-13.1-10.376-18.053-5.812-5.74-13.658-9.211-21.723-10.334-9.156-1.288-18.427-1.137-27.65-1.156-1.882.066-3.973-.028-5.559 1.146-.948.909-.824 2.377-.924 3.58-.005 18.636 0 37.277 0 55.917.067 11.049-.152 22.103.143 33.147.119 1.771.119 3.666.981 5.266.696 1.193 2.206 1.193 3.43 1.241 8.889.047 17.779-.052 26.668.043 1.696.024 1.653 2.16 1.767 3.377.105 1.478-.081 4.12-2.21 3.793-33.319-1.624-66.766-2.534-100.066-.019-.638-.009-1.258-.137-1.877-.242-3.282 8.359-8.604 16.026-15.802 21.506-9.085 7.047-20.547 10.277-31.856 11.47-12.134 1.17-24.529.767-36.401-2.141-11.248-2.823-22.328-8.331-29.498-17.651-5.064-6.412-7.637-14.506-7.956-22.6v-2.951c.424-5.276 1.815-10.651 5.15-14.885 4.545-6.119 12.167-9.249 19.642-9.732 5.078-.592 10.5.199 14.782 3.121 4.449 2.856 7.608 7.606 8.542 12.782.715 4.537-.219 9.406-2.958 13.152-1.991 2.917-5.498 4.475-7.122 7.691-2.587 4.111-2.315 9.264-1.091 13.777 1.186 4.404 4.13 8.321 8.103 10.618 4.902 2.903 10.819 3.585 16.421 3.093 4.55-.232 9.256-1.317 12.872-4.224 3.978-3.187 6.193-7.975 7.703-12.711 2.363-7.705 3.225-15.766 3.835-23.765 1.239-17.206.715-34.459.7-51.693-.586-44.991-1.605-89.988-3.444-134.955-.11-1.568-.129-3.216-.777-4.674-.376-.881-1.491-.838-2.291-.881-10.504.014-21.009-.009-31.513.019-.886-.076-2.044.137-2.62-.72-.393-2.159-.136-4.366-.193-6.544m156.056 6.099c-2.134.218-4.397.246-6.312 1.307-.791.379-1.115 1.274-1.091 2.093-.581 11.693-.791 23.396-1.062 35.098-.295 16.093-.557 32.19-.529 48.288-.043 1.871-.343 3.803.248 5.622.462 1.037 1.801.99 2.768 1.094 3.482.081 6.965-.009 10.447.033 8.908-.256 17.912-.052 26.706-1.767 6.698-1.383 13.348-4.239 17.965-9.415 6.66-7.274 9.299-17.22 10.314-26.786 1.048-11.314.8-23.306-4.335-33.701-3.668-7.729-10.395-13.782-18.227-17.182-11.553-5.025-24.492-5.38-36.892-4.684m-73.836 2.236c-.724 1.023-.815 2.321-.881 3.528-.11 5.233.129 10.457.181 15.69.557 38.025 1.081 76.05 1.11 114.084.186 10.253.205 20.521-.024 30.774-.367 11.276-1.329 22.638-4.449 33.53 8.394.019 16.788.005 25.182.009 1.496-.052 3.359-.047 4.268-1.468.777-1.899.748-4.016.796-6.034-.067-47.535.105-95.065.767-142.585.148-12.763.419-25.531.529-38.3-.086-3.443.329-6.981-.676-10.334-7.922.038-15.845 0-23.767.019-1.087-.002-2.312.206-3.036 1.087z"/><path fill="#2B2C2A" d="M141.273 370.998a149.25 149.25 0 012.025-.071c.014 4.371.01 8.743.014 13.119-.029 1.184-.029 2.448-.638 3.514-1.867 3.254-7.56 3.211-9.213-.213-.391-.582-.51-1.511-1.305-1.662.748-.559 1.682-.568 2.577-.587.319 2.33 3.182 3.917 5.207 2.472 1.358-.838 1.415-2.557 1.391-3.978-.049-4.197.056-8.398-.058-12.594z"/><path d="M151.668 370.946c3.606-.028 7.208.033 10.814-.047.005.601.014 1.203.029 1.809a541.916 541.916 0 00-8.742.019c.033 2.197.024 4.395.014 6.597 2.806.019 5.612-.09 8.413.114-.029.54-.052 1.085-.071 1.629-2.777.057-5.555 0-8.332.033-.01 2.24.014 4.48-.024 6.725 2.915.033 5.831.024 8.747.033-.019.587-.043 1.179-.062 1.776-3.592-.043-7.189-.019-10.781-.014 0-6.223.004-12.446-.005-18.674zm18.598-.009c.7 0 1.401.005 2.101.014.01 4.059-.014 8.117.01 12.171.014 1.847.867 3.86 2.72 4.546 2.634 1.373 6.083-.672 6.379-3.552.205-4.409-.038-8.828.133-13.237.705.052 1.41.099 2.125.152-.257 4.66.262 9.363-.324 14.004-.738 4.111-5.907 6.086-9.485 4.286-2.358-.99-3.592-3.561-3.625-6.005-.12-4.125-.039-8.254-.034-12.379zm21.8-.033c.905.019 1.82.033 2.734.052 3.678 4.977 6.984 10.239 10.843 15.075-.043-5.001.038-10.002-.048-14.999.672-.038 1.343-.076 2.02-.118.014 6.233.005 12.47.005 18.707-.7-.019-1.396-.028-2.087-.038-2.539-3.756-5.255-7.393-7.841-11.115-1.229-1.648-2.263-3.438-3.659-4.954-.029 5.38.071 10.76-.038 16.135-.648-.014-1.291-.028-1.934-.038-.043-6.238-.057-12.475.005-18.707zm23.948.033c3.578-.019 7.155.043 10.738-.043.024.583.048 1.17.076 1.762-2.906.09-5.812.028-8.718.047-.005 2.207-.024 4.414.014 6.626 2.792.033 5.593-.09 8.384.081a90.947 90.947 0 00-.071 1.667c-2.777.033-5.55-.005-8.327.028 0 2.245-.038 4.494.01 6.749 2.911.014 5.826-.028 8.742.024-.043.578-.086 1.16-.124 1.748-3.587-.033-7.17.005-10.752-.024.018-6.224-.048-12.442.028-18.665zm19.584.909c2.377-1.956 6.431-1.639 8.256.928.686.848.791 1.961 1 2.998-.719-.019-1.434-.033-2.144-.052-.219-2.07-2.391-3.855-4.478-3.093-1.991.412-3.144 3.064-1.863 4.698 1.825 1.932 4.926 1.426 6.931 3.097 2.325 1.672 2.573 5.371.657 7.44-2.453 2.988-7.879 2.747-9.947-.559-.653-.862-.738-1.951-.872-2.974l2.082-.043c.205 2.505 2.925 4.622 5.393 3.561 2.163-.559 3.354-3.396 1.958-5.214-1.686-2.477-5.312-1.587-7.332-3.595-2.094-1.821-1.866-5.558.359-7.192zm50.15-.824c3.549-.213 7.108 0 10.657-.104a888 888 0 01.071 1.757c-2.906.066-5.817-.014-8.723.033.057 2.202.033 4.404.005 6.602 2.835.071 5.669-.033 8.504.043-.019.573-.038 1.151-.052 1.733-2.811.009-5.617.005-8.427.009.005 2.25-.01 4.494.033 6.744 2.892.009 5.783.038 8.675-.019-.029.597-.052 1.203-.076 1.809-3.53-.014-7.055-.043-10.585.005-.135-6.204.027-12.408-.082-18.612zm34.409-.114c3.602.033 7.213.081 10.819-.005.014.583.038 1.165.062 1.757-1.501.028-2.996.052-4.492.099.129 5.603-.014 11.205.071 16.808-.672.014-1.343.024-2.01.043-.014-5.631-.019-11.262.005-16.888a366.945 366.945 0 01-4.573-.047 73.44 73.44 0 01.118-1.767zm39.317.123c.662-.047 1.329-.085 2.001-.123.062 4.044-.029 8.094.038 12.138-.019 1.989 1.024 4.092 3.016 4.745 2.587 1.103 5.845-.843 6.079-3.637.443-4.376.095-8.795.205-13.19.634-.028 1.272-.057 1.915-.076.167 3.273.014 6.555.081 9.837-.014 2.112.176 4.428-1.034 6.289-2.106 3.471-7.589 3.931-10.428 1.113-1.386-1.26-1.872-3.211-1.848-5.02-.011-4.024.041-8.05-.025-12.076zm48.892-.066l2.253-.043c2.773 6.242 5.698 12.422 8.332 18.726l-2.249-.071a123.341 123.341 0 00-2.801-6.266c-2.944.028-5.893.066-8.832-.028-.986 2.084-1.972 4.177-2.792 6.332-.772-.024-1.529-.038-2.291-.071a3767.903 3767.903 0 018.38-18.579m1.071 2.373c-1.158 2.771-2.482 5.47-3.573 8.269 2.425-.014 4.854-.024 7.279.005-1.209-2.766-2.31-5.589-3.706-8.274zm12.22-2.416c3.625.005 7.255.071 10.881-.038.024.587.057 1.175.095 1.771-1.486.052-2.977.057-4.459.066.033 5.636.014 11.267.01 16.903a49.842 49.842 0 00-2.029-.081c.114-5.603-.029-11.205.076-16.808a81.202 81.202 0 00-4.55 0c-.015-.605-.019-1.211-.024-1.813zm57.848.081c2.32-.066 4.65-.123 6.974-.033 1.672.109 3.449.549 4.635 1.814 2.22 2.051 2.406 5.977.167 8.089-1.029 1.16-2.573 1.587-4.035 1.909 1.772 2.302 3.64 4.532 5.378 6.862-.886-.019-1.763-.043-2.634-.066-2.148-2.823-4.426-5.546-6.527-8.402 2.082-.104 4.549.137 6.15-1.482 1.796-1.677 1.42-4.916-.696-6.171-2.206-1.336-4.95-.687-7.394-.791.033 5.612.019 11.229.014 16.846-.653.024-1.296.052-1.934.085-.151-6.219.04-12.442-.098-18.66zm22.557.175c3.33-1.838 8.356.559 8.099 4.589-.667 0-1.324 0-1.977.009-.391-1.359-1.086-2.908-2.658-3.164-2.644-1.004-5.512 2.34-3.783 4.722 1.863 1.899 4.931 1.449 6.979 3.069 2.077 1.61 2.511 4.835 1.048 6.986-2.12 3.225-7.489 3.396-9.947.488-.838-.985-1.134-2.264-1.305-3.505.696-.038 1.391-.066 2.096-.095.319 1.43 1.019 2.946 2.511 3.476 2.73 1.478 6.669-1.615 5.188-4.58-1.61-3.348-6.55-1.847-8.361-4.968-1.601-2.381-.558-5.923 2.11-7.027z" fill="#2B2C2B"/><path fill="#2B2D2C" d="M265.32 370.899c3.235.27 6.655-.516 9.756.701 3.135 1.231 4.516 5.385 2.763 8.241-1.019 1.738-2.977 2.6-4.893 2.955 1.82 2.25 3.625 4.513 5.378 6.81-1.01-.133-2.411.455-3.039-.601-2.015-2.614-4.178-5.124-6.017-7.857 1.963-.024 4.14.081 5.783-1.198 2.168-1.539 1.81-5.186-.467-6.46-2.206-1.255-4.873-.654-7.289-.786-.01 5.636.043 11.276-.024 16.912-.657.005-1.305.014-1.953.028-.046-6.247-.036-12.498.002-18.745z"/><path d="M303.898 373.698c1.191-2.87 5.021-3.855 7.703-2.553 1.806.81 2.868 2.676 2.968 4.603-.7 0-1.391.005-2.082.005-.381-1.426-1.181-2.984-2.811-3.206-2.563-.758-5.269 2.387-3.668 4.684 1.829 2.136 5.212 1.454 7.227 3.363 2.001 1.729 2.311 5.011.624 7.061-2.353 3.211-7.684 3.007-10.033-.109-.176.009-.524.033-.696.043l.615-.109c-.481-.995-.815-2.051-.881-3.149.705 0 1.415.005 2.129.014.229 2.074 2.015 3.94 4.207 3.76 2.396-.019 4.597-2.714 3.387-4.987-1.12-2.377-4.111-2.269-6.217-3.178-2.41-.91-3.539-3.95-2.472-6.242zm38.326-2.766c.719-.005 1.448-.009 2.177-.005 2.858 6.209 5.621 12.456 8.437 18.683l-2.287-.014c-.143-.564-.519-.9-1.124-1.004.105-.133.314-.393.414-.526-.638-1.624-1.382-3.206-2.134-4.774-2.949.085-5.902.033-8.856.033-.948 2.07-1.906 4.139-2.777 6.242-.786.024-1.567.043-2.344.066 2.858-6.222 5.583-12.502 8.494-18.701m1.024 2.425c-1.158 2.766-2.468 5.47-3.606 8.25 2.425-.019 4.85-.019 7.274.005-1.143-2.785-2.301-5.575-3.668-8.255zm37.959-2.439c3.297.237 6.793-.54 9.938.748 3.354 1.373 4.454 6.086 2.158 8.842-1.067 1.43-2.858 1.956-4.521 2.34 1.967 2.108 3.725 4.428 5.383 6.787-.843-.014-1.696.038-2.52-.095a442.883 442.883 0 01-6.512-8.383c2.234-.043 4.988.142 6.493-1.861 1.648-1.904.743-5.025-1.491-6.024-2.168-.928-4.616-.53-6.898-.497a644.99 644.99 0 010 16.865c-.681-.014-1.358-.024-2.025-.028a737.295 737.295 0 01-.005-18.694zm58.095.009c3.497.019 6.998.024 10.495-.014.029.587.057 1.179.095 1.776-2.877.019-5.755-.028-8.627.033.029 2.197.033 4.395.005 6.592 2.796.052 5.598-.062 8.394.071a95.14 95.14 0 00-.062 1.7c-2.768.009-5.536 0-8.303.005-.01 2.25-.043 4.509 0 6.763 2.839.009 5.683-.024 8.527.019.029.412.086 1.241.119 1.653-3.563.199-7.132.005-10.69.109-.096-6.232-.2-12.479.047-18.707z" fill="#292B2A"/><path fill="#292A29" d="M456.715 370.998a24.28 24.28 0 012.191.014c-.086 3.879-.01 7.757-.052 11.636-.095 1.274.357 2.477.829 3.642.224-.024.672-.066.896-.09l-.772.194c1.234 1.383 3.33 2.155 5.121 1.426 1.982-.63 3.158-2.69 3.144-4.693-.005-4.03.062-8.065-.052-12.096.696-.052 1.396-.095 2.106-.147.148 3.434.033 6.877.071 10.315-.086 2.212.01 4.722-1.577 6.488-2.549 3.102-7.999 3.022-10.466-.128-1.11-1.411-1.362-3.249-1.396-4.982-.034-3.859.066-7.719-.043-11.579z"/><path d="M343.248 373.357c1.367 2.681 2.525 5.47 3.668 8.255-2.425-.024-4.85-.024-7.274-.005 1.138-2.78 2.448-5.484 3.606-8.25zm66.189-.019c1.396 2.685 2.496 5.508 3.706 8.274a420.515 420.515 0 00-7.279-.005c1.091-2.799 2.416-5.499 3.573-8.269z" fill="#FDFEFD"/></svg>