<svg version="1.1" id="Ebene_1" xmlns="http://www.w3.org/2000/svg" x="0" y="0" viewBox="0 0 221 240.61" xml:space="preserve"><style>.st0{fill:#1e1e1c}</style><path class="st0" d="M76.32 94.76c-17.44-17.44-45.81-17.44-63.25 0-17.44 17.44-17.44 45.81 0 63.25 8.72 8.72 20.17 13.08 31.62 13.08s22.9-4.36 31.62-13.08c17.45-17.44 17.45-45.81.01-63.25zm-5.35 31.67c.02 7.04-2.69 13.63-7.64 18.58-10.23 10.23-26.9 10.19-37.18-.08-10.27-10.27-10.31-26.95-.08-37.18 5.1-5.1 11.8-7.64 18.51-7.64 6.75 0 13.51 2.58 18.66 7.73 4.97 4.96 7.71 11.56 7.73 18.59zM141.22 163.35c-1.31-1.34-2.67-2.73-4.23-3.85l-1.43-1.03-34.38 34.38 12.41 12.41 20.59-20.6c4.73 10.03 2.81 21.96-5.06 29.83-10.23 10.22-26.9 10.19-37.18-.08-10.45-10.45-10.67-26.59-.5-36.76 4.88-4.88 11.58-7.68 18.38-7.68h2.08v-18.93l-2.11.03c-11.63.18-22.58 4.83-30.84 13.09-8.46 8.46-13.13 19.7-13.15 31.66-.02 11.97 4.62 23.22 13.07 31.67 8.45 8.45 19.68 13.11 31.62 13.11s23.17-4.66 31.62-13.11c17.44-17.44 17.44-45.81 0-63.25l-.89-.89zM207.89 94.76c-8.45-8.45-19.68-13.11-31.62-13.11s-23.17 4.66-31.62 13.11-13.11 19.68-13.11 31.62 4.66 23.17 13.11 31.62 19.68 13.11 31.62 13.11 23.17-4.66 31.62-13.11S221 138.32 221 126.38s-4.66-23.16-13.11-31.62zm-12.99 50.25c-10.23 10.23-26.9 10.19-37.18-.08-10.27-10.27-10.31-26.95-.08-37.18 5.1-5.1 11.8-7.65 18.51-7.65 6.75 0 13.51 2.58 18.66 7.73 10.27 10.28 10.31 26.96.09 37.18zM128.34 106.35l-16.8-16.8v-9.8h43.39l18.18-18.18h-61.57V0L93.57 17.97v53.61l-26.8-26.8-13.01 13 61.57 61.57z"/><path class="st0" d="M175.49 126.38c0 6.41 5.2 11.61 11.61 11.61 6.41 0 11.61-5.2 11.61-11.61 0-6.41-5.2-11.61-11.61-11.61-6.42.01-11.61 5.2-11.61 11.61z"/><circle transform="rotate(-22.5 55.526 126.38)" class="st0" cx="55.53" cy="126.38" r="11.61"/></svg>