<svg xmlns="http://www.w3.org/2000/svg" width="512" height="512"><path fill="#D32027" d="M0 0h512v512H0V0m205.568 73.37c.307 38.605.051 77.261.154 115.866-36.454-11.315-72.602-23.603-108.954-35.174-11.11 32.819-21.76 65.843-33.178 98.56 36.71 11.827 73.472 23.603 110.285 35.174-21.504 32.256-44.902 63.181-66.867 95.078 26.368 20.275 52.634 40.806 78.438 61.901 23.706-31.13 47.718-62.003 71.27-93.235 22.938 30.566 45.363 61.542 68.301 92.109 27.443-20.122 54.938-40.243 82.586-60.16-22.886-31.693-45.67-63.488-68.762-95.078 36.864-12.749 74.342-23.501 111.309-35.84-11.622-32.717-22.016-65.843-33.28-98.662-36.045 12.237-72.397 23.552-108.595 35.379-.051-38.656 0-77.312 0-115.968-34.253-.053-68.505-.104-102.707.05z"/><path fill="#FFF" d="M204.698 70.349c34.202-.154 68.454-.102 102.707-.051 0 38.656-.051 77.312 0 115.968 36.198-11.827 72.55-23.142 108.595-35.379 11.264 32.819 21.658 65.946 33.28 98.662-36.966 12.339-74.445 23.091-111.309 35.84 23.091 31.59 45.875 63.386 68.762 95.078-27.648 19.917-55.142 40.038-82.586 60.16-22.938-30.566-45.363-61.542-68.301-92.109-23.552 31.232-47.565 62.106-71.27 93.235-25.805-21.094-52.07-41.626-78.438-61.901 21.965-31.898 45.363-62.822 66.867-95.078C136.192 273.203 99.43 261.427 62.72 249.6c11.418-32.717 22.067-65.741 33.178-98.56 36.352 11.571 72.499 23.859 108.954 35.174-.103-38.604.153-77.26-.154-115.865z"/></svg>