<svg xmlns="http://www.w3.org/2000/svg" width="70mm" height="70mm" viewBox="0 0 198.43 198.43"><defs><style>.cls-2{fill:#fff}.cls-4{fill:#115542}.cls-5{fill:#489b5a}</style></defs><path d="M197.18 99.21c0 54.11-43.86 97.97-97.97 97.97S1.24 153.32 1.24 99.21 45.11 1.24 99.21 1.24s97.97 43.86 97.97 97.97z" fill="#008b3f" id="HG_Kreis"/><path class="cls-5" d="M154.49 153.92l23.29 3.8L164.75 141l-.05-.05-14.47-16.12 4.7 13.76-6.14 7.12 5.7 8.21zm-34.46.16l11.71-7.59-26.35-18.81-14.26-38.11-10.59 5.44L44.2 59.62l-2.4-5.91-3.12-3.88-5.42 28.79 24.59 10.3-15.06 10.72 57.87 36.9-6.63 12.94 21.42 32.58h36.08c3.84-2.43 7.5-5.13 10.96-8.05l-42.47-19.91z" id="Berg_hell"/><g id="Berg_dunkel"><path class="cls-4" d="M164.62 140.88l.05.05 13.11 16.8-23.29-3.81-5.69-8.21 6.13-7.12-4.69-13.76-18.5 21.66-11.71 7.59 42.47 19.91c21.21-17.97 34.68-44.8 34.68-74.78 0-1.85-.06-3.68-.16-5.5l-21.83 43.79-10.57 3.37z"/><path class="cls-4" d="M99.21 197.18c19.24 0 37.19-5.55 52.32-15.13h-36.08l-21.42-32.58 6.63-12.94-57.87-36.9 15.06-10.72-24.59-10.3 5.42-28.79-17.5 8.96S9.48 74.83 8.82 75.83c-.27.41-3.35 5.76-6.91 11.98-.43 3.74-.66 7.54-.66 11.39 0 54.11 43.86 97.97 97.97 97.97z"/></g><g id="Typo_Swisstainable"><path d="M122.87 35.42c-8.04 0-14.57 6.52-14.57 14.57s6.52 14.57 14.57 14.57 14.57-6.52 14.57-14.57-6.52-14.57-14.57-14.57" fill="#d40123"/><path class="cls-2" d="M125.45 47.41v-6h-5.15v6h-6v5.15h6v6h5.15v-6h6v-5.15h-6zM81.4 102.76c1.77 0 2.9-1.58 2.9-3.28 0-1.52-.57-2.4-1.89-2.4-1.52 0-2.78 1.45-2.78 3.47 0 1.14.51 2.21 1.77 2.21zm-4.29-29.68c1.77 0 2.9-1.58 2.9-3.28 0-1.52-.57-2.4-1.89-2.4-1.52 0-2.78 1.45-2.78 3.47 0 1.14.51 2.21 1.77 2.21zm17.11 10.67c0-3.41-3.47-6.69-3.03-11.05l-2.34.69c-1.33 5.05-7.51 17.43-9.6 17.43-.57 0-.63-.25-.63-1.89 0 0 .44-8.08.76-12.69l-3.98 1.2s-1.96 5.43-3.85 5.43c-2.02 0-2.46-2.08-2.71-4.67l-3.66 1.77c0 1.52.57 3.03 1.64 4.04-.32 7.32-2.59 12.12-4.29 12.12-2.02 0-.88-10.8-.19-14.59l-4.1 1.2c-.19 1.01-.32 2.02-.44 2.84-.76 5.93-3.35 13.57-4.99 13.57-.88 0-1.07-1.33-1.07-3.54 0-3.41.44-7.2 1.01-11.18l-4.1 1.2c-.06.51-.19 1.01-.25 1.52-2.71 1.7-7.83 4.92-12.82 8.08-4.99-4.1-12.25-7.58-12.25-11.87 0-5.87 15.47-14.84 24.25-14.84 2.46 0 4.29.51 4.29 2.02 0 2.02-3.54 6.38-13.76 10.92l2.21 2.9s14.14-5.05 14.14-14.4c0-2.65-2.08-5.24-7.32-5.24-10.29 0-27.02 7.58-27.02 18.63 0 5.81 7.64 9.66 12.75 13.64-5.05 3.16-9.47 6-10.8 6.88-5.68 3.85-11.49 7.83-11.49 11.93 0 3.16 3.35 5.3 7.7 5.3 9.41 0 22.04-9.47 22.04-18.56 0-2.15-1.26-4.1-3.09-5.87 4.42-2.78 8.59-5.43 10.86-6.82-.19 1.58-.25 2.9-.25 4.04 0 6.44 2.02 7.58 3.73 7.58 2.84 0 4.93-3.54 6.12-7.58.69 3.79 2.59 4.55 3.98 4.55 3.85 0 7.58-7.77 8.21-13.2h.19c2.27 0 4.1-2.08 5.11-3.98-.32 3.66-.51 6.19-.51 8.08 0 3.16.95 4.36 2.78 4.36 4.74 0 9.47-11.05 11.62-16.48.19 1.96.95 4.29.95 6.88 0 2.02-.57 3.85-2.21 3.85-1.01 0-1.89-.82-2.08-1.07-.88 1.83.69 3.28 2.78 3.28 1.2 0 2.34-.32 3.28-.95 4.29-2.65 8.02-11.68 9.41-16.04.32 2.78 1.39 5.18 1.39 7.83 0 2.02-.95 3.09-2.27 3.09-.88 0-1.52-.57-1.89-.95-.76 1.96.44 3.28 2.59 3.28 3.16 0 5.75-2.27 5.75-6.19 0-4.55-3.92-6.76-3.09-11.3l-2.9.88c-.63 3.35-3.54 10.23-6.5 14.59v-.69zm-79.94 30.31c0-2.21 4.42-5.24 6.88-6.95 1.89-1.33 7.58-4.99 13.39-8.71 1.7 1.52 2.84 3.09 2.84 4.8 0 6.44-11.55 13.57-18.5 13.57-2.65 0-4.61-.82-4.61-2.72zm47.42 15.91c3.28 0 5.75-3.22 6.63-6.82 0 2.84.76 3.98 2.59 3.98 3.16 0 6.57-5.05 8.02-8.9v.88c0 2.72.88 4.36 2.97 4.36 4.74 0 8.33-10.23 9.28-13.58l-.63 10.54 3.91-1.26.06-.95c1.07-10.54 5.68-18.31 7.64-18.31.57 0 .76.69.76 1.7 0 1.96-1.14 8.08-1.14 10.86 0 1.89.5 3.79 2.97 3.79 2.9 0 6-2.71 7.83-6.69.88 1.58 2.27 2.4 4.04 2.4 3.47 0 5.75-3.16 6.76-6.63.13 2.15.57 3.6 2.78 3.6 4.55 0 8.08-6.88 8.59-8.59.82 2.65 2.59 4.04 5.24 4.04 5.18 0 9.79-5.49 9.79-11.37a6.2 6.2 0 00-1.01-3.41c.76.19 1.52.25 2.34.25.69 0 1.45-.06 2.15-.19.38 6.06 3.03 8.33 6 8.33 4.04 0 7.39-4.17 9.03-8.84.95 2.53 3.28 3.91 6.19 3.91 4.04 0 7.7-2.72 7.7-4.8 0-.88-.82-1.71-1.45-1.71-.57 1.39-2.08 4.29-5.18 4.29-2.59 0-3.28-2.21-3.47-4.67 5.87-.38 9.79-3.54 9.79-7.2 0-3.47-2.34-4.86-5.18-4.86-3.6 0-8.78 3.92-8.9 11.74-1.01 3.6-4.36 9.85-7.64 9.85-2.34 0-2.84-2.84-2.84-7.26v-.13c5.62-2.78 9.85-9.16 9.85-16.67 0-3.79-1.96-6.69-4.86-6.69-4.42 0-8.97 10.36-9.09 22.54-.38.06-.76.06-1.2.06-3.66 0-6.57-2.84-8.27-5.49l-2.9 3.09c.51.69 1.64 1.7 3.16 2.59.82.82 1.71 2.78 1.71 5.62 0 4.23-2.27 8.84-5.05 8.84-1.7 0-2.59-1.39-2.59-6.38 0-3.35 1.64-23.55 1.64-23.55l-3.92 1.2c-.32 4.17-1.64 18.56-1.64 21.97 0 .69 0 1.33.06 1.89-.88 3.79-4.74 9.09-6.31 9.09-.57 0-.69-.44-.69-1.89 0-3.6 1.07-14.65 1.07-14.65l-3.92 1.26s-.06 1.01-.19 2.27c-.57-.82-1.52-1.45-3.03-1.45-4.42 0-9.35 5.81-9.35 13.58 0 .57.06 1.14.13 1.58-1.33 3.28-3.72 6.57-5.37 6.57-.51 0-.63-.38-.63-.82 0-2.53 1.14-6.95 1.14-10.86 0-2.72-1.01-4.42-3.72-4.42-3.54 0-6.76 4.17-8.27 12.19l.51-9.03-3.91 1.33c-1.01 6.82-6.12 18.75-8.4 18.75-.38 0-.38-.44-.38-1.26 0 0 .38-8.15.82-14.96l-3.92 1.26c-.13 2.08-.32 4.04-.44 5.81-1.01 5.87-5.56 12.69-6.76 12.69-.32 0-.38-.19-.38-.88 0-2.4.88-15.22.88-15.22l-3.91 1.26-.19 2.78c-.44-1.01-1.33-2.02-3.09-2.02-4.1 0-9.03 5.18-9.03 12.94 0 .44 0 .82.06 1.14-1.58 3.03-4.61 7.26-7.07 7.26-1.64 0-1.83-1.58-1.83-4.55 0-1.89.19-4.99.44-8.27l6.5-2.15.13-2.65-6.38 2.08c.19-2.27.44-4.61.69-6.69l-4.04 1.26c-.32 2.02-.57 4.42-.76 6.82l-3.91 1.26-.13 2.65 3.79-1.26c-.25 3.41-.38 6.44-.38 7.83 0 3.91 1.01 6.44 4.04 6.44 4.8 0 7.96-4.86 9.41-7.7.76 2.15 2.34 3.22 4.29 3.22zm100.14-63.14c1.33 0 1.52 3.28 1.52 5.05 0 4.61-1.33 11.37-6 14.27.32-10.67 3.03-19.32 4.48-19.32zm10.17 17.49c0-3.66 1.83-7.96 4.23-7.96 1.39 0 1.83 1.14 1.83 2.53 0 3.16-1.96 5.24-6.06 5.68v-.25zm-56.13 20.52c0-5.3 2.84-10.73 5.3-10.73 1.58 0 2.34 1.26 2.72 2.27v.38c-.38 6.12-3.09 12.63-5.68 12.63-1.83 0-2.34-2.02-2.34-4.55zM60.95 122.9c0-5.75 2.97-10.42 5.24-10.42 1.7 0 2.34 1.33 2.65 2.27l-.06.69c-.51 5.62-2.97 11.93-5.62 11.93-1.7 0-2.21-2.15-2.21-4.48z"/></g><g id="Level_2_engaged"><path class="cls-2" d="M100.85 142.33c-.57 2.49-2.13 4.21-4.27 4.89-3.02.97-4.3-.93-4.19-4.11.2-3.19 2.21-6.1 4.79-6.93 3.35-1.07 4.16 2.1 3.91 4.68L94 143.13c-.17 1.86.66 3.2 2.73 2.53 1.3-.42 2.22-1.37 2.58-2.85l1.54-.49zm-1.32-2.46c.01-1.63-.99-2.61-2.54-2.11-1.61.51-2.7 2.19-2.9 3.85l5.44-1.74zm3.53-5.33l1.46-.47-.1 1.68h.04c.74-1.53 1.82-2.48 3.2-2.92 2.49-.8 3.16.55 3.02 2.82l-.43 6.95-1.56.5.45-7.16c.08-1.31-.6-1.89-1.79-1.51-1.89.6-2.89 2.31-3.01 4.21l-.37 5.97-1.56.5.66-10.57zm17.75 3.81c-.22 3.46-1.72 5.64-4.72 6.6-1.78.57-3.78.41-3.72-1.85l1.56-.5c-.02 1.23 1.34 1.26 2.35.93 2.03-.65 2.94-2.54 3.09-4.92l.04-.7h-.04c-.61 1.47-1.86 2.49-3.07 2.88-2.82.9-4.08-1.12-3.9-4.01.16-2.49 1.43-5.93 4.73-6.98 1.19-.38 2.22-.13 2.71.86h.02l.09-1.52 1.46-.47-.6 9.67zm-1.25-4.11c.12-1.86-.5-3.55-2.46-2.92-2 .64-2.92 2.72-3.04 4.74-.12 1.9.37 3.83 2.42 3.17 2.05-.66 2.95-3.01 3.07-4.99zm11.93 1.53c-.29.27-.68.5-1.13.64-.81.26-1.29-.07-1.22-1.21-.93 1.42-2.12 2.28-3.43 2.7-1.72.55-3.08.16-2.95-1.96.15-2.39 1.77-3.43 3.41-4.28 1.73-.93 3.2-1.25 3.28-2.57.1-1.53-1.03-1.4-2-1.09-1.32.42-2.32 1.18-2.49 2.76l-1.56.5c.25-2.65 2.11-4.14 4.23-4.82 1.7-.54 3.53-.71 3.37 1.77l-.34 5.44c-.05.82-.07 1.19.42 1.03.15-.05.31-.14.48-.25l-.08 1.35zm-2.19-4.61c-1.27 1.39-4.73 1.53-4.89 4.13-.07 1.15.78 1.27 1.73.97 2.05-.66 2.98-2.34 3.04-3.32l.11-1.78zm11.86.67c-.22 3.46-1.72 5.64-4.72 6.6-1.78.57-3.78.41-3.72-1.86l1.56-.5c-.02 1.23 1.34 1.26 2.35.93 2.03-.65 2.94-2.54 3.09-4.92l.04-.7h-.04c-.61 1.47-1.86 2.49-3.07 2.88-2.82.9-4.08-1.12-3.9-4.01.16-2.5 1.43-5.93 4.72-6.98 1.19-.38 2.22-.13 2.71.86h.02l.09-1.52 1.46-.47-.6 9.67zm-1.25-4.11c.12-1.86-.5-3.55-2.46-2.92-2 .64-2.91 2.72-3.04 4.74-.12 1.9.37 3.83 2.42 3.17s2.95-3.01 3.08-4.99zm11.82-1.68c-.57 2.49-2.13 4.21-4.27 4.89-3.02.97-4.3-.93-4.19-4.11.2-3.19 2.21-6.1 4.79-6.92 3.35-1.07 4.16 2.1 3.91 4.68l-7.09 2.27c-.17 1.86.66 3.2 2.73 2.53 1.3-.42 2.22-1.37 2.58-2.85l1.54-.49zm-1.32-2.46c.01-1.63-.99-2.61-2.54-2.11-1.61.52-2.7 2.19-2.9 3.85l5.44-1.74zm11.61 2.46l-1.56.5.09-1.43h-.04c-.58 1.34-1.81 2.23-3.13 2.66-2.91.93-4.2-1.18-4.01-4.17.19-2.99 1.77-5.96 4.66-6.88.95-.3 2.36-.35 2.96.68h.04l.34-5.45 1.56-.5-.91 14.6zm-4.31.12c2.11-.67 3.02-2.95 3.14-4.91.13-2.06-.59-3.74-2.73-3.05-2.12.68-2.96 2.93-3.09 5-.12 1.98.67 3.61 2.69 2.97zm-91.7 24.3l-13.09-8.4-2.28 3.76 9.65 6.2-6.44 10.66 3.45 2.21 8.71-14.43z"/><path class="cls-2" d="M76.28 147.17l-13.08-8.4-2.29 3.76 9.65 6.2-6.43 10.66 3.44 2.21 8.71-14.43z"/><path class="cls-5" d="M86.55 143.79l-13.09-8.4-2.28 3.76 9.65 6.2-6.44 10.66 3.45 2.21 8.71-14.43z"/></g></svg>