<svg xmlns="http://www.w3.org/2000/svg" width="512" height="512"><switch><g><g fill="#0B465F"><path d="M18.34 183.2c9.25-21.15 33.98-33.89 56.59-29.43 9.27 1.68 17.73 6.71 23.96 13.73 9.21-8.39 21.76-12.92 34.21-12.13 16.85.83 32.87 10.58 41.62 24.96 6.11 9.99 8.92 22.18 6.85 33.79-1.94 12.31-9.43 23.59-20.07 30.09 3.08-3.84 6.42-7.52 8.72-11.91 6.45-11.97 6.98-26.77 1.8-39.3-6.27-15.87-21.21-27.98-38.11-30.57-11.52-2-23.58.94-33.25 7.39 2.24 3.49 4.18 7.18 5.32 11.18-2.36-3.28-4.69-6.62-7.52-9.53-3.79 3.12-6.93 6.91-9.91 10.79 2.1-4.5 4.89-8.63 8.06-12.43a43.2 43.2 0 00-20.62-9.65c-19.26-3.41-40.19 5.64-50.67 22.2-3.72 5.71-5.92 12.33-6.55 19.11 3.69-2.52 7.56-4.81 11.8-6.3-4.26 3.21-8.62 6.36-11.97 10.57.42 3.12.94 6.24 1.65 9.32-.46 1.18-.91 2.36-1.36 3.55-1.38-2.9-2.48-5.92-3.34-9-6.15 9.89-8.98 22-6.69 33.52 2.45 13.61 11.08 25.98 23.09 32.86 11.7 6.91 26.45 8.73 39.33 4.12 6.01-1.9 11.24-5.49 16.24-9.23-7.02 8.76-17.7 14.16-28.71 15.8-15.36 2.36-31.56-3.1-42.66-13.9C6.22 263.44.37 249.76.94 236.08 1.09 224.4 6.4 213.19 14.6 205c-.37-7.43.65-14.99 3.74-21.8zM282.22 206.2c2.72-1.06 5.78 2.59 4.05 5.05-1.25 2.38-5.21 2.29-6.14-.3-1.02-1.76.17-4.22 2.09-4.75zM262.38 210.24c2.37-1.68 5.89 1.08 5.06 3.8-.35 2.24-3.61 3.56-5.32 2-2.1-1.28-1.77-4.62.26-5.8zM300.37 210.52c2.18-2.18 6.16.4 5.39 3.27-.03 3.25-5.44 3.88-6.45.93-.76-1.44-.25-3.28 1.06-4.2zM275.88 226.21c2.61-4.15 5.02-8.41 7.71-12.51 2.61 4.16 5.12 8.38 7.7 12.56 3.49-3.12 6.92-6.3 10.51-9.32-1.12 4.71-2.45 9.36-3.63 14.06H269c-1.26-4.65-2.54-9.29-3.6-13.99 3.57 2.98 6.95 6.18 10.48 9.2zM269.02 231.99c9.67.03 19.35 0 29.02.01-.1 3.51-.17 7.03-.12 10.55-2.88-.04-5.76-.06-8.63-.09-.1 17.93-.01 35.86-.04 53.79H298v2.5h-29v-2.5c2.92 0 5.84 0 8.76-.01-.01-17.91-.02-35.82 0-53.73-2.9-.01-5.81-.01-8.71 0 .02-3.51-.59-7.03-.03-10.52zM214.76 239.89c7.68-2.43 16.3-1.24 23.07 3.13 1.5-1.65 2.98-3.57 5.37-3.84.09 5.92.04 11.84.03 17.76-.61-.1-1.85-.29-2.47-.39-1.84-4.06-3.18-8.63-6.74-11.6-5.21-4.67-13.6-5.08-19.4-1.32-5.66 4.18-6.04 11.87-6.32 18.28.04 7.34-.45 14.73.46 22.04.65 4.95 2.75 10.55 7.79 12.48 4.93 1.89 11.91 2.02 15.3-2.7 2.3-4.26 1.52-9.33 1.64-13.98-3 0-6-.01-9-.01v-2.48c9.34-.03 18.68.01 28.02 0v2.47c-2.01 0-4.02.04-6.03.05-.37 5.61-2.43 11.35-6.88 15.02-6.52 5.51-15.83 6.2-23.87 4.37-7.11-1.79-12.82-7.16-16.7-13.19-5.61-10.13-5.43-23.32.71-33.18 3.51-5.68 8.53-10.82 15.02-12.91zM316.75 240h29.5v2.5c-3.02.02-6.04 0-9.05-.1.15 18.03-.05 36.06.1 54.09 7.17-1.06 15.68 1.76 21.66-3.55 4.2-3.38 4.49-9.02 5.49-13.87.7-.12 2.1-.36 2.79-.48-.43 6.71-.52 13.45-1.01 20.17-16.48-.02-32.97-.01-49.45-.01l-.09-2.46c2.93-.03 5.87-.05 8.81-.05.16-17.9-.32-35.82.25-53.72-3-.02-6-.03-9-.03V240zM383.99 240c9.35.02 18.7-.04 28.04.02 6.46.08 13.17 1.5 18.25 5.72 14.12 10.48 14.65 33.76 2.15 45.69-4.99 4.81-11.89 7-18.71 7.21-9.91.26-19.82.03-29.72.11v-2.5h8.79c-.61-17.91-.15-35.83-.29-53.75-2.83 0-5.65 0-8.47.01l-.04-2.51m20.25 2.51c.02 17.91 0 35.82.01 53.73 5.4-.07 11.21.66 16.18-1.96 4.89-2.94 6.65-8.84 7.63-14.13 1.27-8.34 1.33-16.92-.23-25.23-.87-3.77-2.1-8.09-5.81-10-5.47-2.76-11.83-2.4-17.78-2.41zM460.2 240.03c16.5-.07 33-.01 49.5-.03.09 5 .76 10.08-.65 14.97-3.43-1.81-3.3-6.43-6.21-8.81-5.8-5.84-14.8-2.99-22.11-3.65.43 8.28.24 16.55-.01 24.83 3.73-.13 7.97-.09 10.89-2.82 1.95-2.2 2.1-5.31 2.63-8.05.7.06 2.09.19 2.78.25-.55 8.32-.14 16.66-.29 24.99-.62-.18-1.84-.54-2.45-.71-.89-3.03-.87-6.61-3.3-8.93-2.78-2.5-6.81-2.19-10.28-2.41.69 8.86-.15 17.73.34 26.59 6.53-.43 13.45 1.13 19.69-1.35 5.92-2.59 6.93-9.56 8.48-15.06.63-.16 1.88-.46 2.51-.62.12 6.52-.39 13.03-.69 19.54-16.94-.03-33.88.01-50.82-.03.02-.61.07-1.85.1-2.47 2.97-.03 5.94-.01 8.92.12.05-17.97.02-35.95.01-53.92-2.99.03-5.97.04-8.95.05-.03-.62-.07-1.86-.09-2.48zM198.3 305.95c4.52-.14 9.98-1.26 13.67 2.07 3.05 3.44 1.38 9.01-2.78 10.66 3.19 3.42 4.42 8.03 6.04 12.3-.8-.02-2.39-.05-3.19-.07-2.24-2.94-2.44-7.11-4.93-9.95-1.45-1.5-3.77-1.07-5.63-1.37-.02 3.78-.01 7.56-.01 11.35-1.06.01-2.12 0-3.17-.02-.06-8.32-.05-16.65 0-24.97m3.18 2.47l-.03 8.62c2.46-.16 5.23.34 7.35-1.2 1.33-1.46 1.59-3.74.7-5.48-1.91-2.47-5.32-1.79-8.02-1.94zM292.73 307.83h3.26c.01 1.55.02 3.11.02 4.67 1.65.01 3.31-.01 4.97.13.09.66.26 1.97.35 2.63h-5.31c.15 4.13-.51 8.37.44 12.43 1.31 1.53 3.36.37 5.02.42.23 4.8-7.96 3.94-8.47-.21-.61-4.12-.17-8.32-.26-12.47-1.83.05-3.93-.33-2.82-2.72.71-.08 2.11-.25 2.81-.33-.01-1.52-.02-3.04-.01-4.55zM475.73 307.82c.81 0 2.43.01 3.24.01l.09 4.71c1.63-.01 3.28-.04 4.92.07.09.67.27 1.99.35 2.65h-5.32c.18 4.16-.55 8.45.5 12.52 1.35 1.39 3.32.29 4.96.33.33 3.55-3.93 3.69-6.3 2.65-1.81-.8-2.38-2.96-2.4-4.76-.15-3.57-.01-7.14-.03-10.71l-3.08-.04c-.38-2.38 1.01-3.02 3.08-2.87-.01-1.52-.02-3.04-.01-4.56zM234.47 313.56c3.06-1.96 7.56-1.84 10.3.65 2.19 2.1 2.18 5.32 2.31 8.12-4.42.21-8.85.13-13.27.13.52 1.86.49 4.26 2.34 5.38 3.17 1.9 6.99.46 10.24-.45.59 3.36-3.12 3.43-5.44 3.83-3.43.37-7.67-.63-9.15-4.1-1.97-4.4-1.49-10.58 2.67-13.56m-.79 6.67c3.44.06 6.88.05 10.32 0-.33-2.35-1.26-5.09-3.99-5.43-3.47-.88-5.81 2.43-6.33 5.43zM264.01 317.97c-1.09-6.25 10.96-8.35 11.28-1.95-2.57-.63-6.31-2.72-8.14.25-1.01 3.32 3.57 3.72 5.62 5.03 3.45 1.02 4.35 5.77 1.74 8.13-3.02 2.76-7.49 1.95-10.96.6 0-.79-.02-2.37-.02-3.16 2.63 1.24 5.71 2.79 8.56 1.16.7-1.15 1.12-3.01-.28-3.83-2.7-1.89-7.32-2.26-7.8-6.23zM317.56 316.63c-1.07-3.41 2.96-3.95 5.37-4.31 2.99-.39 7.12.31 7.97 3.75.82 4.91.2 9.95.32 14.92-.67.01-2.02.01-2.69.02l.08-2.14c-2.44 1.67-5.49 3.33-8.48 1.94-3.22-1.02-4.58-5.44-2.29-8 2.61-2.91 6.84-2.45 10.37-2.63-.46-1.76-.03-4.54-2.31-5.1-2.85-1.15-5.69.68-8.34 1.55m3.23 7.17c-1.93 1.63-.4 5.21 2.15 4.94 2.11.33 3.62-1.35 5.13-2.52-.03-.96-.08-2.88-.1-3.84-2.38.27-5.27-.38-7.18 1.42zM386.92 315.32c1.63-2.06 4.63-4.34 7.2-2.37l.28 2.67c-2.98-1.1-6.01.42-7.01 3.38-.33 3.96-.04 7.95-.15 11.93-.8.01-2.39.02-3.19.03-.1-6.15-.03-12.3-.05-18.45.75.02 2.25.06 3 .09l-.08 2.72zM409.55 316.63c-1.06-3.45 3.03-3.96 5.46-4.32 2.97-.38 7.07.36 7.9 3.77.81 4.91.18 9.95.31 14.91-.67.01-2.02.01-2.69.01l.08-2.13c-2.44 1.66-5.48 3.32-8.45 1.95-3.26-1.02-4.63-5.5-2.28-8.06 2.62-2.86 6.82-2.4 10.33-2.57-.47-1.76-.02-4.53-2.29-5.11-2.86-1.16-5.71.68-8.37 1.55m2.77 7.7c-1.16 1.87.36 4.64 2.64 4.41 2.11.32 3.6-1.36 5.11-2.51-.03-.96-.07-2.88-.1-3.84-2.57.25-5.89-.47-7.65 1.94zM443.94 315.16c2.02-1.59 4.33-3.39 7.1-2.86 2.91.13 4.98 2.94 5.1 5.71.32 4.29.06 8.61.09 12.92l-3.17.04c-.52-4.92.98-10.27-1.1-14.88-2.51-2.65-5.92-.02-7.74 2.09.08 4.24.05 8.5.02 12.75-.8.01-2.39.02-3.19.02-.1-6.15-.04-12.3-.04-18.45.75.03 2.25.08 3 .11-.02.63-.05 1.91-.07 2.55zM502.93 312.91c2.99-1.25 8.12-1.15 8.52 3.02-2.84-.8-8.54-2.82-8.55 2.01 2.64 2.54 6.62 3.11 9.1 5.93v3c-1.71 5.31-8.23 4.94-12.45 3.24l-.04-3.15c2.8 1.44 5.89 2.01 9.01 1.41-.02-1.22 0-2.43-.07-3.64-2.19-1.66-4.92-2.39-7.11-4.03-2.38-2.24-1.45-6.63 1.59-7.79zM350.01 312.59c.81-.02 2.42-.05 3.23-.06.27 4.57-.51 9.26.46 13.77 1.52 4.07 7.05 1.78 8.18-1.31.33-4.13.03-8.27.12-12.4.81-.02 2.43-.05 3.24-.07.04 6.2.05 12.4-.01 18.59-2.05.19-3.49-.41-3.08-2.72-2.81 3.32-9.07 4.29-11.3-.12-1.7-5.01-.51-10.48-.84-15.68z"/></g><g fill="#0C465E"><path d="M20.25 215.08c1.52 5.49 4.76 10.18 7.87 14.86-3.79-3.13-6.71-7.13-9.23-11.31.45-1.19.9-2.37 1.36-3.55zM158.08 252.92c2.27-2.79 6.2-2.54 9.11-.99-2.09 1.23-4.63 2.18-5.74 4.52-3.27 5.86-3.29 12.78-3.22 19.31 5.68 1.25 11.53 2.88 16.05 6.73-5.16-1.64-10.43-3.02-15.85-3.4 1.51 14.49 5.74 28.8 13.31 41.3 5.54 1.27 11.29 3.09 15.16 7.51-3.93-1.41-7.91-2.75-12.07-3.29 1.87 2.27 4.05 4.24 6.23 6.21-4.02-1.17-7.16-3.95-10.11-6.78-15.55-1.06-31.16 1.52-46.03 6-12.37 3.87-24.56 9-34.97 16.86-5.24 4.11-10.77 9.09-11.97 15.98-.61 2.76.97 5.28 1.94 7.74-3.33-1.96-6.93-4.45-7.72-8.52-1.22-5.93 2.7-11.28 6.67-15.24 10.12-9.84 23.38-15.58 36.52-20.2 16.81-5.49 34.71-8.71 52.42-6.84-8.17-12.22-12.33-26.64-14.11-41.11-18.75.1-37.39 4.1-54.67 11.36-9.67 4.12-19.16 9.23-26.7 16.69 3.38 7.99 5.6 16.56 5.67 25.27-.03 3.95-.74 7.94-2.67 11.43.78-11.12-1.32-22.6-6.7-32.41-1.43 2.75-2.98 5.67-2.83 8.87.34 2.12 1.42 4.02 2.22 6-3.54-2.3-7.7-5.17-8.03-9.79-.6-4.49 1.97-8.37 4.37-11.89-1.9-1.52-3.8-3.34-6.35-3.6-1.57.34-2.81 1.44-4.17 2.24 1.05-3.1 1.59-7.5 5.28-8.52 4.2-.88 6.93 3.14 9.44 5.78 8.1-7.03 17.78-11.95 27.69-15.9 18.13-7.06 37.75-10.86 57.24-9.21-.01-7.47-.46-16 4.59-22.11z"/></g><path fill="#E53A2B" d="M113.69 297.02c2.71-.63 5.4-1.33 8.08-2.07.45 1.65.88 3.31 1.35 4.96-.31 1.19-.65 2.37-.95 3.57-2.04.43-4.08.87-6.11 1.33-.54-1.88-1.09-3.76-1.64-5.64-.66.19-1.99.57-2.66.76.59-.86 1.16-1.72 1.72-2.59l.21-.32z"/><path fill="#EB362D" d="M101.42 300.39c4.02-1.03 7.99-2.23 12.06-3.05-.56.87-1.13 1.73-1.72 2.59-.49.15-1.47.46-1.96.62.43 1.86.86 3.72 1.28 5.58-1.68.45-3.36.91-5.02 1.44.01.32.03.97.03 1.3-.95-.32-1.9-.63-2.84-.94-.62-2.51-1.23-5.03-1.83-7.54z"/><path fill="#FFFCFC" d="M109.8 300.55c.49-.16 1.47-.47 1.96-.62.67-.19 2-.57 2.66-.76.55 1.88 1.1 3.76 1.64 5.64 2.03-.46 4.07-.9 6.11-1.33l.04.78c.04 1 .11 3 .14 4-1.7.46-3.4.94-5.09 1.43.21.78.62 2.34.83 3.12l.68 2.51c-1.53.3-3.04.62-4.56.94-.54-1.37-.99-2.77-1.41-4.18l-.34-1.11c-1.85.47-3.7.94-5.54 1.41-.3-1.17-.58-2.34-.83-3.51 0-.33-.02-.98-.03-1.3 1.66-.53 3.34-.99 5.02-1.44-.42-1.86-.85-3.72-1.28-5.58z"/><path fill="#B44443" d="M123.12 299.91c1.46 5.18 3.14 10.34 3.95 15.68-3.44.77-6.84 1.7-10.23 2.64-.89-.66-1.77-1.29-2.63-1.97 1.52-.32 3.03-.64 4.56-.94l-.68-2.51c.52 1.28.79 2.78 1.86 3.75 1.77-.31 3.53-.82 5.11-1.71 1.49-3.75-1.24-7.37-2.85-10.59l-.04-.78c.3-1.2.64-2.38.95-3.57z" opacity=".88"/><path fill="#E9352D" d="M122.21 304.26c1.61 3.22 4.34 6.84 2.85 10.59-1.58.89-3.34 1.4-5.11 1.71-1.07-.97-1.34-2.47-1.86-3.75-.21-.78-.62-2.34-.83-3.12 1.69-.49 3.39-.97 5.09-1.43-.03-1-.1-3-.14-4z"/><path fill="#B95251" d="M103.25 307.93c.94.31 1.89.62 2.84.94.25 1.17.53 2.34.83 3.51 1.84-.47 3.69-.94 5.54-1.41l.34 1.11c-2.46.17-4.92.34-7.38.52.14 1.51.3 3.02.47 4.54-1.03-3.03-1.86-6.12-2.64-9.21z" opacity=".89"/><path fill="#E8382E" d="M105.42 312.6c2.46-.18 4.92-.35 7.38-.52.42 1.41.87 2.81 1.41 4.18.86.68 1.74 1.31 2.63 1.97-3.4.82-6.77 1.75-10.14 2.68-.31-1.25-.58-2.51-.81-3.77-.17-1.52-.33-3.03-.47-4.54z"/><path fill="#FFF" d="M193.5 302.5H512v69H193.5z"/><g fill="#0B465F"><path d="M218.769 335.865c0 .131-.024.244-.073.342s-.155.18-.317.244a2.802 2.802 0 01-.684.146c-.293.032-.684.049-1.172.049-.423 0-.769-.017-1.038-.049a2.332 2.332 0 01-.647-.158.884.884 0 01-.378-.306 1.929 1.929 0 01-.232-.488l-2.905-7.446a27.822 27.822 0 00-1.062-2.332 7.505 7.505 0 00-1.306-1.83 5.363 5.363 0 00-1.782-1.197c-.684-.284-1.506-.427-2.466-.427h-2.808v13.452c0 .131-.037.244-.11.342s-.188.175-.342.232a3.395 3.395 0 01-.635.146c-.269.04-.606.061-1.013.061-.407 0-.745-.021-1.013-.061a3.82 3.82 0 01-.647-.146c-.163-.058-.277-.135-.342-.232a.602.602 0 01-.098-.342v-29.248c0-.635.167-1.078.5-1.33.333-.253.688-.379 1.062-.379h6.714c.797 0 1.46.021 1.99.061.529.041 1.005.086 1.428.135 1.221.212 2.299.546 3.235 1.001.936.456 1.721 1.034 2.356 1.733a6.991 6.991 0 011.428 2.404c.317.904.476 1.901.476 2.991 0 1.059-.143 2.006-.427 2.845a6.887 6.887 0 01-1.233 2.221 8.133 8.133 0 01-1.929 1.673 12.31 12.31 0 01-2.515 1.196c.521.229.993.517 1.416.867.423.35.818.769 1.184 1.257s.712 1.05 1.038 1.685c.325.635.651 1.352.977 2.148l2.832 6.958c.228.586.374.997.439 1.233.066.236.099.419.099.549zm-6.324-22.192c0-1.236-.277-2.282-.83-3.138-.554-.854-1.481-1.468-2.783-1.843-.407-.113-.867-.195-1.379-.244s-1.184-.073-2.014-.073h-3.54v10.645H206c1.106 0 2.063-.135 2.869-.402.806-.27 1.477-.644 2.014-1.123a4.366 4.366 0 001.184-1.697c.252-.652.378-1.36.378-2.125zM250.305 323.951c0 .635-.159 1.086-.479 1.355a1.648 1.648 0 01-1.091.402h-14.471c0 1.221.123 2.319.368 3.296s.654 1.815 1.227 2.515c.572.7 1.316 1.237 2.232 1.611.916.375 2.036.562 3.361.562 1.047 0 1.979-.085 2.796-.257.818-.17 1.525-.361 2.123-.573a21.282 21.282 0 001.472-.573c.384-.172.675-.257.871-.257.114 0 .216.028.307.085a.56.56 0 01.208.257c.049.114.086.272.11.476.024.204.037.452.037.745 0 .212-.009.395-.024.55a4.226 4.226 0 01-.062.414 1.023 1.023 0 01-.121.33 1.42 1.42 0 01-.221.281c-.089.089-.354.235-.793.439-.439.203-1.01.402-1.709.598-.7.195-1.51.37-2.429.525-.92.154-1.9.231-2.942.231-1.807 0-3.39-.253-4.749-.757-1.359-.504-2.502-1.253-3.43-2.246-.928-.992-1.628-2.237-2.1-3.735-.472-1.497-.708-3.238-.708-5.225 0-1.888.244-3.585.732-5.091.488-1.505 1.192-2.783 2.112-3.832a9.225 9.225 0 013.333-2.418c1.302-.561 2.759-.842 4.37-.842 1.725 0 3.194.277 4.407.83 1.212.554 2.209 1.298 2.991 2.234.781.936 1.354 2.034 1.722 3.295a14.48 14.48 0 01.549 4.041v.734zm-4.053-1.196c.049-2.115-.422-3.775-1.413-4.98-.991-1.204-2.46-1.807-4.409-1.807-.999 0-1.875.188-2.628.562a5.705 5.705 0 00-1.892 1.489 6.826 6.826 0 00-1.179 2.161 8.996 8.996 0 00-.466 2.575h11.987zM278.276 329.908c0 1.123-.208 2.124-.622 3.003a6.124 6.124 0 01-1.771 2.222c-.766.603-1.677 1.059-2.734 1.367-1.059.309-2.222.464-3.491.464a13.26 13.26 0 01-2.234-.183 13.115 13.115 0 01-1.904-.465 9.857 9.857 0 01-1.428-.586c-.391-.203-.676-.386-.854-.549-.18-.162-.31-.391-.391-.684-.082-.293-.122-.691-.122-1.196 0-.309.016-.569.049-.781.032-.211.073-.382.122-.513a.545.545 0 01.208-.281.551.551 0 01.305-.085c.179 0 .443.11.793.329.351.221.781.461 1.295.721.512.261 1.118.5 1.818.721.699.219 1.505.329 2.417.329.684 0 1.302-.073 1.855-.22a4.5 4.5 0 001.44-.646 2.87 2.87 0 00.939-1.087c.221-.439.33-.96.33-1.563 0-.618-.158-1.139-.477-1.563-.316-.423-.736-.797-1.257-1.123a10.426 10.426 0 00-1.758-.866c-.651-.253-1.322-.517-2.015-.794a20.522 20.522 0 01-2.025-.94 7.73 7.73 0 01-1.771-1.281 5.82 5.82 0 01-1.257-1.807c-.318-.699-.477-1.538-.477-2.515 0-.862.167-1.688.5-2.478a5.758 5.758 0 011.502-2.076c.667-.594 1.502-1.069 2.502-1.428 1.002-.357 2.169-.537 3.504-.537.586 0 1.172.049 1.758.146s1.114.22 1.587.366c.472.146.875.306 1.208.476.334.172.586.322.758.452.17.131.284.244.342.342.057.098.098.208.121.329a5.275 5.275 0 01.11 1.111c0 .277-.013.517-.036.721a1.78 1.78 0 01-.123.5.648.648 0 01-.207.281.46.46 0 01-.269.085c-.146 0-.358-.089-.635-.269a9.03 9.03 0 00-1.074-.574 11.905 11.905 0 00-1.55-.573c-.595-.179-1.274-.269-2.039-.269-.684 0-1.286.077-1.807.232-.521.154-.948.374-1.281.658a2.801 2.801 0 00-.758 1.014 3.15 3.15 0 00-.256 1.27c0 .635.162 1.168.488 1.6.325.431.748.81 1.27 1.135.521.326 1.114.619 1.782.879.667.261 1.347.529 2.038.806.692.277 1.376.586 2.051.928a7.695 7.695 0 011.795 1.245 5.648 5.648 0 011.258 1.758c.319.684.478 1.499.478 2.442zM302.953 334.278c0 .473-.033.847-.098 1.123-.065.277-.163.48-.293.61-.131.131-.326.253-.586.366a4.718 4.718 0 01-.891.28c-.334.074-.688.135-1.063.184a8.654 8.654 0 01-1.123.073c-1.14 0-2.116-.15-2.93-.452-.814-.301-1.481-.756-2.002-1.367-.521-.609-.899-1.383-1.135-2.318-.236-.937-.354-2.039-.354-3.309v-12.842h-3.076c-.244 0-.439-.13-.586-.391-.146-.26-.22-.684-.22-1.27 0-.309.021-.569.061-.781.041-.211.094-.387.159-.525a.609.609 0 01.257-.293.73.73 0 01.354-.085h3.052v-5.225c0-.113.028-.22.085-.317a.693.693 0 01.318-.256c.154-.074.361-.126.622-.159.26-.032.586-.049.977-.049.406 0 .74.017 1.001.049.26.033.464.085.61.159a.786.786 0 01.317.256.572.572 0 01.098.317v5.225h5.64c.13 0 .244.028.342.085a.723.723 0 01.257.293c.072.139.125.314.158.525.032.212.049.473.049.781 0 .586-.073 1.01-.22 1.27-.146.261-.342.391-.586.391h-5.64v12.256c0 1.514.224 2.657.672 3.43.447.773 1.248 1.16 2.404 1.16a4.21 4.21 0 001.001-.109 8.431 8.431 0 001.367-.464c.162-.072.309-.109.439-.109.081 0 .159.021.231.061.074.041.131.119.172.232.04.114.076.269.109.464.035.194.051.438.051.731zM332.268 335.914c0 .195-.065.342-.195.439-.131.098-.31.171-.537.22-.229.049-.562.073-1.001.073a5.54 5.54 0 01-1.013-.073c-.253-.049-.437-.122-.55-.22-.114-.098-.171-.244-.171-.439v-2.197c-.961 1.025-2.03 1.823-3.211 2.393a8.519 8.519 0 01-3.747.854c-1.156 0-2.201-.15-3.138-.452-.936-.301-1.732-.735-2.393-1.306a5.852 5.852 0 01-1.537-2.1c-.367-.83-.55-1.773-.55-2.832 0-1.236.252-2.311.757-3.223.504-.911 1.229-1.668 2.173-2.271.943-.602 2.1-1.054 3.467-1.355 1.367-.301 2.905-.451 4.614-.451h3.027v-1.709c0-.846-.09-1.595-.269-2.246-.18-.65-.468-1.192-.866-1.623-.399-.432-.916-.758-1.551-.977-.635-.221-1.416-.33-2.344-.33-.993 0-1.884.118-2.674.354-.789.236-1.48.497-2.074.781a20.05 20.05 0 00-1.49.781c-.398.236-.695.354-.891.354a.595.595 0 01-.342-.098.801.801 0 01-.256-.293 1.477 1.477 0 01-.159-.501 4.202 4.202 0 01-.049-.671c0-.406.028-.729.085-.964.058-.236.195-.46.416-.672.219-.211.598-.46 1.135-.744a12.342 12.342 0 011.855-.781 16.72 16.72 0 012.295-.586c.83-.155 1.668-.232 2.515-.232 1.578 0 2.921.18 4.028.537 1.106.358 2.002.883 2.686 1.574.684.692 1.18 1.551 1.489 2.576.309 1.025.464 2.222.464 3.589v14.821zm-4.004-10.034h-3.442c-1.107 0-2.067.094-2.881.28-.814.188-1.489.465-2.026.83-.537.367-.932.807-1.184 1.318-.253.514-.379 1.104-.379 1.771 0 1.14.362 2.047 1.086 2.722.725.676 1.737 1.014 3.04 1.014a5.657 5.657 0 002.942-.806c.902-.537 1.851-1.358 2.844-2.466v-4.663zM366.538 335.89c0 .131-.028.24-.085.329-.058.09-.159.168-.306.232s-.338.113-.573.146a6.58 6.58 0 01-.867.049 7.04 7.04 0 01-.916-.049 2.043 2.043 0 01-.561-.146.586.586 0 01-.281-.232.673.673 0 01-.073-.329v-2.905c-1.254 1.384-2.49 2.393-3.711 3.027s-2.458.952-3.711.952c-1.465 0-2.698-.244-3.698-.732-1.002-.488-1.812-1.151-2.43-1.989-.619-.839-1.063-1.815-1.33-2.93-.27-1.115-.403-2.47-.403-4.065v-13.33c0-.13.028-.24.085-.329.058-.09.167-.172.33-.244.162-.074.374-.123.635-.146.26-.025.586-.037.977-.037s.716.012.977.037c.26.023.468.072.623.146a.832.832 0 01.329.244.55.55 0 01.098.329v12.793c0 1.286.094 2.315.28 3.089.188.772.473 1.432.855 1.977.382.546.866.969 1.452 1.27.586.302 1.27.452 2.051.452 1.009 0 2.015-.357 3.015-1.074 1.002-.716 2.063-1.766 3.187-3.149V313.92c0-.13.028-.24.085-.329.058-.09.167-.172.33-.244.162-.074.37-.123.623-.146.252-.025.581-.037.988-.037.391 0 .716.012.977.037.26.023.464.072.61.146a.959.959 0 01.329.244c.074.089.11.199.11.329v21.97zM394.876 315.357c0 .358-.009.659-.024.903a2.244 2.244 0 01-.098.573.821.821 0 01-.184.318.415.415 0 01-.305.109c-.131 0-.289-.037-.477-.109a9.704 9.704 0 00-1.428-.428 4.453 4.453 0 00-.952-.098c-.407 0-.806.082-1.196.244-.391.163-.802.432-1.232.806-.432.375-.884.871-1.355 1.489a32.905 32.905 0 00-1.563 2.271v14.453c0 .131-.033.24-.098.329-.065.09-.171.168-.317.232s-.351.113-.61.146a8.482 8.482 0 01-1.001.049c-.391 0-.717-.017-.977-.049a2.469 2.469 0 01-.622-.146c-.155-.064-.261-.143-.318-.232a.596.596 0 01-.085-.329v-21.973c0-.13.024-.24.073-.329.049-.09.146-.172.293-.244.146-.074.333-.123.562-.146a8.66 8.66 0 01.903-.037c.357 0 .655.012.891.037.236.023.419.072.55.146.13.072.224.154.28.244a.59.59 0 01.086.329v3.198c.602-.879 1.168-1.595 1.697-2.148.528-.553 1.028-.988 1.501-1.307.472-.316.94-.537 1.403-.658a5.463 5.463 0 011.404-.184c.211 0 .451.012.721.037.268.023.549.069.842.134.293.065.558.139.793.22.236.082.403.163.501.244a.685.685 0 01.195.232c.032.072.062.167.085.28.025.114.041.28.049.501.009.222.013.519.013.893zM423.043 335.914c0 .195-.065.342-.195.439-.131.098-.31.171-.537.22-.229.049-.562.073-1.001.073a5.54 5.54 0 01-1.013-.073c-.253-.049-.437-.122-.55-.22-.114-.098-.171-.244-.171-.439v-2.197c-.961 1.025-2.03 1.823-3.211 2.393a8.519 8.519 0 01-3.747.854c-1.156 0-2.201-.15-3.138-.452-.936-.301-1.732-.735-2.393-1.306a5.852 5.852 0 01-1.537-2.1c-.367-.83-.55-1.773-.55-2.832 0-1.236.252-2.311.757-3.223.504-.911 1.229-1.668 2.173-2.271.943-.602 2.1-1.054 3.467-1.355 1.367-.301 2.905-.451 4.614-.451h3.027v-1.709c0-.846-.09-1.595-.269-2.246-.18-.65-.468-1.192-.866-1.623-.399-.432-.916-.758-1.551-.977-.635-.221-1.416-.33-2.344-.33-.993 0-1.884.118-2.674.354-.789.236-1.48.497-2.074.781a20.05 20.05 0 00-1.49.781c-.398.236-.695.354-.891.354a.595.595 0 01-.342-.098.801.801 0 01-.256-.293 1.477 1.477 0 01-.159-.501 4.202 4.202 0 01-.049-.671c0-.406.028-.729.085-.964.058-.236.195-.46.416-.672.219-.211.598-.46 1.135-.744a12.342 12.342 0 011.855-.781 16.72 16.72 0 012.295-.586c.83-.155 1.668-.232 2.515-.232 1.578 0 2.921.18 4.028.537 1.106.358 2.002.883 2.686 1.574.684.692 1.18 1.551 1.489 2.576.309 1.025.464 2.222.464 3.589v14.821zm-4.004-10.034h-3.442c-1.107 0-2.067.094-2.881.28-.814.188-1.489.465-2.026.83-.537.367-.932.807-1.184 1.318-.253.514-.379 1.104-.379 1.771 0 1.14.362 2.047 1.086 2.722.725.676 1.737 1.014 3.04 1.014a5.657 5.657 0 002.942-.806c.902-.537 1.851-1.358 2.844-2.466v-4.663zM457.412 335.89c0 .131-.033.24-.098.329-.065.09-.171.168-.317.232s-.351.113-.61.146a8.218 8.218 0 01-.977.049c-.407 0-.741-.017-1.001-.049-.261-.033-.464-.082-.61-.146s-.253-.143-.317-.232a.542.542 0 01-.098-.329v-12.866c0-1.253-.098-2.262-.293-3.027-.195-.765-.48-1.424-.854-1.978a3.71 3.71 0 00-1.453-1.27c-.594-.293-1.281-.439-2.063-.439-1.01 0-2.019.358-3.027 1.074-1.01.717-2.067 1.767-3.174 3.149v15.356c0 .131-.033.24-.098.329-.065.09-.171.168-.317.232s-.351.113-.61.146a8.482 8.482 0 01-1.001.049c-.391 0-.717-.017-.977-.049a2.469 2.469 0 01-.622-.146c-.155-.064-.261-.143-.318-.232a.596.596 0 01-.085-.329v-21.973c0-.13.024-.24.073-.329.049-.09.146-.172.293-.244.146-.074.333-.123.562-.146a8.66 8.66 0 01.903-.037c.357 0 .655.012.891.037.236.023.419.072.55.146.13.072.224.154.28.244a.59.59 0 01.086.329v2.905c1.236-1.383 2.47-2.396 3.699-3.039 1.229-.644 2.469-.965 3.723-.965 1.465 0 2.697.248 3.699.744 1 .497 1.81 1.16 2.429 1.99.618.83 1.062 1.803 1.331 2.918.268 1.114.402 2.453.402 4.016v13.405zM483.772 334.278c0 .473-.033.847-.098 1.123-.065.277-.163.48-.293.61-.131.131-.326.253-.586.366a4.706 4.706 0 01-.892.28 12.24 12.24 0 01-1.062.184 8.654 8.654 0 01-1.123.073c-1.14 0-2.116-.15-2.93-.452-.814-.301-1.481-.756-2.002-1.367-.521-.609-.899-1.383-1.136-2.318-.235-.937-.354-2.039-.354-3.309v-12.842h-3.076c-.244 0-.439-.13-.586-.391-.146-.26-.22-.684-.22-1.27 0-.309.021-.569.062-.781a2.22 2.22 0 01.158-.525.612.612 0 01.256-.293.735.735 0 01.354-.085h3.052v-5.225c0-.113.028-.22.086-.317.057-.098.162-.184.316-.256.155-.074.362-.126.623-.159.26-.032.586-.049.977-.049.406 0 .74.017 1.001.049.26.033.464.085.61.159a.786.786 0 01.317.256.572.572 0 01.098.317v5.225h5.64c.13 0 .244.028.342.085a.708.708 0 01.256.293c.074.139.126.314.159.525.032.212.049.473.049.781 0 .586-.073 1.01-.22 1.27-.146.261-.342.391-.586.391h-5.64v12.256c0 1.514.224 2.657.671 3.43.448.773 1.249 1.16 2.405 1.16a4.21 4.21 0 001.001-.109 8.431 8.431 0 001.367-.464c.162-.072.309-.109.439-.109.081 0 .158.021.232.061.072.041.13.119.17.232.041.114.077.269.11.464.037.194.053.438.053.731zM510.938 329.908c0 1.123-.208 2.124-.622 3.003a6.124 6.124 0 01-1.771 2.222c-.766.603-1.677 1.059-2.734 1.367-1.059.309-2.222.464-3.491.464a13.26 13.26 0 01-2.234-.183 13.115 13.115 0 01-1.904-.465 9.857 9.857 0 01-1.428-.586c-.391-.203-.676-.386-.854-.549-.18-.162-.31-.391-.391-.684-.082-.293-.122-.691-.122-1.196 0-.309.016-.569.049-.781.032-.211.073-.382.122-.513a.545.545 0 01.208-.281.551.551 0 01.305-.085c.179 0 .443.11.793.329.351.221.781.461 1.295.721.512.261 1.118.5 1.818.721.699.219 1.505.329 2.417.329.684 0 1.302-.073 1.855-.22a4.5 4.5 0 001.44-.646 2.87 2.87 0 00.939-1.087c.221-.439.33-.96.33-1.563 0-.618-.158-1.139-.477-1.563-.316-.423-.736-.797-1.257-1.123a10.426 10.426 0 00-1.758-.866c-.651-.253-1.322-.517-2.015-.794a20.522 20.522 0 01-2.025-.94 7.73 7.73 0 01-1.771-1.281 5.82 5.82 0 01-1.257-1.807c-.318-.699-.477-1.538-.477-2.515 0-.862.167-1.688.5-2.478a5.758 5.758 0 011.502-2.076c.667-.594 1.502-1.069 2.502-1.428 1.002-.357 2.169-.537 3.504-.537.586 0 1.172.049 1.758.146s1.114.22 1.587.366c.472.146.875.306 1.208.476.334.172.586.322.758.452.17.131.284.244.342.342.057.098.098.208.121.329a5.275 5.275 0 01.11 1.111c0 .277-.013.517-.036.721a1.78 1.78 0 01-.123.5.648.648 0 01-.207.281.46.46 0 01-.269.085c-.146 0-.358-.089-.635-.269a9.03 9.03 0 00-1.074-.574 11.905 11.905 0 00-1.55-.573c-.595-.179-1.274-.269-2.039-.269-.684 0-1.286.077-1.807.232-.521.154-.948.374-1.281.658a2.801 2.801 0 00-.758 1.014 3.15 3.15 0 00-.256 1.27c0 .635.162 1.168.488 1.6.325.431.748.81 1.27 1.135.521.326 1.114.619 1.782.879.667.261 1.347.529 2.038.806.692.277 1.376.586 2.051.928a7.695 7.695 0 011.795 1.245 5.648 5.648 0 011.258 1.758c.319.684.478 1.499.478 2.442z"/></g></g></switch></svg>